<svg width="21" height="20" viewBox="0 0 21 20" fill="none" xmlns="http://www.w3.org/2000/svg">
<path d="M15.4121 5.13281H4.16211C3.99635 5.13281 3.83738 5.19866 3.72017 5.31587C3.60296 5.43308 3.53711 5.59205 3.53711 5.75781V17.0078C3.53711 17.1736 3.60296 17.3325 3.72017 17.4498C3.83738 17.567 3.99635 17.6328 4.16211 17.6328H15.4121C15.5779 17.6328 15.7368 17.567 15.8541 17.4498C15.9713 17.3325 16.0371 17.1736 16.0371 17.0078V5.75781C16.0371 5.59205 15.9713 5.43308 15.8541 5.31587C15.7368 5.19866 15.5779 5.13281 15.4121 5.13281ZM14.7871 16.3828H4.78711V6.38281H14.7871V16.3828ZM18.5371 3.25781V14.5078C18.5371 14.6736 18.4713 14.8325 18.3541 14.9498C18.2368 15.067 18.0779 15.1328 17.9121 15.1328C17.7463 15.1328 17.5874 15.067 17.4702 14.9498C17.353 14.8325 17.2871 14.6736 17.2871 14.5078V3.88281H6.66211C6.49635 3.88281 6.33738 3.81696 6.22017 3.69975C6.10296 3.58254 6.03711 3.42357 6.03711 3.25781C6.03711 3.09205 6.10296 2.93308 6.22017 2.81587C6.33738 2.69866 6.49635 2.63281 6.66211 2.63281H17.9121C18.0779 2.63281 18.2368 2.69866 18.3541 2.81587C18.4713 2.93308 18.5371 3.09205 18.5371 3.25781Z" fill="#4197CB"/>
</svg>
