<svg width="40" height="41" viewBox="0 0 40 41" fill="none" xmlns="http://www.w3.org/2000/svg">
<rect y="0.5" width="40" height="40" rx="8" fill="white"/>
<rect x="0.5" y="1" width="39" height="39" rx="7.5" stroke="#00539D" stroke-opacity="0.2"/>
<path d="M26 26.5H15.0667C14.6933 26.5 14.5066 26.5 14.364 26.4273C14.2386 26.3634 14.1366 26.2614 14.0727 26.136C14 25.9934 14 25.8067 14 25.4333V14.5M25.3333 17.8333L22.7208 20.6218C22.6217 20.7274 22.5722 20.7803 22.5125 20.8076C22.4598 20.8317 22.4017 20.8416 22.344 20.8364C22.2786 20.8305 22.2143 20.7972 22.0858 20.7304L19.9142 19.6029C19.7857 19.5362 19.7214 19.5028 19.656 19.4969C19.5983 19.4917 19.5402 19.5016 19.4875 19.5257C19.4278 19.553 19.3783 19.6059 19.2792 19.7116L16.6667 22.5" stroke="#00529B" stroke-width="1.5" stroke-linecap="round" stroke-linejoin="round"/>
</svg>
