<svg width="28" height="28" viewBox="0 0 28 28" fill="none" xmlns="http://www.w3.org/2000/svg">
<mask id="mask0_14_28281" style="mask-type:alpha" maskUnits="userSpaceOnUse" x="0" y="0" width="28" height="28">
<rect width="28" height="28" fill="#D9D9D9"/>
</mask>
<g mask="url(#mask0_14_28281)">
<path d="M7.58307 20.2703V12.1037C7.58307 11.9384 7.63904 11.7998 7.75098 11.688C7.86294 11.5762 8.00168 11.5203 8.16719 11.5203C8.33268 11.5203 8.47115 11.5762 8.58258 11.688C8.69402 11.7998 8.74974 11.9384 8.74974 12.1037V20.2703C8.74974 20.4356 8.69376 20.5742 8.5818 20.686C8.46983 20.7978 8.33111 20.8537 8.16562 20.8537C8.00011 20.8537 7.86163 20.7978 7.7502 20.686C7.63878 20.5742 7.58307 20.4356 7.58307 20.2703ZM4.71126 24.3537C4.54599 24.3537 4.40744 24.2977 4.29564 24.1857C4.18383 24.0738 4.12793 23.9351 4.12793 23.7695C4.12793 23.6041 4.18383 23.4656 4.29564 23.3542C4.40744 23.2427 4.54599 23.187 4.71126 23.187H23.2882C23.4535 23.187 23.592 23.243 23.7038 23.3549C23.8156 23.4669 23.8715 23.6056 23.8715 23.7711C23.8715 23.9366 23.8156 24.0751 23.7038 24.1865C23.592 24.2979 23.4535 24.3537 23.2882 24.3537H4.71126ZM19.2497 20.2703V12.1037C19.2497 11.9384 19.3057 11.7998 19.4177 11.688C19.5296 11.5762 19.6684 11.5203 19.8339 11.5203C19.9994 11.5203 20.1378 11.5762 20.2493 11.688C20.3607 11.7998 20.4164 11.9384 20.4164 12.1037V20.2703C20.4164 20.4356 20.3604 20.5742 20.2485 20.686C20.1365 20.7978 19.9978 20.8537 19.8323 20.8537C19.6668 20.8537 19.5283 20.7978 19.4169 20.686C19.3055 20.5742 19.2497 20.4356 19.2497 20.2703Z" fill="#4197CB"/>
<path fill-rule="evenodd" clip-rule="evenodd" d="M13.9508 8.45044C14.273 8.45044 14.5342 8.71161 14.5342 9.03377L14.5342 20.2791C14.5342 20.6013 14.273 20.8625 13.9508 20.8625C13.6287 20.8625 13.3675 20.6013 13.3675 20.2791L13.3675 9.03377C13.3675 8.71161 13.6287 8.45044 13.9508 8.45044Z" fill="#4197CB"/>
<path fill-rule="evenodd" clip-rule="evenodd" d="M13.1359 7.63955C13.5988 7.13024 14.3997 7.13024 14.8626 7.63955L17.0168 10.0097C17.2335 10.2481 17.2159 10.617 16.9775 10.8337C16.739 11.0504 16.3701 11.0328 16.1534 10.7944L13.9993 8.42423L11.8451 10.7944C11.6284 11.0328 11.2595 11.0504 11.0211 10.8337C10.7827 10.617 10.7651 10.2481 10.9817 10.0097L13.1359 7.63955Z" fill="#4197CB"/>
<path fill-rule="evenodd" clip-rule="evenodd" d="M13.2627 3.4457C13.6819 3.13133 14.2593 3.13501 14.6744 3.4547L14.3185 3.91688L14.6744 3.4547L23.2776 10.0794C23.5329 10.276 23.5805 10.6422 23.3839 10.8975C23.1874 11.1528 22.8211 11.2003 22.5658 11.0038L13.9626 4.37907L5.1228 11.0083C4.86506 11.2016 4.49942 11.1493 4.30614 10.8916C4.11285 10.6338 4.1651 10.2682 4.42284 10.0749L13.2627 3.4457L13.6127 3.91239L13.2627 3.4457Z" fill="#4197CB"/>
</g>
</svg>
