<svg width="40" height="41" viewBox="0 0 40 41" fill="none" xmlns="http://www.w3.org/2000/svg">
<rect y="0.5" width="40" height="40" rx="20" fill="#00539D" fill-opacity="0.2"/>
<path d="M13 17.5V25.5M17.5 17.5V25.5M22.5 17.5V25.5M27 17.5V25.5M11 27.1L11 27.9C11 28.4601 11 28.7401 11.109 28.954C11.2049 29.1422 11.3578 29.2951 11.546 29.391C11.7599 29.5 12.0399 29.5 12.6 29.5H27.4C27.9601 29.5 28.2401 29.5 28.454 29.391C28.6422 29.2951 28.7951 29.1422 28.891 28.954C29 28.7401 29 28.4601 29 27.9V27.1C29 26.54 29 26.2599 28.891 26.046C28.7951 25.8579 28.6422 25.7049 28.454 25.609C28.2401 25.5 27.9601 25.5 27.4 25.5H12.6C12.0399 25.5 11.7599 25.5 11.546 25.609C11.3578 25.7049 11.2049 25.8579 11.109 26.046C11 26.2599 11 26.54 11 27.1ZM19.6529 11.5771L12.2529 13.2216C11.8059 13.3209 11.5823 13.3706 11.4155 13.4908C11.2683 13.5968 11.1527 13.7409 11.0811 13.9076C11 14.0965 11 14.3255 11 14.7835L11 15.9C11 16.4601 11 16.7401 11.109 16.954C11.2049 17.1422 11.3578 17.2951 11.546 17.391C11.7599 17.5 12.0399 17.5 12.6 17.5H27.4C27.9601 17.5 28.2401 17.5 28.454 17.391C28.6422 17.2951 28.7951 17.1422 28.891 16.954C29 16.7401 29 16.4601 29 15.9V14.7835C29 14.3255 29 14.0965 28.9188 13.9076C28.8473 13.7409 28.7317 13.5968 28.5845 13.4908C28.4177 13.3706 28.1942 13.3209 27.7471 13.2216L20.3471 11.5771C20.2176 11.5484 20.1528 11.534 20.0874 11.5282C20.0292 11.5231 19.9708 11.5231 19.9126 11.5282C19.8472 11.534 19.7824 11.5484 19.6529 11.5771Z" stroke="#00529B" stroke-width="2" stroke-linecap="round" stroke-linejoin="round"/>
</svg>
