<svg width="14" height="12" viewBox="0 0 14 12" fill="none" xmlns="http://www.w3.org/2000/svg">
<path d="M13 6.00001L5 6.00001M13 2.00001L5 2.00001M13 10L5 10M2.33333 6.00001C2.33333 6.3682 2.03486 6.66668 1.66667 6.66668C1.29848 6.66668 1 6.3682 1 6.00001C1 5.63182 1.29848 5.33334 1.66667 5.33334C2.03486 5.33334 2.33333 5.63182 2.33333 6.00001ZM2.33333 2.00001C2.33333 2.3682 2.03486 2.66668 1.66667 2.66668C1.29848 2.66668 1 2.3682 1 2.00001C1 1.63182 1.29848 1.33334 1.66667 1.33334C2.03486 1.33334 2.33333 1.63182 2.33333 2.00001ZM2.33333 10C2.33333 10.3682 2.03486 10.6667 1.66667 10.6667C1.29848 10.6667 1 10.3682 1 10C1 9.63182 1.29848 9.33334 1.66667 9.33334C2.03486 9.33334 2.33333 9.63182 2.33333 10Z" stroke="#00529B" stroke-width="1.5" stroke-linecap="round" stroke-linejoin="round"/>
</svg>
