<svg width="25" height="25" viewBox="0 0 25 25" fill="none" xmlns="http://www.w3.org/2000/svg">
<g clip-path="url(#clip0_12536_260)">
<path d="M11.5 5.939C11.0858 5.939 10.75 6.27478 10.75 6.689C10.75 7.10321 11.0858 7.439 11.5 7.439H14.5C14.9142 7.439 15.25 7.10321 15.25 6.689C15.25 6.27478 14.9142 5.939 14.5 5.939H11.5Z" fill="#00529B"/>
<path fill-rule="evenodd" clip-rule="evenodd" d="M4.75 14.189V11.189H4.46826C3.38122 11.189 2.5 10.3078 2.5 9.22074C2.5 8.5488 2.84278 7.92329 3.40915 7.56173L11.7893 2.21191C12.5276 1.74056 13.4724 1.74056 14.2107 2.21191L22.5908 7.56173C23.1572 7.92329 23.5 8.5488 23.5 9.22074C23.5 10.3078 22.6188 11.189 21.5317 11.189H21.25V20.939H22.75C23.1642 20.939 23.5 21.2748 23.5 21.689C23.5 22.1032 23.1642 22.439 22.75 22.439H10C9.58579 22.439 9.25 22.1032 9.25 21.689C9.25 21.2748 9.58579 20.939 10 20.939H15.25V11.189H10.75V14.189C10.75 14.6032 10.4142 14.939 10 14.939C9.58579 14.939 9.25 14.6032 9.25 14.189V11.189H6.25V14.189C6.25 14.6032 5.91421 14.939 5.5 14.939C5.08579 14.939 4.75 14.6032 4.75 14.189ZM4.46826 9.689H21.5317C21.7904 9.689 22 9.47935 22 9.22074C22 9.06088 21.9184 8.91207 21.7837 8.82606L13.4036 3.47623C13.1575 3.31912 12.8425 3.31912 12.5964 3.47623L4.21629 8.82606C4.08155 8.91207 4 9.06088 4 9.22074C4 9.47935 4.20965 9.689 4.46826 9.689ZM16.75 11.189H19.75V20.939H16.75V11.189Z" fill="#00529B"/>
<path d="M4.92383 16.7089C5.18901 16.3907 5.66193 16.3477 5.98014 16.6128L8.68014 18.8628C8.85113 19.0053 8.95 19.2164 8.95 19.439C8.95 19.6616 8.85113 19.8727 8.68014 20.0152L5.98014 22.2652C5.66193 22.5303 5.18901 22.4873 4.92383 22.1691C4.65866 21.8509 4.70165 21.378 5.01986 21.1128L6.12846 20.189L3.25 20.189C2.83579 20.189 2.5 19.8532 2.5 19.439C2.5 19.0248 2.83579 18.689 3.25 18.689L6.12846 18.689L5.01986 17.7652C4.70165 17.5 4.65866 17.0271 4.92383 16.7089Z" fill="#00529B"/>
</g>
<defs>
<clipPath id="clip0_12536_260">
<rect width="24" height="24" fill="white" transform="translate(0.796875 0.0722656)"/>
</clipPath>
</defs>
</svg>
