<svg width="19" height="18" viewBox="0 0 19 18" fill="none" xmlns="http://www.w3.org/2000/svg">
<path d="M18.0766 5.03661C18.0766 3.88533 17.6718 2.90488 16.8621 2.09528C16.0525 1.28567 15.0721 0.880859 13.9208 0.880859C13.8054 0.880859 13.7057 0.835167 13.6217 0.743784C13.5378 0.652417 13.4958 0.547609 13.4958 0.429359C13.4958 0.311126 13.5378 0.210984 13.6217 0.128934C13.7057 0.0468837 13.8054 0.00585938 13.9208 0.00585938C15.313 0.00585938 16.4995 0.496275 17.4803 1.47711C18.4611 2.45796 18.9516 3.64446 18.9516 5.03661C18.9516 5.15204 18.9092 5.25173 18.8244 5.33568C18.7397 5.41963 18.639 5.46161 18.5225 5.46161C18.406 5.46161 18.3025 5.41963 18.2121 5.33568C18.1218 5.25173 18.0766 5.15204 18.0766 5.03661ZM15.415 5.04238C15.415 4.62238 15.27 4.26738 14.98 3.97738C14.69 3.68738 14.335 3.54238 13.915 3.54238C13.7968 3.54238 13.6974 3.49879 13.6167 3.41161C13.5361 3.32444 13.4958 3.22444 13.4958 3.11161C13.4958 2.99618 13.5378 2.89648 13.6217 2.81253C13.7057 2.72858 13.8054 2.68661 13.9208 2.68661C14.5686 2.68661 15.1222 2.91634 15.5816 3.37581C16.0411 3.83526 16.2708 4.38886 16.2708 5.03661C16.2708 5.15204 16.2284 5.25173 16.1437 5.33568C16.0589 5.41963 15.9583 5.46161 15.8417 5.46161C15.7252 5.46161 15.625 5.4213 15.541 5.34068C15.457 5.26007 15.415 5.16063 15.415 5.04238ZM2.59194 18.0001C2.13169 18.0001 1.7474 17.8459 1.43906 17.5376C1.13073 17.2293 0.976562 16.845 0.976562 16.3847V5.61546C0.976562 5.15521 1.13073 4.77092 1.43906 4.46258C1.7474 4.15425 2.13169 4.00008 2.59194 4.00008H5.54964L6.91501 2.51546C7.0625 2.35688 7.24015 2.23133 7.44796 2.13883C7.65578 2.04633 7.87365 2.00008 8.10156 2.00008H12.015C12.1567 2.00008 12.2755 2.04807 12.3713 2.14403C12.4671 2.23998 12.515 2.35889 12.515 2.50076C12.515 2.64261 12.4671 2.76129 12.3713 2.85681C12.2755 2.95233 12.1567 3.00008 12.015 3.00008H7.83669L5.98811 5.00008H2.59194C2.41245 5.00008 2.26502 5.05778 2.14964 5.17316C2.03425 5.28854 1.97656 5.43598 1.97656 5.61546V16.3847C1.97656 16.5642 2.03425 16.7116 2.14964 16.827C2.26502 16.9424 2.41245 17.0001 2.59194 17.0001H17.3612C17.5407 17.0001 17.6881 16.9424 17.8035 16.827C17.9189 16.7116 17.9766 16.5642 17.9766 16.3847V6.96163C17.9766 6.81995 18.0245 6.70119 18.1205 6.60536C18.2165 6.50953 18.3354 6.46161 18.4772 6.46161C18.6191 6.46161 18.7378 6.50953 18.8333 6.60536C18.9288 6.70119 18.9766 6.81995 18.9766 6.96163V16.3847C18.9766 16.845 18.8224 17.2293 18.5141 17.5376C18.2057 17.8459 17.8214 18.0001 17.3612 18.0001H2.59194ZM9.97656 14.7309C11.0214 14.7309 11.9044 14.3703 12.6256 13.6491C13.3468 12.928 13.7073 12.045 13.7073 11.0001C13.7073 9.95522 13.3468 9.0722 12.6256 8.35104C11.9044 7.62989 11.0214 7.26931 9.97656 7.26931C8.9317 7.26931 8.04868 7.62989 7.32751 8.35104C6.60636 9.0722 6.24579 9.95522 6.24579 11.0001C6.24579 12.045 6.60636 12.928 7.32751 13.6491C8.04868 14.3703 8.9317 14.7309 9.97656 14.7309ZM9.97656 13.7309C9.19965 13.7309 8.55029 13.47 8.02849 12.9482C7.50669 12.4264 7.24579 11.777 7.24579 11.0001C7.24579 10.2232 7.50669 9.57381 8.02849 9.05201C8.55029 8.53021 9.19965 8.26931 9.97656 8.26931C10.7535 8.26931 11.4028 8.53021 11.9246 9.05201C12.4464 9.57381 12.7073 10.2232 12.7073 11.0001C12.7073 11.777 12.4464 12.4264 11.9246 12.9482C11.4028 13.47 10.7535 13.7309 9.97656 13.7309Z" fill="#0D2B88"/>
</svg>
