<svg width="23" height="16" viewBox="0 0 23 16" fill="none" xmlns="http://www.w3.org/2000/svg">
<path d="M21.2002 6H1.2002M1.2002 4.2L1.2002 11.8C1.2002 12.9201 1.2002 13.4802 1.41818 13.908C1.60993 14.2843 1.91589 14.5903 2.29221 14.782C2.72004 15 3.28009 15 4.40019 15L18.0002 15C19.1203 15 19.6804 15 20.1082 14.782C20.4845 14.5903 20.7905 14.2843 20.9822 13.908C21.2002 13.4802 21.2002 12.9201 21.2002 11.8V4.2C21.2002 3.0799 21.2002 2.51984 20.9822 2.09202C20.7905 1.7157 20.4845 1.40974 20.1082 1.21799C19.6804 1 19.1203 1 18.0002 1L4.4002 1C3.28009 1 2.72004 1 2.29221 1.21799C1.91589 1.40973 1.60993 1.71569 1.41818 2.09202C1.2002 2.51984 1.2002 3.07989 1.2002 4.2Z" stroke="#9E9FA7" stroke-width="2" stroke-linecap="round" stroke-linejoin="round"/>
</svg>
