<svg width="28" height="28" viewBox="0 0 28 28" fill="none" xmlns="http://www.w3.org/2000/svg">
<mask id="mask0_14_28284" style="mask-type:alpha" maskUnits="userSpaceOnUse" x="0" y="0" width="28" height="28">
<rect width="28" height="28" fill="#D9D9D9"/>
</mask>
<g mask="url(#mask0_14_28284)">
<path fill-rule="evenodd" clip-rule="evenodd" d="M7.17904 9.93842H21.0754V12.7822H25.1322V8.29557L2.86784 8.29557V12.7822H7.17904V9.93842ZM25.1322 13.9488C25.7765 13.9488 26.2989 13.4265 26.2989 12.7822V8.29557C26.2989 7.65124 25.7765 7.12891 25.1322 7.12891H2.86784C2.22351 7.12891 1.70117 7.65124 1.70117 8.29557V12.7822C1.70117 13.4265 2.22351 13.9488 2.86784 13.9488H8.3457V11.1051H19.9087V13.9488H25.1322Z" fill="#4197CB"/>
<path fill-rule="evenodd" clip-rule="evenodd" d="M19.8986 11.0614H8.36784L8.36784 19.7047H19.8986V11.0614ZM7.20117 9.89478V19.7047C7.20117 20.349 7.72351 20.8713 8.36784 20.8713H19.8986C20.543 20.8713 21.0653 20.349 21.0653 19.7047V9.89478H7.20117Z" fill="#4197CB"/>
<path fill-rule="evenodd" clip-rule="evenodd" d="M4.05566 10.4669C4.05566 10.1447 4.31683 9.88354 4.639 9.88354H23.3621C23.6842 9.88354 23.9454 10.1447 23.9454 10.4669C23.9454 10.789 23.6842 11.0502 23.3621 11.0502H4.639C4.31683 11.0502 4.05566 10.789 4.05566 10.4669Z" fill="#4197CB"/>
<path fill-rule="evenodd" clip-rule="evenodd" d="M14.0667 11.8958C14.3889 11.8958 14.6501 12.1569 14.6501 12.4791V17.8959C14.6501 18.2181 14.3889 18.4792 14.0667 18.4792C13.7446 18.4792 13.4834 18.2181 13.4834 17.8959V12.4791C13.4834 12.1569 13.7446 11.8958 14.0667 11.8958Z" fill="#4197CB"/>
<path fill-rule="evenodd" clip-rule="evenodd" d="M14.8198 18.362C14.4453 18.7932 13.7748 18.79 13.4045 18.3551L13.8486 17.9769L13.8578 17.9691M14.1168 17.3922L12.4934 15.4857C12.2845 15.2404 11.9164 15.2109 11.6711 15.4198C11.4258 15.6287 11.3963 15.9968 11.6052 16.2421L13.4045 18.3551L13.8486 17.9769M14.1168 17.3922L15.776 15.4815C15.9873 15.2382 16.3557 15.2122 16.5989 15.4235C16.8422 15.6347 16.8681 16.0031 16.6569 16.2464L14.8198 18.362" fill="#4197CB"/>
</g>
</svg>
