<svg width="24" height="25" viewBox="0 0 24 25" fill="none" xmlns="http://www.w3.org/2000/svg">
<mask id="mask0_1308_4136" style="mask-type:alpha" maskUnits="userSpaceOnUse" x="0" y="0" width="24" height="25">
<rect y="0.844238" width="24" height="24" fill="#D9D9D9"/>
</mask>
<g mask="url(#mask0_1308_4136)">
<path d="M11.9929 17.4445C11.8242 17.4445 11.6687 17.4169 11.5261 17.3617C11.3836 17.3065 11.2441 17.2107 11.1076 17.0742L4.23574 10.2023C4.0892 10.0558 4.0109 9.87612 4.00086 9.66331C3.99081 9.45051 4.0691 9.26079 4.23574 9.09415C4.40238 8.92754 4.58707 8.84424 4.78983 8.84424C4.99258 8.84424 5.17728 8.92754 5.34391 9.09415L11.9929 15.7431L18.6419 9.09415C18.7884 8.94761 18.9681 8.86932 19.1809 8.85927C19.3937 8.84925 19.5834 8.92754 19.75 9.09415C19.9167 9.26079 20 9.44548 20 9.64824C20 9.85102 19.9167 10.0357 19.75 10.2023L12.8782 17.0742C12.7417 17.2107 12.6022 17.3065 12.4596 17.3617C12.3171 17.4169 12.1615 17.4445 11.9929 17.4445Z" fill="#0D2B88"/>
</g>
</svg>
