<svg width="12" height="12" viewBox="0 0 12 12" fill="none" xmlns="http://www.w3.org/2000/svg">
<g clip-path="url(#clip0_7358_76303)">
<path d="M5.28795 3.06047L5.2872 3.06129L0.381453 8.41211C0.19484 8.61565 0.208564 8.93193 0.412108 9.11855C0.615652 9.30516 0.931936 9.29144 1.11855 9.08789L5.99751 3.76629L10.8816 9.08808L11.0658 8.91904L10.8816 9.08808C11.0683 9.29153 11.3846 9.30509 11.5881 9.11838L11.419 8.93419L11.5881 9.11837C11.7915 8.93166 11.8051 8.61537 11.6184 8.41192L11.436 8.57926L11.6184 8.41192L6.71165 3.06552L6.71049 3.06424L6.71043 3.06417C6.32865 2.64157 5.66744 2.65022 5.28795 3.06047Z" fill="#00529B" stroke="#00529B" stroke-width="0.5" stroke-miterlimit="1" stroke-linecap="round" stroke-linejoin="round"/>
</g>
<defs>
<clipPath id="clip0_7358_76303">
<rect width="12" height="12" fill="white" transform="matrix(0 -1 1 0 0 12)"/>
</clipPath>
</defs>
</svg>
