<svg width="13" height="12" viewBox="0 0 13 12" fill="none" xmlns="http://www.w3.org/2000/svg">
<g clip-path="url(#clip0_2194_58823)">
<path d="M5.78795 8.93953L5.7872 8.93871L0.881453 3.58789C0.69484 3.38435 0.708564 3.06807 0.912108 2.88145C1.11565 2.69484 1.43194 2.70856 1.61855 2.91211L6.49751 8.23371L11.3816 2.91192L11.5658 3.08096L11.3816 2.91192C11.5683 2.70847 11.8846 2.69491 12.0881 2.88162L11.919 3.06581L12.0881 2.88163C12.2915 3.06834 12.3051 3.38463 12.1184 3.58808L11.936 3.42074L12.1184 3.58808L7.21165 8.93448L7.2105 8.93576L7.21043 8.93583C6.82865 9.35844 6.16744 9.34978 5.78795 8.93953Z" fill="#00539D" stroke="#00539D" stroke-width="0.5" stroke-miterlimit="1" stroke-linecap="round" stroke-linejoin="round"/>
</g>
<defs>
<clipPath id="clip0_2194_58823">
<rect width="12" height="12" fill="white" transform="matrix(0 1 1 0 0.5 0)"/>
</clipPath>
</defs>
</svg>
