<svg width="24" height="24" viewBox="0 0 21 21" fill="none" xmlns="http://www.w3.org/2000/svg">
<path d="M1.6001 9.5653C1.6001 8.99094 1.6001 8.70376 1.67413 8.4393C1.7397 8.20503 1.84746 7.98469 1.99212 7.7891C2.15543 7.5683 2.38212 7.39199 2.83549 7.03937L9.61779 1.76424C9.96912 1.49099 10.1448 1.35436 10.3388 1.30184C10.5099 1.2555 10.6903 1.2555 10.8614 1.30184C11.0554 1.35436 11.2311 1.49099 11.5824 1.76424L18.3647 7.03937C18.8181 7.39199 19.0448 7.5683 19.2081 7.7891C19.3527 7.98469 19.4605 8.20503 19.5261 8.4393C19.6001 8.70376 19.6001 8.99094 19.6001 9.5653V16.8002C19.6001 17.9203 19.6001 18.4804 19.3821 18.9082C19.1904 19.2845 18.8844 19.5905 18.5081 19.7822C18.0803 20.0002 17.5202 20.0002 16.4001 20.0002H4.8001C3.67999 20.0002 3.11994 20.0002 2.69212 19.7822C2.31579 19.5905 2.00983 19.2845 1.81808 18.9082C1.6001 18.4804 1.6001 17.9203 1.6001 16.8002V9.5653Z" stroke="#00529B" stroke-width="2" stroke-linecap="round" stroke-linejoin="round"/>
</svg>
