<svg width="14" height="16" viewBox="0 0 14 16" fill="none" xmlns="http://www.w3.org/2000/svg">
<path d="M8.33332 1.51303V4.26673C8.33332 4.64009 8.33332 4.82678 8.40599 4.96938C8.4699 5.09483 8.57189 5.19681 8.69733 5.26073C8.83994 5.33339 9.02662 5.33339 9.39999 5.33339H12.1537M8.33332 11.3333H4.33332M9.66666 8.66668H4.33332M12.3333 6.65883V11.4667C12.3333 12.5868 12.3333 13.1468 12.1153 13.5747C11.9236 13.951 11.6176 14.2569 11.2413 14.4487C10.8135 14.6667 10.2534 14.6667 9.13332 14.6667H4.86666C3.74655 14.6667 3.1865 14.6667 2.75868 14.4487C2.38235 14.2569 2.07639 13.951 1.88464 13.5747C1.66666 13.1468 1.66666 12.5868 1.66666 11.4667V4.53334C1.66666 3.41324 1.66666 2.85319 1.88464 2.42536C2.07639 2.04904 2.38235 1.74308 2.75868 1.55133C3.1865 1.33334 3.74655 1.33334 4.86666 1.33334H7.00784C7.49702 1.33334 7.74161 1.33334 7.97179 1.3886C8.17586 1.4376 8.37095 1.51841 8.54989 1.62806C8.75173 1.75175 8.92468 1.9247 9.27058 2.2706L11.3961 4.39608C11.742 4.74199 11.9149 4.91494 12.0386 5.11677C12.1483 5.29572 12.2291 5.49081 12.2781 5.69488C12.3333 5.92506 12.3333 6.16965 12.3333 6.65883Z" stroke="#00529B" stroke-width="1.5" stroke-linecap="round" stroke-linejoin="round"/>
</svg>
