<svg width="16" height="15" viewBox="0 0 16 15" fill="none" xmlns="http://www.w3.org/2000/svg">
<path fill-rule="evenodd" clip-rule="evenodd" d="M5.44243 7.75455C5.36747 7.66949 5.32888 7.5584 5.33495 7.44518C5.34103 7.33196 5.3913 7.22565 5.47494 7.1491C5.55858 7.07255 5.66892 7.03187 5.78223 7.03582C5.89555 7.03977 6.00279 7.08803 6.0809 7.17022L8.03297 9.30259V1.42455C8.03518 1.3112 8.08176 1.20323 8.1627 1.12385C8.24365 1.04447 8.3525 1 8.46588 1C8.57925 1 8.6881 1.04447 8.76905 1.12385C8.84999 1.20323 8.89657 1.3112 8.89878 1.42455V9.30259L10.8509 7.17022C10.9287 7.08685 11.0363 7.03758 11.1503 7.03311C11.2642 7.02864 11.3754 7.06934 11.4595 7.14636C11.5436 7.22337 11.5939 7.33048 11.5995 7.4444C11.6051 7.55832 11.5655 7.66984 11.4893 7.75472L8.78511 10.7085C8.74461 10.7529 8.69531 10.7883 8.64034 10.8126C8.58537 10.8368 8.52595 10.8494 8.46588 10.8494C8.4058 10.8494 8.34638 10.8368 8.29141 10.8126C8.23645 10.7883 8.18714 10.7529 8.14664 10.7085L5.44243 7.75455ZM14.9587 8.75379C14.8439 8.75387 14.7338 8.79953 14.6526 8.88071C14.5715 8.9619 14.5259 9.07198 14.5258 9.18678V13.135H1.86501V9.18678C1.8628 9.07342 1.81622 8.96546 1.73527 8.88608C1.65433 8.80669 1.54547 8.76223 1.4321 8.76223C1.31872 8.76223 1.20987 8.80669 1.12893 8.88608C1.04798 8.96546 1.0014 9.07342 0.999192 9.18678V13.5667C0.999105 13.6236 1.01024 13.6799 1.03195 13.7325C1.05367 13.7851 1.08554 13.8329 1.12574 13.8731C1.16594 13.9134 1.21369 13.9453 1.26624 13.9671C1.3188 13.9888 1.37513 14 1.43202 14H14.9587C15.0155 14.0001 15.0718 13.9889 15.1243 13.9672C15.1768 13.9455 15.2245 13.9137 15.2647 13.8735C15.3049 13.8333 15.3368 13.7856 15.3586 13.7331C15.3803 13.6806 15.3915 13.6243 15.3915 13.5675V9.18678C15.3914 9.072 15.3458 8.96194 15.2646 8.88076C15.1835 8.79958 15.0734 8.75392 14.9587 8.75379Z" fill="#00539D" stroke="#00539D" stroke-width="0.599679"/>
</svg>
