<svg width="24" height="24" viewBox="0 0 24 24" fill="none" xmlns="http://www.w3.org/2000/svg">
<rect width="24" height="24" fill="white" fill-opacity="0.01" style="mix-blend-mode:multiply"/>
<path d="M12 1.5C9.9233 1.5 7.89323 2.11581 6.16652 3.26957C4.4398 4.42332 3.09399 6.0632 2.29927 7.98182C1.50455 9.90045 1.29661 12.0116 1.70176 14.0484C2.1069 16.0852 3.10693 17.9562 4.57538 19.4246C6.04383 20.8931 7.91476 21.8931 9.95156 22.2982C11.9884 22.7034 14.0996 22.4955 16.0182 21.7007C17.9368 20.906 19.5767 19.5602 20.7304 17.8335C21.8842 16.1068 22.5 14.0767 22.5 12C22.4969 9.21619 21.3896 6.5473 19.4212 4.57884C17.4527 2.61039 14.7838 1.50314 12 1.5ZM15.75 3.82913C16.5442 4.19532 17.2809 4.67521 17.9369 5.25367L17.6276 6H15.75V3.82913ZM10.0338 20.777C8.41089 20.4163 6.91989 19.6124 5.72682 18.4546C4.53375 17.2968 3.68542 15.8306 3.27627 14.2192C2.86713 12.6079 2.91323 10.9146 3.40943 9.32784C3.90564 7.74112 4.83248 6.32324 6.08678 5.23207L7.0986 6.75H9.60533L8.48033 9.75H5.45948L4.42253 12.8606L6.3486 15.75H10.0986L11.1725 17.3606L10.0338 20.777ZM12 21C11.8475 21 11.6988 20.985 11.5481 20.9775L12.5957 17.835C12.6685 17.6185 12.6906 17.3881 12.6602 17.1617C12.6299 16.9352 12.5479 16.7188 12.4206 16.5291L11.3467 14.9185C11.2099 14.7127 11.0244 14.544 10.8067 14.4274C10.5889 14.3107 10.3456 14.2498 10.0986 14.25H7.1511L6.07748 12.6394L6.54053 11.25H8.25V12.75H9.75V10.6359L11.9522 4.7634L10.5478 4.23675L10.1678 5.25H7.90141L7.296 4.34183C8.32205 3.70136 9.46855 3.27814 10.6646 3.0983C11.8607 2.91846 13.081 2.98583 14.25 3.29625V6C14.2505 6.39767 14.4087 6.77891 14.6899 7.06011C14.9711 7.34131 15.3523 7.4995 15.75 7.5H17.6893C17.8864 7.50055 18.0816 7.462 18.2637 7.38657C18.4457 7.31114 18.611 7.20034 18.75 7.06057L18.8555 6.95505L19.0668 6.44505C19.6722 7.21431 20.1479 8.07733 20.475 9H16.949C16.5944 8.99887 16.2509 9.12385 15.98 9.35261C15.7091 9.58137 15.5283 9.899 15.47 10.2487L15.0225 12.8298C14.9683 13.1355 15.0107 13.4505 15.144 13.7309C15.2772 14.0113 15.4945 14.2432 15.7658 14.3943L17.3893 15.4922L18.4832 18.2267C17.646 19.103 16.6399 19.8006 15.5256 20.2772C14.4113 20.7539 13.212 20.9998 12 21ZM18.6109 14.5078L16.575 13.1316L16.5 13.0866L16.949 10.5H20.8645C21.2574 12.7129 20.7894 14.9922 19.5564 16.8713L18.6109 14.5078Z" fill="#4197CB" stroke="white" stroke-width="0.3"/>
</svg>
