<svg width="24" height="24" viewBox="0 0 25 24" fill="none" xmlns="http://www.w3.org/2000/svg">
<path d="M6.40002 6L8.40002 4M8.40002 4L6.40002 2M8.40002 4H6.40002C4.19089 4 2.40002 5.79086 2.40002 8M18.4 18L16.4 20M16.4 20L18.4 22M16.4 20H18.4C20.6092 20 22.4 18.2091 22.4 16M13.8172 13.4172C14.5995 13.7908 15.4753 14 16.4 14C19.7137 14 22.4 11.3137 22.4 8C22.4 4.68629 19.7137 2 16.4 2C13.0863 2 10.4 4.68629 10.4 8C10.4 8.92472 10.6092 9.80057 10.9829 10.5828M14.4 16C14.4 19.3137 11.7137 22 8.40002 22C5.08632 22 2.40002 19.3137 2.40002 16C2.40002 12.6863 5.08632 10 8.40002 10C11.7137 10 14.4 12.6863 14.4 16Z" stroke="#9E9FA7" stroke-width="2" stroke-linecap="round" stroke-linejoin="round"/>
</svg>
