<svg width="25" height="25" viewBox="0 0 25 25" fill="none" xmlns="http://www.w3.org/2000/svg">
<g clip-path="url(#clip0_20_189)">
<path d="M13.2497 8.74773V11.6644H9.15384L8.66634 12.1519V8.74773H13.2497ZM13.6663 7.9144H8.24967C8.02051 7.9144 7.83301 8.1019 7.83301 8.33106V14.1644L9.49967 12.4977H13.6663C13.8955 12.4977 14.083 12.3102 14.083 12.0811V8.33106C14.083 8.1019 13.8955 7.9144 13.6663 7.9144ZM15.7497 9.58106H14.9163V13.3311H9.49967V14.1644C9.49967 14.3936 9.68717 14.5811 9.91634 14.5811H14.4997L16.1663 16.2477V9.99773C16.1663 9.76856 15.9788 9.58106 15.7497 9.58106Z" fill="black"/>
</g>
<path fill-rule="evenodd" clip-rule="evenodd" d="M12.1667 4.08105C7.74838 4.08105 4.16666 7.66278 4.16666 12.0811C4.16666 16.4993 7.74838 20.0811 12.1667 20.0811C16.5849 20.0811 20.1667 16.4993 20.1667 12.0811C20.1667 7.66278 16.5849 4.08105 12.1667 4.08105ZM3.16666 12.0811C3.16666 7.11049 7.19609 3.08105 12.1667 3.08105C17.1372 3.08105 21.1667 7.11049 21.1667 12.0811C21.1667 17.0516 17.1372 21.0811 12.1667 21.0811C7.19609 21.0811 3.16666 17.0516 3.16666 12.0811Z" fill="black"/>
<defs>
<clipPath id="clip0_20_189">
<rect width="10" height="10" fill="white" transform="translate(6.99966 7.08105)"/>
</clipPath>
</defs>
</svg>
