<svg width="14" height="16" viewBox="0 0 14 16" fill="none" xmlns="http://www.w3.org/2000/svg">
<path d="M12.3346 6.99992V4.53325C12.3346 3.41315 12.3346 2.85309 12.1166 2.42527C11.9249 2.04895 11.6189 1.74299 11.2426 1.55124C10.8148 1.33325 10.2547 1.33325 9.13464 1.33325H4.86797C3.74786 1.33325 3.18781 1.33325 2.75999 1.55124C2.38366 1.74299 2.0777 2.04895 1.88596 2.42527C1.66797 2.85309 1.66797 3.41315 1.66797 4.53325V11.4666C1.66797 12.5867 1.66797 13.1467 1.88596 13.5746C2.0777 13.9509 2.38366 14.2569 2.75999 14.4486C3.18781 14.6666 3.74786 14.6666 4.86797 14.6666H7.0013M8.33464 7.33325H4.33464M5.66797 9.99992H4.33464M9.66797 4.66659H4.33464M11.0013 13.9999V9.99992M9.0013 11.9999H13.0013" stroke="#00529B" stroke-width="1.5" stroke-linecap="round" stroke-linejoin="round"/>
</svg>
