<svg width="16" height="16" viewBox="0 0 16 16" fill="none" xmlns="http://www.w3.org/2000/svg">
<path d="M2.25661 3.77791C1.75238 3.21437 1.50027 2.93259 1.49076 2.69312C1.4825 2.48509 1.5719 2.28515 1.73244 2.15259C1.91724 2 2.29534 2 3.05154 2H12.9468C13.703 2 14.0811 2 14.2659 2.15259C14.4265 2.28515 14.5159 2.48509 14.5076 2.69312C14.4981 2.93259 14.246 3.21437 13.7417 3.77791L9.93759 8.02962C9.83708 8.14196 9.78682 8.19813 9.75099 8.26205C9.7192 8.31875 9.69588 8.37978 9.68176 8.44323C9.66585 8.51476 9.66584 8.59013 9.66584 8.74087V12.3056C9.66584 12.436 9.66585 12.5011 9.64482 12.5575C9.62624 12.6073 9.59602 12.6519 9.55668 12.6877C9.51216 12.7281 9.45164 12.7523 9.33059 12.8008L7.06392 13.7074C6.81889 13.8054 6.69638 13.8545 6.59803 13.834C6.51202 13.8161 6.43655 13.765 6.38801 13.6918C6.33251 13.6081 6.33251 13.4762 6.33251 13.2122V8.74087C6.33251 8.59013 6.33251 8.51476 6.31659 8.44323C6.30247 8.37978 6.27915 8.31875 6.24737 8.26205C6.21154 8.19813 6.16128 8.14196 6.06077 8.02962L2.25661 3.77791Z" fill="#00529B" stroke="#00529B" stroke-width="1.5" stroke-linecap="round" stroke-linejoin="round"/>
</svg>
