<svg width="16" height="16" viewBox="0 0 16 16" fill="none" xmlns="http://www.w3.org/2000/svg">
<path d="M5.39989 14.1473C4.47331 12.825 3.92822 11.2162 3.92822 9.47914C3.92822 7.22955 5.75084 5.40625 7.99907 5.40625C10.2473 5.40625 12.0699 7.22955 12.0699 9.47914" stroke="#00529B" stroke-width="1.5" stroke-linecap="round" stroke-linejoin="round"/>
<path d="M5.39989 14.1473C4.47331 12.825 3.92822 11.2162 3.92822 9.47914C3.92822 7.22955 5.75084 5.40625 7.99907 5.40625C10.2473 5.40625 12.0699 7.22955 12.0699 9.47914" stroke="#00529B" stroke-width="1.5" stroke-linecap="round" stroke-linejoin="round"/>
<path d="M12.2906 13.541C12.2173 13.5451 12.1453 13.5519 12.0713 13.5519C9.8231 13.5519 8.00049 11.7286 8.00049 9.479" stroke="#00529B" stroke-width="1.5" stroke-linecap="round" stroke-linejoin="round"/>
<path d="M12.2906 13.541C12.2173 13.5451 12.1453 13.5519 12.0713 13.5519C9.8231 13.5519 8.00049 11.7286 8.00049 9.479" stroke="#00529B" stroke-width="1.5" stroke-linecap="round" stroke-linejoin="round"/>
<path d="M8.84627 14.6665C7.11665 13.5878 5.9647 11.6681 5.9647 9.47896C5.9647 8.35416 6.87635 7.44252 8.00047 7.44252C9.12458 7.44252 10.0362 8.35416 10.0362 9.47896C10.0362 10.6038 10.9479 11.5154 12.072 11.5154C13.1961 11.5154 14.1078 10.6038 14.1078 9.47896C14.1078 6.10457 11.3735 3.36963 8.00115 3.36963C4.6288 3.36963 1.89453 6.10457 1.89453 9.47896C1.89453 10.2311 1.9787 10.9635 2.13347 11.6695" stroke="#00529B" stroke-width="1.5" stroke-linecap="round" stroke-linejoin="round"/>
<path d="M8.84627 14.6665C7.11665 13.5878 5.9647 11.6681 5.9647 9.47896C5.9647 8.35416 6.87635 7.44252 8.00047 7.44252C9.12458 7.44252 10.0362 8.35416 10.0362 9.47896C10.0362 10.6038 10.9479 11.5154 12.072 11.5154C13.1961 11.5154 14.1078 10.6038 14.1078 9.47896C14.1078 6.10457 11.3735 3.36963 8.00115 3.36963C4.6288 3.36963 1.89453 6.10457 1.89453 9.47896C1.89453 10.2311 1.9787 10.9635 2.13347 11.6695" stroke="#00529B" stroke-width="1.5" stroke-linecap="round" stroke-linejoin="round"/>
<path d="M13.6838 3.90892C12.2957 2.33203 10.266 1.3335 8.00012 1.3335C5.73424 1.3335 3.70458 2.33203 2.31641 3.90892" stroke="#00529B" stroke-width="1.5" stroke-linecap="round" stroke-linejoin="round"/>
<path d="M13.6838 3.90892C12.2957 2.33203 10.266 1.3335 8.00012 1.3335C5.73424 1.3335 3.70458 2.33203 2.31641 3.90892" stroke="#00529B" stroke-width="1.5" stroke-linecap="round" stroke-linejoin="round"/>
</svg>
