<svg width="25" height="24" viewBox="0 0 25 24" fill="none" xmlns="http://www.w3.org/2000/svg">
<mask id="mask0_14_24364" style="mask-type:alpha" maskUnits="userSpaceOnUse" x="0" y="0" width="25" height="24">
<rect x="0.976562" width="24" height="24" fill="#D9D9D9"/>
</mask>
<g mask="url(#mask0_14_24364)">
<path d="M6.2072 19.9999C5.76296 19.9999 5.38267 19.8418 5.06632 19.5254C4.74997 19.2091 4.5918 18.8288 4.5918 18.3846V5.61531C4.5918 5.17108 4.74997 4.7908 5.06632 4.47446C5.38267 4.15811 5.76296 3.99994 6.2072 3.99994H14.5918V4.99994H6.2072C6.02771 4.99994 5.88028 5.05763 5.7649 5.17301C5.6495 5.28839 5.5918 5.43583 5.5918 5.61531V18.3846C5.5918 18.564 5.6495 18.7115 5.7649 18.8269C5.88028 18.9422 6.02771 18.9999 6.2072 18.9999H18.9764C19.1559 18.9999 19.3033 18.9422 19.4187 18.8269C19.5341 18.7115 19.5918 18.564 19.5918 18.3846V9.99994H20.5918V18.3846C20.5918 18.8288 20.4336 19.2091 20.1173 19.5254C19.8009 19.8418 19.4207 19.9999 18.9764 19.9999H6.2072ZM18.361 8.23071V6.23071H16.361V5.23071H18.361V3.23071H19.361V5.23071H21.361V6.23071H19.361V8.23071H18.361ZM8.0918 16.4999H17.2457L14.4187 12.7307L11.8033 16.0384L10.0533 13.923L8.0918 16.4999Z" fill="#0D2B88"/>
</g>
</svg>
