<svg width="16" height="17" viewBox="0 0 16 17" fill="none" xmlns="http://www.w3.org/2000/svg">
<path d="M1.33301 5.16699L6.77629 8.97729C7.21707 9.28583 7.43746 9.44011 7.67718 9.49986C7.88894 9.55265 8.11041 9.55265 8.32217 9.49986C8.56189 9.44011 8.78228 9.28583 9.22306 8.97729L14.6663 5.16699M4.53301 13.8337H11.4663C12.5864 13.8337 13.1465 13.8337 13.5743 13.6157C13.9506 13.4239 14.2566 13.118 14.4484 12.7416C14.6663 12.3138 14.6663 11.7538 14.6663 10.6337V6.36699C14.6663 5.24689 14.6663 4.68683 14.4484 4.25901C14.2566 3.88269 13.9506 3.57673 13.5743 3.38498C13.1465 3.16699 12.5864 3.16699 11.4663 3.16699H4.53301C3.4129 3.16699 2.85285 3.16699 2.42503 3.38498C2.0487 3.57673 1.74274 3.88269 1.55099 4.25901C1.33301 4.68683 1.33301 5.24689 1.33301 6.36699V10.6337C1.33301 11.7538 1.33301 12.3138 1.55099 12.7416C1.74274 13.118 2.0487 13.4239 2.42503 13.6157C2.85285 13.8337 3.4129 13.8337 4.53301 13.8337Z" stroke="white" stroke-width="1.5" stroke-linecap="round" stroke-linejoin="round"/>
</svg>
