<svg width="28" height="28" viewBox="0 0 28 28" fill="none" xmlns="http://www.w3.org/2000/svg">
<mask id="mask0_14_28295" style="mask-type:alpha" maskUnits="userSpaceOnUse" x="0" y="0" width="28" height="28">
<rect width="28" height="28" fill="#D9D9D9"/>
</mask>
<g mask="url(#mask0_14_28295)">
<path d="M5.5 21C4.39543 21 3.5 20.1046 3.5 19V9C3.5 7.89543 4.39543 7 5.5 7H22.5C23.6046 7 24.5 7.89543 24.5 9V19C24.5 20.1046 23.6046 21 22.5 21H5.5ZM4.66667 18.8333C4.66667 19.3856 5.11438 19.8333 5.66667 19.8333H22.3333C22.8856 19.8333 23.3333 19.3856 23.3333 18.8333V9.16667C23.3333 8.61438 22.8856 8.16667 22.3333 8.16667H5.66667C5.11438 8.16667 4.66667 8.61438 4.66667 9.16667V18.8333Z" fill="#4197CB"/>
<circle cx="15.7497" cy="13.9999" r="2.91667" fill="#6E80B8"/>
<ellipse cx="12.2497" cy="13.9999" rx="2.91667" ry="2.91667" fill="#4197CB"/>
</g>
</svg>
