<svg width="23" height="23" viewBox="0 0 23 23" fill="none" xmlns="http://www.w3.org/2000/svg">
<path fill-rule="evenodd" clip-rule="evenodd" d="M11.8332 2.98121C7.35973 2.98121 3.73324 6.6077 3.73324 11.0812C3.73324 15.5547 7.35973 19.1812 11.8332 19.1812C16.3067 19.1812 19.9332 15.5547 19.9332 11.0812C19.9332 6.6077 16.3067 2.98121 11.8332 2.98121ZM2.83324 11.0812C2.83324 6.11064 6.86267 2.08121 11.8332 2.08121C16.8038 2.08121 20.8332 6.11064 20.8332 11.0812C20.8332 16.0518 16.8038 20.0812 11.8332 20.0812C6.86267 20.0812 2.83324 16.0518 2.83324 11.0812Z" fill="black"/>
<circle cx="9.00011" cy="11.0811" r="1" fill="black"/>
<circle cx="12.0001" cy="11.0811" r="1" fill="black"/>
<circle cx="15.0001" cy="11.0811" r="1" fill="black"/>
</svg>
