<svg width="24" height="25" viewBox="0 0 24 25" fill="none" xmlns="http://www.w3.org/2000/svg">
<path d="M9.88068 19.2728C10.4455 19.7713 11.1874 20.0738 12 20.0738C12.8126 20.0738 13.5545 19.7713 14.1193 19.2728M16.806 8.85973C16.806 7.5851 16.2997 6.36267 15.3984 5.46136C14.4971 4.56006 13.2746 4.05371 12 4.05371C10.7254 4.05371 9.50293 4.56006 8.60163 5.46136C7.70032 6.36267 7.19398 7.5851 7.19398 8.85973C7.19398 11.335 6.56957 13.0297 5.87205 14.1507C5.28368 15.0963 4.9895 15.569 5.00029 15.7009C5.01223 15.847 5.04317 15.9026 5.16085 15.9899C5.26713 16.0688 5.74623 16.0688 6.70445 16.0688H17.2956C18.2538 16.0688 18.7329 16.0688 18.8392 15.9899C18.9568 15.9026 18.9878 15.847 18.9997 15.7009C19.0105 15.569 18.7163 15.0963 18.1279 14.1507C17.4304 13.0297 16.806 11.335 16.806 8.85973Z" stroke="#00529B" stroke-width="1.5" stroke-linecap="round" stroke-linejoin="round"/>
</svg>
