<svg width="98" height="98" viewBox="0 0 98 98" fill="none" xmlns="http://www.w3.org/2000/svg">
<path d="M48.9998 97.0654C75.5291 97.0654 97.0352 75.5458 97.0352 49.0001C97.0352 22.4544 75.5291 0.934814 48.9998 0.934814C22.4706 0.934814 0.964355 22.4544 0.964355 49.0001C0.964355 75.5458 22.4706 97.0654 48.9998 97.0654Z" fill="#D8DDEC"/>
<mask id="mask0_14_27120" style="mask-type:alpha" maskUnits="userSpaceOnUse" x="26" y="25" width="47" height="47">
<rect x="26.0024" y="25.2014" width="46" height="46" fill="#D9D9D9"/>
</mask>
<g mask="url(#mask0_14_27120)">
<path d="M38.6821 65.4514C37.8245 65.4514 37.0941 65.1498 36.4908 64.5466C35.8876 63.9433 35.5859 63.2129 35.5859 62.3553V45.5476C35.5859 44.69 35.8876 43.9595 36.4908 43.3563C37.0941 42.753 37.8245 42.4514 38.6821 42.4514H41.3359V38.6181C41.3359 36.4827 42.0799 34.6711 43.5678 33.1832C45.0556 31.6954 46.8672 30.9514 49.0026 30.9514C51.138 30.9514 52.9496 31.6954 54.4375 33.1832C55.9253 34.6711 56.6693 36.4827 56.6693 38.6181V42.4514H59.3231C60.1807 42.4514 60.9111 42.753 61.5144 43.3563C62.1177 43.9595 62.4193 44.69 62.4193 45.5476V62.3553C62.4193 63.2129 62.1177 63.9433 61.5144 64.5466C60.9111 65.1498 60.1807 65.4514 59.3231 65.4514H38.6821ZM38.6821 63.5347H59.3231C59.6671 63.5347 59.9497 63.4242 60.1709 63.203C60.392 62.9819 60.5026 62.6993 60.5026 62.3553V45.5476C60.5026 45.2035 60.392 44.921 60.1709 44.6998C59.9497 44.4787 59.6671 44.3681 59.3231 44.3681H38.6821C38.3381 44.3681 38.0555 44.4787 37.8343 44.6998C37.6132 44.921 37.5026 45.2035 37.5026 45.5476V62.3553C37.5026 62.6993 37.6132 62.9819 37.8343 63.203C38.0555 63.4242 38.3381 63.5347 38.6821 63.5347ZM49.0026 56.8264C49.8111 56.8264 50.4923 56.5494 51.0464 55.9953C51.6006 55.4411 51.8776 54.7599 51.8776 53.9514C51.8776 53.143 51.6006 52.4617 51.0464 51.9076C50.4923 51.3535 49.8111 51.0764 49.0026 51.0764C48.1942 51.0764 47.5129 51.3535 46.9588 51.9076C46.4047 52.4617 46.1276 53.143 46.1276 53.9514C46.1276 54.7599 46.4047 55.4411 46.9588 55.9953C47.5129 56.5494 48.1942 56.8264 49.0026 56.8264ZM43.2526 42.4514H54.7526V38.6181C54.7526 37.0209 54.1936 35.6632 53.0755 34.5452C51.9575 33.4271 50.5998 32.8681 49.0026 32.8681C47.4054 32.8681 46.0477 33.4271 44.9297 34.5452C43.8116 35.6632 43.2526 37.0209 43.2526 38.6181V42.4514Z" fill="#4197CB"/>
</g>
</svg>
