<svg width="18" height="17" viewBox="0 0 18 17" fill="none" xmlns="http://www.w3.org/2000/svg">
<path d="M5.63041 9.38463H6.39964V7.38463H7.63041C7.84965 7.38463 8.03266 7.31123 8.17946 7.16443C8.32625 7.01763 8.39964 6.83461 8.39964 6.61538V5.38463C8.39964 5.16539 8.32625 4.98237 8.17946 4.83557C8.03266 4.68877 7.84965 4.61538 7.63041 4.61538H5.63041V9.38463ZM6.39964 6.61538V5.38463H7.63041V6.61538H6.39964ZM9.43811 9.38463H11.3612C11.5804 9.38463 11.7634 9.31122 11.9102 9.16442C12.057 9.01762 12.1304 8.83461 12.1304 8.61537V5.38463C12.1304 5.16539 12.057 4.98237 11.9102 4.83557C11.7634 4.68877 11.5804 4.61538 11.3612 4.61538H9.43811V9.38463ZM10.2073 8.61537V5.38463H11.3612V8.61537H10.2073ZM13.3612 9.38463H14.1304V7.38463H15.515V6.61538H14.1304V5.38463H15.515V4.61538H13.3612V9.38463ZM5.09194 14C4.63169 14 4.2474 13.8458 3.93906 13.5375C3.63073 13.2292 3.47656 12.8449 3.47656 12.3846V1.61537C3.47656 1.15512 3.63073 0.770833 3.93906 0.4625C4.2474 0.154167 4.63169 0 5.09194 0H15.8612C16.3214 0 16.7057 0.154167 17.0141 0.4625C17.3224 0.770833 17.4766 1.15512 17.4766 1.61537V12.3846C17.4766 12.8449 17.3224 13.2292 17.0141 13.5375C16.7057 13.8458 16.3214 14 15.8612 14H5.09194ZM5.09194 13H15.8612C16.015 13 16.1561 12.9359 16.2843 12.8077C16.4125 12.6795 16.4766 12.5385 16.4766 12.3846V1.61537C16.4766 1.46154 16.4125 1.32052 16.2843 1.1923C16.1561 1.0641 16.015 1 15.8612 1H5.09194C4.9381 1 4.79708 1.0641 4.66886 1.1923C4.54066 1.32052 4.47656 1.46154 4.47656 1.61537V12.3846C4.47656 12.5385 4.54066 12.6795 4.66886 12.8077C4.79708 12.9359 4.9381 13 5.09194 13ZM2.09194 17C1.63169 17 1.2474 16.8458 0.939063 16.5375C0.630729 16.2292 0.476562 15.8449 0.476562 15.3846V3.61537H1.47656V15.3846C1.47656 15.5385 1.54066 15.6795 1.66886 15.8077C1.79706 15.9359 1.93809 16 2.09194 16H13.8612V17H2.09194Z" fill="#0D2B88"/>
</svg>
