<svg width="79" height="28" viewBox="0 0 79 28" fill="none" xmlns="http://www.w3.org/2000/svg">
<rect x="0.503906" y="0.689209" width="77.9126" height="26.4563" rx="13.2282" fill="#F3AB40"/>
<rect x="0.969926" y="1.15523" width="76.9806" height="25.5243" rx="12.7621" stroke="#00539D" stroke-opacity="0.2" stroke-width="0.932039"/>
<path d="M10.3203 15.5659V14.0972H13.3984C14.1589 14.0972 14.7474 13.9019 15.1641 13.5112C15.5859 13.1154 15.7969 12.5685 15.7969 11.8706V11.855C15.7969 11.1466 15.5859 10.5972 15.1641 10.2065C14.7474 9.81592 14.1589 9.62061 13.3984 9.62061H10.3203V8.14404H13.8359C14.5755 8.14404 15.224 8.30029 15.7812 8.61279C16.3438 8.92008 16.7839 9.35238 17.1016 9.90967C17.4193 10.4618 17.5781 11.105 17.5781 11.8394V11.855C17.5781 12.5894 17.4193 13.2378 17.1016 13.8003C16.7839 14.3576 16.3438 14.7925 15.7812 15.105C15.224 15.4123 14.5755 15.5659 13.8359 15.5659H10.3203ZM9.44531 19.4175V8.14404H11.1953V19.4175H9.44531ZM22.9688 19.5815C22.1406 19.5815 21.4297 19.4045 20.8359 19.0503C20.2422 18.6909 19.7839 18.1831 19.4609 17.5269C19.1432 16.8706 18.9844 16.0946 18.9844 15.1987V15.1909C18.9844 14.3055 19.1432 13.5321 19.4609 12.8706C19.7839 12.2091 20.237 11.6935 20.8203 11.3237C21.4089 10.9539 22.0964 10.769 22.8828 10.769C23.6745 10.769 24.3542 10.9461 24.9219 11.3003C25.4948 11.6545 25.9349 12.1519 26.2422 12.7925C26.5495 13.4279 26.7031 14.1727 26.7031 15.0269V15.6206H19.8438V14.4097H25.8594L25.0469 15.5347V14.855C25.0469 14.2508 24.9531 13.7508 24.7656 13.355C24.5833 12.9539 24.3307 12.6545 24.0078 12.4565C23.6849 12.2586 23.3125 12.1597 22.8906 12.1597C22.4688 12.1597 22.0911 12.2638 21.7578 12.4722C21.4297 12.6753 21.1693 12.9774 20.9766 13.3784C20.7891 13.7795 20.6953 14.2716 20.6953 14.855V15.5347C20.6953 16.092 20.7891 16.5685 20.9766 16.9644C21.1641 17.3602 21.4297 17.6623 21.7734 17.8706C22.1224 18.0789 22.5339 18.1831 23.0078 18.1831C23.3724 18.1831 23.6849 18.1336 23.9453 18.0347C24.2109 17.9305 24.4271 17.8029 24.5938 17.6519C24.7656 17.5008 24.8828 17.3524 24.9453 17.2065L24.9766 17.144H26.6172L26.6016 17.2144C26.5286 17.4956 26.401 17.7769 26.2188 18.0581C26.0365 18.3341 25.7943 18.5868 25.4922 18.8159C25.1953 19.0451 24.8359 19.23 24.4141 19.3706C23.9974 19.5112 23.5156 19.5815 22.9688 19.5815ZM28.7188 19.4175V10.9331H30.4141V12.2144H30.5469C30.7552 11.7612 31.0625 11.4071 31.4688 11.1519C31.875 10.8966 32.388 10.769 33.0078 10.769C33.9609 10.769 34.6901 11.0425 35.1953 11.5894C35.7005 12.1362 35.9531 12.9149 35.9531 13.9253V19.4175H34.25V14.3237C34.25 13.6154 34.1016 13.0894 33.8047 12.7456C33.513 12.3966 33.0547 12.2222 32.4297 12.2222C32.0182 12.2222 31.6615 12.3133 31.3594 12.4956C31.0573 12.6727 30.8229 12.9279 30.6562 13.2612C30.4948 13.5894 30.4141 13.9826 30.4141 14.4409V19.4175H28.7188ZM41.4062 19.5581C40.6979 19.5581 40.0781 19.381 39.5469 19.0269C39.0208 18.6675 38.612 18.1597 38.3203 17.5034C38.0339 16.8472 37.8906 16.0737 37.8906 15.1831V15.1675C37.8906 14.2716 38.0339 13.4956 38.3203 12.8394C38.6068 12.1831 39.013 11.6779 39.5391 11.3237C40.0651 10.9644 40.6875 10.7847 41.4062 10.7847C41.7969 10.7847 42.1615 10.8472 42.5 10.9722C42.8385 11.092 43.138 11.2638 43.3984 11.4878C43.6589 11.7065 43.8646 11.9696 44.0156 12.2769H44.1406V7.60498H45.8438V19.4175H44.1406V18.0815H44.0156C43.849 18.3888 43.638 18.6545 43.3828 18.8784C43.1276 19.0972 42.8333 19.2664 42.5 19.3862C42.1667 19.5008 41.8021 19.5581 41.4062 19.5581ZM41.8906 18.105C42.3594 18.105 42.7656 17.9878 43.1094 17.7534C43.4531 17.519 43.7161 17.1831 43.8984 16.7456C44.0807 16.3029 44.1719 15.7821 44.1719 15.1831V15.1675C44.1719 14.5633 44.0781 14.0425 43.8906 13.605C43.7083 13.1675 43.4453 12.8315 43.1016 12.5972C42.763 12.3576 42.3594 12.2378 41.8906 12.2378C41.4219 12.2378 41.0156 12.3576 40.6719 12.5972C40.3333 12.8315 40.0729 13.1675 39.8906 13.605C39.7135 14.0373 39.625 14.5581 39.625 15.1675V15.1831C39.625 15.7873 39.7135 16.3081 39.8906 16.7456C40.0729 17.1831 40.3333 17.519 40.6719 17.7534C41.0156 17.9878 41.4219 18.105 41.8906 18.105ZM48.3828 19.4175V10.9331H50.0859V19.4175H48.3828ZM49.2422 9.41748C48.9505 9.41748 48.7005 9.31331 48.4922 9.10498C48.2839 8.89665 48.1797 8.64665 48.1797 8.35498C48.1797 8.06331 48.2839 7.81592 48.4922 7.61279C48.7005 7.40446 48.9505 7.30029 49.2422 7.30029C49.5339 7.30029 49.7839 7.40446 49.9922 7.61279C50.2005 7.81592 50.3047 8.06331 50.3047 8.35498C50.3047 8.64665 50.2005 8.89665 49.9922 9.10498C49.7839 9.31331 49.5339 9.41748 49.2422 9.41748ZM52.5469 19.4175V10.9331H54.2422V12.2144H54.375C54.5833 11.7612 54.8906 11.4071 55.2969 11.1519C55.7031 10.8966 56.2161 10.769 56.8359 10.769C57.7891 10.769 58.5182 11.0425 59.0234 11.5894C59.5286 12.1362 59.7812 12.9149 59.7812 13.9253V19.4175H58.0781V14.3237C58.0781 13.6154 57.9297 13.0894 57.6328 12.7456C57.3411 12.3966 56.8828 12.2222 56.2578 12.2222C55.8464 12.2222 55.4896 12.3133 55.1875 12.4956C54.8854 12.6727 54.651 12.9279 54.4844 13.2612C54.3229 13.5894 54.2422 13.9826 54.2422 14.4409V19.4175H52.5469ZM65.7266 22.4097C65.0078 22.4097 64.3828 22.3107 63.8516 22.1128C63.3255 21.9149 62.9089 21.6388 62.6016 21.2847C62.2943 20.9305 62.1068 20.519 62.0391 20.0503L62.0469 20.0347H63.7656L63.7734 20.0503C63.8464 20.342 64.0521 20.5815 64.3906 20.769C64.7292 20.9565 65.1823 21.0503 65.75 21.0503C66.4479 21.0503 66.9922 20.8914 67.3828 20.5737C67.7786 20.256 67.9766 19.8107 67.9766 19.2378V17.5737H67.8438C67.6771 17.8758 67.4635 18.1362 67.2031 18.355C66.9427 18.5685 66.6458 18.73 66.3125 18.8394C65.9792 18.9487 65.6172 19.0034 65.2266 19.0034C64.5078 19.0034 63.8828 18.8315 63.3516 18.4878C62.8255 18.1388 62.4193 17.6597 62.1328 17.0503C61.8516 16.4357 61.7109 15.73 61.7109 14.9331V14.9175C61.7109 14.1102 61.8542 13.3966 62.1406 12.7769C62.4271 12.1519 62.8359 11.6649 63.3672 11.3159C63.8984 10.9618 64.5312 10.7847 65.2656 10.7847C65.6615 10.7847 66.0234 10.8472 66.3516 10.9722C66.6849 11.0972 66.9792 11.2743 67.2344 11.5034C67.4896 11.7326 67.7005 12.006 67.8672 12.3237H67.9688V10.9331H69.6641V19.2456C69.6641 19.8862 69.5026 20.4435 69.1797 20.9175C68.862 21.3914 68.4089 21.7586 67.8203 22.019C67.2318 22.2795 66.5339 22.4097 65.7266 22.4097ZM65.7031 17.5972C66.1823 17.5972 66.5938 17.4852 66.9375 17.2612C67.2812 17.0321 67.5443 16.717 67.7266 16.3159C67.9141 15.9149 68.0078 15.4513 68.0078 14.9253V14.9097C68.0078 14.3888 67.9141 13.9253 67.7266 13.519C67.5443 13.1128 67.2812 12.7951 66.9375 12.5659C66.5938 12.3368 66.1823 12.2222 65.7031 12.2222C65.224 12.2222 64.8151 12.3368 64.4766 12.5659C64.1432 12.7951 63.888 13.1128 63.7109 13.519C63.5339 13.9201 63.4453 14.3836 63.4453 14.9097V14.9253C63.4453 15.4513 63.5339 15.9149 63.7109 16.3159C63.888 16.717 64.1432 17.0321 64.4766 17.2612C64.8151 17.4852 65.224 17.5972 65.7031 17.5972Z" fill="white"/>
</svg>
