<svg width="23" height="23" viewBox="0 0 23 23" fill="none" xmlns="http://www.w3.org/2000/svg">
<path fill-rule="evenodd" clip-rule="evenodd" d="M11.8332 2.98121C7.35973 2.98121 3.73324 6.6077 3.73324 11.0812C3.73324 15.5547 7.35973 19.1812 11.8332 19.1812C16.3067 19.1812 19.9332 15.5547 19.9332 11.0812C19.9332 6.6077 16.3067 2.98121 11.8332 2.98121ZM2.83324 11.0812C2.83324 6.11064 6.86267 2.08121 11.8332 2.08121C16.8038 2.08121 20.8332 6.11064 20.8332 11.0812C20.8332 16.0518 16.8038 20.0812 11.8332 20.0812C6.86267 20.0812 2.83324 16.0518 2.83324 11.0812Z" fill="black"/>
<path d="M9.72343 9.20844C9.48381 9.34972 9.20088 9.39877 8.92769 9.34637C8.65449 9.29398 8.40978 9.14374 8.23943 8.92383C8.06908 8.70392 7.98478 8.42943 8.00234 8.15181C8.0199 7.87419 8.13811 7.6125 8.33481 7.4158C8.53151 7.2191 8.79319 7.10089 9.07081 7.08333C9.34843 7.06578 9.62293 7.15007 9.84284 7.32043C10.0628 7.49078 10.213 7.73548 10.2654 8.00868C10.3178 8.28188 10.2687 8.5648 10.1274 8.80443L11.4195 10.0959C11.5953 9.99215 11.7959 9.93767 12.0001 9.93817C12.2115 9.93817 12.4104 9.99588 12.5806 10.0965L13.8721 8.80443C13.7308 8.5648 13.6818 8.28188 13.7342 8.00868C13.7866 7.73548 13.9368 7.49078 14.1567 7.32043C14.3766 7.15007 14.6511 7.06578 14.9287 7.08333C15.2064 7.10089 15.468 7.2191 15.6647 7.4158C15.8614 7.6125 15.9797 7.87419 15.9972 8.15181C16.0148 8.42943 15.9305 8.70392 15.7601 8.92383C15.5898 9.14374 15.3451 9.29398 15.0719 9.34637C14.7987 9.39877 14.5157 9.34972 14.2761 9.20844L12.9847 10.5005C13.0888 10.6762 13.1438 10.8768 13.1438 11.0811C13.1438 11.2854 13.0888 11.4859 12.9847 11.6616L14.2767 12.9531C14.5163 12.8118 14.7992 12.7628 15.0724 12.8152C15.3456 12.8676 15.5903 13.0178 15.7607 13.2377C15.931 13.4576 16.0153 13.7321 15.9978 14.0097C15.9802 14.2874 15.862 14.549 15.6653 14.7457C15.4686 14.9424 15.2069 15.0606 14.9293 15.0782C14.6517 15.0958 14.3772 15.0115 14.1573 14.8411C13.9374 14.6708 13.7871 14.4261 13.7347 14.1529C13.6823 13.8797 13.7314 13.5967 13.8727 13.3571L12.5806 12.0657C12.4048 12.1696 12.2043 12.2243 12.0001 12.2239C11.7958 12.2243 11.5953 12.1696 11.4195 12.0657L10.128 13.3577C10.2693 13.5973 10.3183 13.8802 10.266 14.1534C10.2136 14.4266 10.0633 14.6713 9.84341 14.8417C9.6235 15.012 9.349 15.0963 9.07138 15.0788C8.79376 15.0612 8.53208 14.943 8.33538 14.7463C8.13868 14.5496 8.02047 14.2879 8.00291 14.0103C7.98535 13.7327 8.06965 13.4582 8.24 13.2383C8.41035 13.0184 8.65506 12.8681 8.92826 12.8157C9.20145 12.7633 9.48438 12.8124 9.724 12.9537L11.0155 11.6616C10.9115 11.4858 10.8568 11.2853 10.8572 11.0811C10.8572 10.8696 10.9149 10.6708 11.0155 10.5005L9.72343 9.20844ZM9.71429 8.22384C9.71429 8.07228 9.65408 7.92693 9.54692 7.81977C9.43975 7.7126 9.2944 7.6524 9.14285 7.6524C8.99129 7.6524 8.84594 7.7126 8.73877 7.81977C8.63161 7.92693 8.5714 8.07228 8.5714 8.22384C8.5714 8.3754 8.63161 8.52074 8.73877 8.62791C8.84594 8.73508 8.99129 8.79528 9.14285 8.79528C9.2944 8.79528 9.43975 8.73508 9.54692 8.62791C9.65408 8.52074 9.71429 8.3754 9.71429 8.22384ZM9.71429 13.9383C9.71429 13.7867 9.65408 13.6414 9.54692 13.5342C9.43975 13.427 9.2944 13.3668 9.14285 13.3668C8.99129 13.3668 8.84594 13.427 8.73877 13.5342C8.63161 13.6414 8.5714 13.7867 8.5714 13.9383C8.5714 14.0898 8.63161 14.2352 8.73877 14.3423C8.84594 14.4495 8.99129 14.5097 9.14285 14.5097C9.2944 14.5097 9.43975 14.4495 9.54692 14.3423C9.65408 14.2352 9.71429 14.0898 9.71429 13.9383ZM14.8573 8.79528C15.0088 8.79528 15.1542 8.73508 15.2613 8.62791C15.3685 8.52074 15.4287 8.3754 15.4287 8.22384C15.4287 8.07228 15.3685 7.92693 15.2613 7.81977C15.1542 7.7126 15.0088 7.6524 14.8573 7.6524C14.7057 7.6524 14.5604 7.7126 14.4532 7.81977C14.346 7.92693 14.2858 8.07228 14.2858 8.22384C14.2858 8.3754 14.346 8.52074 14.4532 8.62791C14.5604 8.73508 14.7057 8.79528 14.8573 8.79528ZM15.4287 13.9383C15.4287 13.7867 15.3685 13.6414 15.2613 13.5342C15.1542 13.427 15.0088 13.3668 14.8573 13.3668C14.7057 13.3668 14.5604 13.427 14.4532 13.5342C14.346 13.6414 14.2858 13.7867 14.2858 13.9383C14.2858 14.0898 14.346 14.2352 14.4532 14.3423C14.5604 14.4495 14.7057 14.5097 14.8573 14.5097C15.0088 14.5097 15.1542 14.4495 15.2613 14.3423C15.3685 14.2352 15.4287 14.0898 15.4287 13.9383ZM12.5715 11.0811C12.5715 10.9295 12.5113 10.7842 12.4041 10.677C12.297 10.5698 12.1516 10.5096 12.0001 10.5096C11.8485 10.5096 11.7032 10.5698 11.596 10.677C11.4888 10.7842 11.4286 10.9295 11.4286 11.0811C11.4286 11.2326 11.4888 11.378 11.596 11.4851C11.7032 11.5923 11.8485 11.6525 12.0001 11.6525C12.1516 11.6525 12.297 11.5923 12.4041 11.4851C12.5113 11.378 12.5715 11.2326 12.5715 11.0811Z" fill="black"/>
<path d="M12.7467 10.9707C12.7467 11.3831 12.4124 11.7174 12.0001 11.7174C11.5877 11.7174 11.2534 11.3831 11.2534 10.9707C11.2534 10.5583 11.5877 10.224 12.0001 10.224C12.4124 10.224 12.7467 10.5583 12.7467 10.9707Z" fill="black" stroke="black" stroke-width="0.8"/>
</svg>
