<svg width="22" height="23" viewBox="0 0 22 23" fill="none" xmlns="http://www.w3.org/2000/svg">
<path d="M4.3163 19.0995C4.92462 17.6663 6.34492 16.6611 8 16.6611H14C15.6551 16.6611 17.0754 17.6663 17.6837 19.0995M15 9.16113C15 11.3703 13.2091 13.1611 11 13.1611C8.79086 13.1611 7 11.3703 7 9.16113C7 6.95199 8.79086 5.16113 11 5.16113C13.2091 5.16113 15 6.95199 15 9.16113ZM21 11.6611C21 17.184 16.5228 21.6611 11 21.6611C5.47715 21.6611 1 17.184 1 11.6611C1 6.13829 5.47715 1.66113 11 1.66113C16.5228 1.66113 21 6.13829 21 11.6611Z" stroke="#515151" stroke-width="1.5" stroke-linecap="round" stroke-linejoin="round"/>
</svg>
