<svg width="24" height="24" viewBox="0 0 24 24" fill="none" xmlns="http://www.w3.org/2000/svg">
<path fill-rule="evenodd" clip-rule="evenodd" d="M12.3935 2.1098C12.1749 1.89569 11.8251 1.89569 11.6065 2.1098L7.9698 5.6707C7.74081 5.89492 7.77246 6.20139 7.8981 6.39114C8.02299 6.57972 8.28842 6.72702 8.58191 6.61375C9.87607 6.11425 10.9431 5.87032 11.9959 5.86724C13.0483 5.86415 14.1133 6.10163 15.4033 6.60301C15.6978 6.71746 15.9637 6.56896 16.0887 6.38122C16.2145 6.19224 16.2486 5.88451 16.0182 5.65895L12.3935 2.1098ZM9.07239 5.64074L12 2.77413L14.9171 5.6305C13.8817 5.28804 12.9422 5.11445 11.9937 5.11724C11.0463 5.12002 10.1073 5.2987 9.07239 5.64074ZM12 8.34305C8.37563 8.34305 5.4375 11.2812 5.4375 14.9055C5.4375 18.5299 8.37563 21.468 12 21.468C15.6244 21.468 18.5625 18.5299 18.5625 14.9055C18.5625 11.2812 15.6244 8.34305 12 8.34305ZM4.6875 14.9055C4.6875 10.867 7.96142 7.59305 12 7.59305C16.0386 7.59305 19.3125 10.867 19.3125 14.9055C19.3125 18.9441 16.0386 22.218 12 22.218C7.96142 22.218 4.6875 18.9441 4.6875 14.9055ZM12.1637 11.1829L15.3512 11.8959C15.6939 11.9725 15.9375 12.2767 15.9375 12.6278V17.568C15.9375 17.9518 15.6477 18.2736 15.266 18.3138L12.0785 18.6494C12.0263 18.6549 11.9737 18.6549 11.9215 18.6494L8.73399 18.3138C8.35228 18.2736 8.0625 17.9518 8.0625 17.568V12.6278C8.0625 12.2767 8.30612 11.9725 8.64878 11.8959L11.8363 11.1829C11.9441 11.1588 12.0559 11.1588 12.1637 11.1829ZM15.1875 12.6278L12.375 11.9987V13.2888L15.1875 13.8809V12.6278ZM8.8125 12.6278L11.625 11.9987V13.2888L8.8125 13.8809V12.6278ZM8.8125 14.6473L11.625 14.0552V17.718C11.625 17.7711 11.636 17.8215 11.6559 17.8672L8.8125 17.568V14.6473ZM15.1875 17.568L12.3441 17.8672C12.364 17.8215 12.375 17.7711 12.375 17.718V14.0552L15.1875 14.6473V17.568Z" fill="black" stroke="black" stroke-width="0.2"/>
</svg>
