<svg width="24" height="25" viewBox="0 0 24 25" fill="none" xmlns="http://www.w3.org/2000/svg">
<g clip-path="url(#clip0_11969_53473)">
<path d="M2.20312 12.9277H22.2031M2.20312 12.9277C2.20312 18.4506 6.68028 22.9277 12.2031 22.9277M2.20312 12.9277C2.20312 7.40489 6.68028 2.92773 12.2031 2.92773M22.2031 12.9277C22.2031 18.4506 17.726 22.9277 12.2031 22.9277M22.2031 12.9277C22.2031 7.40489 17.726 2.92773 12.2031 2.92773M12.2031 2.92773C14.7044 5.66609 16.1259 9.21977 16.2031 12.9277C16.1259 16.6357 14.7044 20.1894 12.2031 22.9277M12.2031 2.92773C9.70184 5.66609 8.28037 9.21977 8.20312 12.9277C8.28037 16.6357 9.70184 20.1894 12.2031 22.9277" stroke="#00529B" stroke-width="1.5" stroke-linecap="round" stroke-linejoin="round"/>
</g>
<defs>
<clipPath id="clip0_11969_53473">
<rect width="24" height="24" fill="white" transform="translate(0 0.5)"/>
</clipPath>
</defs>
</svg>
