<svg width="16" height="16" viewBox="0 0 16 16" fill="none" xmlns="http://www.w3.org/2000/svg">
<path d="M1.33325 8.00001H14.6666M1.33325 8.00001C1.33325 11.6819 4.31802 14.6667 7.99992 14.6667M1.33325 8.00001C1.33325 4.31811 4.31802 1.33334 7.99992 1.33334M14.6666 8.00001C14.6666 11.6819 11.6818 14.6667 7.99992 14.6667M14.6666 8.00001C14.6666 4.31811 11.6818 1.33334 7.99992 1.33334M7.99992 1.33334C9.66744 3.15891 10.6151 5.52803 10.6666 8.00001C10.6151 10.472 9.66744 12.8411 7.99992 14.6667M7.99992 1.33334C6.3324 3.15891 5.38475 5.52803 5.33325 8.00001C5.38475 10.472 6.3324 12.8411 7.99992 14.6667" stroke="#00529B" stroke-width="1.5" stroke-linecap="round" stroke-linejoin="round"/>
</svg>
