<svg width="25" height="25" viewBox="0 0 25 25" fill="none" xmlns="http://www.w3.org/2000/svg">
<path fill-rule="evenodd" clip-rule="evenodd" d="M12.1666 4.08105C7.74835 4.08105 4.16663 7.66278 4.16663 12.0811C4.16663 16.4993 7.74835 20.0811 12.1666 20.0811C16.5849 20.0811 20.1666 16.4993 20.1666 12.0811C20.1666 7.66278 16.5849 4.08105 12.1666 4.08105ZM3.16663 12.0811C3.16663 7.11049 7.19606 3.08105 12.1666 3.08105C17.1372 3.08105 21.1666 7.11049 21.1666 12.0811C21.1666 17.0516 17.1372 21.0811 12.1666 21.0811C7.19606 21.0811 3.16663 17.0516 3.16663 12.0811Z" fill="black"/>
<g clip-path="url(#clip0_20_212)">
<path d="M12 7.49771L8.25 9.16438V11.6644C8.25 13.9769 9.85 16.1394 12 16.6644C14.15 16.1394 15.75 13.9769 15.75 11.6644V9.16438L12 7.49771ZM12 12.0769H14.9167C14.6958 13.7935 13.55 15.3227 12 15.8019V12.081H9.08333V9.70604L12 8.41021V12.0769Z" fill="black"/>
</g>
<defs>
<clipPath id="clip0_20_212">
<rect width="10" height="10" fill="white" transform="translate(7 7.08105)"/>
</clipPath>
</defs>
</svg>
