<svg width="25" height="25" viewBox="0 0 25 25" fill="none" xmlns="http://www.w3.org/2000/svg">
<path fill-rule="evenodd" clip-rule="evenodd" d="M12.1666 4.08105C7.74835 4.08105 4.16663 7.66278 4.16663 12.0811C4.16663 16.4993 7.74835 20.0811 12.1666 20.0811C16.5849 20.0811 20.1666 16.4993 20.1666 12.0811C20.1666 7.66278 16.5849 4.08105 12.1666 4.08105ZM3.16663 12.0811C3.16663 7.11049 7.19606 3.08105 12.1666 3.08105C17.1372 3.08105 21.1666 7.11049 21.1666 12.0811C21.1666 17.0516 17.1372 21.0811 12.1666 21.0811C7.19606 21.0811 3.16663 17.0516 3.16663 12.0811Z" fill="black"/>
<mask id="mask0_20_194" style="mask-type:alpha" maskUnits="userSpaceOnUse" x="6" y="6" width="12" height="13">
<rect x="6" y="6.08105" width="12" height="12" fill="#D9D9D9"/>
</mask>
<g mask="url(#mask0_20_194)">
<path d="M11.5 13.581H12.5V12.331H13.75V11.331H12.5V10.081H11.5V11.331H10.25V12.331H11.5V13.581ZM12 16.5618C10.9955 16.2637 10.1611 15.6552 9.49664 14.7363C8.83221 13.8174 8.5 12.7823 8.5 11.631V8.92719L12 7.61951L15.5 8.92719V11.631C15.5 12.7823 15.1678 13.8174 14.5034 14.7363C13.8389 15.6552 13.0045 16.2637 12 16.5618ZM12 16.031C12.8667 15.756 13.5833 15.206 14.15 14.381C14.7167 13.556 15 12.6394 15 11.631V9.26854L12 8.15316L9 9.26854V11.631C9 12.6394 9.28333 13.556 9.85 14.381C10.4167 15.206 11.1333 15.756 12 16.031Z" fill="black"/>
</g>
</svg>
