<svg width="80" height="80" viewBox="0 0 80 80" fill="none" xmlns="http://www.w3.org/2000/svg">
<path d="M29.9997 38.3336L36.6663 45.0002L51.6663 30.0002M66.6663 40.0002C66.6663 56.3617 48.8198 68.2615 42.3263 72.0498C41.5883 72.4803 41.2194 72.6956 40.6986 72.8073C40.2945 72.8939 39.7049 72.8939 39.3007 72.8073C38.78 72.6956 38.411 72.4803 37.673 72.0498C31.1795 68.2615 13.333 56.3617 13.333 40.0002V24.0589C13.333 21.3939 13.333 20.0613 13.7689 18.9159C14.1539 17.904 14.7796 17.0011 15.5919 16.2853C16.5113 15.475 17.759 15.0071 20.2544 14.0714L38.127 7.36913C38.82 7.10926 39.1665 6.97933 39.523 6.92782C39.8391 6.88213 40.1602 6.88213 40.4764 6.92782C40.8329 6.97933 41.1793 7.10926 41.8723 7.36913L59.745 14.0714C62.2403 15.0071 63.488 15.475 64.4075 16.2853C65.2197 17.0011 65.8454 17.904 66.2305 18.9159C66.6663 20.0613 66.6663 21.3939 66.6663 24.0589V40.0002Z" stroke="#1DB954" stroke-width="4" stroke-linecap="round" stroke-linejoin="round"/>
</svg>
