<svg width="4" height="19" viewBox="0 0 4 19" fill="none" xmlns="http://www.w3.org/2000/svg">
<path d="M3 9.23077C3 8.67849 2.55228 8.23077 2 8.23077C1.44772 8.23077 1 8.67849 1 9.23077C1 9.78306 1.44772 10.2308 2 10.2308C2.55228 10.2308 3 9.78306 3 9.23077Z" stroke="#515151" stroke-width="2" stroke-linecap="round" stroke-linejoin="round"/>
<path d="M3 2.23077C3 1.67849 2.55228 1.23077 2 1.23077C1.44772 1.23077 1 1.67849 1 2.23077C1 2.78306 1.44772 3.23077 2 3.23077C2.55228 3.23077 3 2.78306 3 2.23077Z" stroke="#515151" stroke-width="2" stroke-linecap="round" stroke-linejoin="round"/>
<path d="M3 16.2308C3 15.6785 2.55228 15.2308 2 15.2308C1.44772 15.2308 1 15.6785 1 16.2308C1 16.7831 1.44772 17.2308 2 17.2308C2.55228 17.2308 3 16.7831 3 16.2308Z" stroke="#515151" stroke-width="2" stroke-linecap="round" stroke-linejoin="round"/>
</svg>
