<svg width="25" height="25" viewBox="0 0 25 25" fill="none" xmlns="http://www.w3.org/2000/svg">
<path fill-rule="evenodd" clip-rule="evenodd" d="M12.1667 4.08105C7.74838 4.08105 4.16666 7.66278 4.16666 12.0811C4.16666 16.4993 7.74838 20.0811 12.1667 20.0811C16.5849 20.0811 20.1667 16.4993 20.1667 12.0811C20.1667 7.66278 16.5849 4.08105 12.1667 4.08105ZM3.16666 12.0811C3.16666 7.11049 7.19609 3.08105 12.1667 3.08105C17.1372 3.08105 21.1667 7.11049 21.1667 12.0811C21.1667 17.0516 17.1372 21.0811 12.1667 21.0811C7.19609 21.0811 3.16666 17.0516 3.16666 12.0811Z" fill="black"/>
<mask id="mask0_20_206" style="mask-type:alpha" maskUnits="userSpaceOnUse" x="6" y="6" width="12" height="13">
<rect x="6.00003" y="6.08105" width="12" height="12" fill="#D9D9D9"/>
</mask>
<g mask="url(#mask0_20_206)">
<path d="M12.8981 16.483C12.9302 16.4958 12.959 16.5022 12.9847 16.5022C13.0103 16.5022 13.0391 16.4958 13.0712 16.483L15.9789 15.5868C15.9693 15.4349 15.9239 15.3254 15.8428 15.2584C15.7616 15.1915 15.6698 15.158 15.5674 15.158H13.195C12.9836 15.158 12.792 15.1496 12.6202 15.133C12.4484 15.1163 12.2725 15.0766 12.0924 15.0137L11.2356 14.7378C11.1672 14.7153 11.1181 14.6705 11.0882 14.6032C11.0583 14.5358 11.0545 14.4692 11.077 14.4032C11.0994 14.3371 11.1422 14.2889 11.2053 14.2584C11.2685 14.228 11.3347 14.224 11.4039 14.2464L12.1789 14.5272C12.3398 14.5817 12.5178 14.6166 12.713 14.632C12.9082 14.6474 13.1497 14.656 13.4374 14.658H13.5674C13.5674 14.5022 13.5387 14.3762 13.4813 14.2801C13.4239 14.1839 13.3417 14.1169 13.2347 14.0791L10.3577 13.0233C10.3385 13.0169 10.3209 13.0121 10.3049 13.0089C10.2888 13.0057 10.2712 13.0041 10.252 13.0041H9.20197V15.408L12.8981 16.483ZM12.7702 16.9772L9.20197 15.933C9.15453 16.1304 9.05373 16.2878 8.89957 16.4051C8.7454 16.5224 8.57697 16.581 8.39428 16.581H8.00965C7.78754 16.581 7.59739 16.502 7.43922 16.3438C7.28105 16.1856 7.20197 15.9955 7.20197 15.7734V13.3118C7.20197 13.0897 7.28105 12.8995 7.43922 12.7414C7.59739 12.5832 7.78754 12.5041 8.00965 12.5041H10.2409C10.2874 12.5041 10.3353 12.5094 10.3847 12.52C10.434 12.5306 10.4798 12.5429 10.5222 12.557L13.4116 13.6157C13.5904 13.6836 13.7444 13.8057 13.8736 13.982C14.0028 14.1583 14.0674 14.3836 14.0674 14.658H15.5674C15.8686 14.658 16.0994 14.7522 16.2597 14.9407C16.4199 15.1291 16.5 15.3682 16.5 15.658C16.5 15.758 16.473 15.8424 16.4188 15.9113C16.3646 15.9802 16.2856 16.032 16.1818 16.0666L13.2395 16.9743C13.167 16.9948 13.0904 17.0067 13.0097 17.0099C12.9289 17.0131 12.8491 17.0022 12.7702 16.9772ZM7.70197 15.7734C7.70197 15.8631 7.73081 15.9368 7.7885 15.9945C7.84619 16.0522 7.91991 16.081 8.00965 16.081H8.39428C8.48402 16.081 8.55774 16.057 8.61543 16.0089C8.67312 15.9609 8.70197 15.8823 8.70197 15.7734V13.0041H8.00965C7.91991 13.0041 7.84619 13.033 7.7885 13.0907C7.73081 13.1483 7.70197 13.2221 7.70197 13.3118V15.7734Z" fill="black"/>
<path d="M13.4292 11.0548C14.0686 11.0548 14.587 10.5364 14.587 9.897C14.587 9.25756 14.0686 8.7392 13.4292 8.7392C12.7898 8.7392 12.2714 9.25756 12.2714 9.897C12.2714 10.5364 12.7898 11.0548 13.4292 11.0548Z" stroke="black" stroke-width="0.8" stroke-linecap="round" stroke-linejoin="round"/>
</g>
</svg>
