<svg width="24" height="25" viewBox="0 0 24 25" fill="none" xmlns="http://www.w3.org/2000/svg">
<path d="M6.65304 18.0044C7.1397 16.8579 8.27594 16.0537 9.6 16.0537H14.4C15.7241 16.0537 16.8603 16.8579 17.347 18.0044M15.2 10.0537C15.2 11.821 13.7673 13.2537 12 13.2537C10.2327 13.2537 8.8 11.821 8.8 10.0537C8.8 8.2864 10.2327 6.85371 12 6.85371C13.7673 6.85371 15.2 8.2864 15.2 10.0537ZM20 12.0537C20 16.472 16.4183 20.0537 12 20.0537C7.58172 20.0537 4 16.472 4 12.0537C4 7.63543 7.58172 4.05371 12 4.05371C16.4183 4.05371 20 7.63543 20 12.0537Z" stroke="#00529B" stroke-width="1.5" stroke-linecap="round" stroke-linejoin="round"/>
</svg>
