<svg width="24" height="24" viewBox="0 0 24 24" fill="none" xmlns="http://www.w3.org/2000/svg">
<path d="M11.2501 10.5C11.2501 11.3284 10.5785 12 9.75005 12C9.47946 12 9.2256 11.9284 9.00642 11.803C9.0022 11.8681 9.00005 11.9338 9.00005 12C9.00005 13.6569 10.3432 15 12.0001 15C13.6569 15 15.0001 13.6569 15.0001 12C15.0001 10.3431 13.6569 9 12.0001 9C11.5209 9 11.0679 9.11235 10.6661 9.31213C11.0213 9.58645 11.2501 10.0165 11.2501 10.5Z" fill="#7D7D7D"/>
<path fill-rule="evenodd" clip-rule="evenodd" d="M18.0435 16.7948C19.695 15.7232 21.0083 14.4073 21.8297 13.3859C22.4977 12.5553 22.4645 11.38 21.7763 10.586C20.9059 9.58185 19.5406 8.27643 17.8883 7.21054C16.2494 6.15334 14.2007 5.25 12.0001 5.25C9.79941 5.25 7.75071 6.15334 6.11182 7.21054C4.45947 8.27643 3.09416 9.58185 2.2238 10.5859C1.53555 11.38 1.50239 12.5553 2.1704 13.3859C2.99183 14.4073 4.30511 15.7232 5.95663 16.7948C7.60501 17.8645 9.68355 18.75 12.0001 18.75C14.3166 18.75 16.3951 17.8645 18.0435 16.7948ZM3.35726 11.5684C4.94797 9.73328 8.39943 6.75 12.0001 6.75C15.6007 6.75 19.0521 9.73328 20.6428 11.5684C20.861 11.8201 20.8696 12.1863 20.6608 12.4458C19.184 14.2821 15.8676 17.25 12.0001 17.25C8.13249 17.25 4.81611 14.2821 3.33929 12.4458C3.13052 12.1863 3.13907 11.8201 3.35726 11.5684Z" fill="#7D7D7D"/>
</svg>
