<svg width="24" height="24" viewBox="0 0 24 24" fill="none" xmlns="http://www.w3.org/2000/svg">
<path fill-rule="evenodd" clip-rule="evenodd" d="M3.86527 4.3074C3.55178 4.03666 3.07817 4.07131 2.80743 4.3848C2.5367 4.69828 2.57135 5.17189 2.88484 5.44263L5.45146 7.65926C4.0958 8.62737 2.9753 9.71898 2.2238 10.586C1.53555 11.38 1.50239 12.5553 2.1704 13.3859C2.99183 14.4073 4.30511 15.7232 5.95663 16.7948C7.60501 17.8645 9.68355 18.75 12.0001 18.75C13.7838 18.75 15.4265 18.2249 16.8403 17.4951L19.3848 19.6926C19.6983 19.9634 20.1719 19.9287 20.4427 19.6152C20.7134 19.3017 20.6788 18.8281 20.3653 18.5574L18.2029 16.6899C19.7796 15.6382 21.0349 14.3742 21.8297 13.3859C22.4977 12.5553 22.4645 11.38 21.7763 10.586C20.9059 9.58186 19.5406 8.27645 17.8883 7.21055C16.2494 6.15335 14.2007 5.25001 12.0001 5.25001C10.0828 5.25001 8.28079 5.93571 6.76469 6.81145L3.86527 4.3074ZM6.62299 8.67104C5.24549 9.60721 4.09905 10.7127 3.35726 11.5684C3.13907 11.8202 3.13052 12.1863 3.33929 12.4459C4.81611 14.2822 8.13249 17.25 12.0001 17.25C13.2768 17.25 14.4935 16.9266 15.6038 16.4272L13.492 14.6033C13.0525 14.8557 12.5431 15 12.0001 15C10.3432 15 9.00005 13.6569 9.00005 12C9.00005 11.9338 9.0022 11.8681 9.00642 11.803C9.2256 11.9284 9.47946 12 9.75005 12C9.95901 12 10.158 11.9573 10.3387 11.8801L6.62299 8.67104ZM11.2398 10.6763L7.975 7.85671C9.22749 7.19943 10.6025 6.75001 12.0001 6.75001C15.6007 6.75001 19.0521 9.7333 20.6428 11.5684C20.861 11.8202 20.8696 12.1863 20.6608 12.4459C19.8887 13.406 18.6136 14.6754 17.0199 15.6682L14.5685 13.5511C14.8424 13.0985 15.0001 12.5677 15.0001 12C15.0001 10.3432 13.6569 9.00001 12.0001 9.00001C11.5209 9.00001 11.0679 9.11236 10.6661 9.31215C11.0213 9.58646 11.2501 10.0165 11.2501 10.5C11.2501 10.5597 11.2466 10.6185 11.2398 10.6763Z" fill="#7D7D7D"/>
</svg>
