<svg width="34" height="34" viewBox="0 0 34 34" fill="none" xmlns="http://www.w3.org/2000/svg">
<mask id="mask0_14_28292" style="mask-type:alpha" maskUnits="userSpaceOnUse" x="0" y="0" width="34" height="34">
<rect width="34" height="34" fill="#D9D9D9"/>
</mask>
<g mask="url(#mask0_14_28292)">
<path fill-rule="evenodd" clip-rule="evenodd" d="M13.5029 23.9464C13.9888 24.1052 14.5293 24.057 14.9872 23.8374C15.593 23.5492 16.054 23.0275 16.3951 22.4621C16.5384 22.219 16.6798 21.9745 16.8212 21.7301C16.9379 21.5283 17.0546 21.3266 17.1723 21.1258C15.023 17.402 12.8706 13.6781 10.7182 9.95581C9.84177 9.95648 8.96535 9.95629 8.08905 9.9561C7.46584 9.95596 6.8427 9.95583 6.21966 9.956C5.67467 9.95615 5.12976 9.95654 4.58496 9.95737C4.85716 10.4293 5.12945 10.9012 5.4018 11.3731C6.40997 13.1198 7.41908 14.8661 8.42822 16.6124C9.46127 18.4001 10.4944 20.1878 11.5265 21.9762C11.5643 22.0405 11.6015 22.1052 11.6387 22.1699C11.7809 22.4176 11.9234 22.6657 12.1012 22.8904C12.4594 23.3592 12.9298 23.7704 13.5029 23.9464ZM12.7507 21.2632C12.8078 21.3604 12.8563 21.4446 12.8992 21.5189C13.027 21.7408 13.1046 21.8755 13.2122 22.0114L13.2196 22.0208L13.2269 22.0303C13.4799 22.3614 13.7257 22.5328 13.9188 22.5921L13.931 22.5959L13.9431 22.5998C14.0596 22.6379 14.2234 22.6325 14.3745 22.56L14.3787 22.558C14.6409 22.4333 14.9186 22.1653 15.1786 21.736C15.3047 21.5221 15.4198 21.3236 15.5353 21.1238C13.6589 17.8732 11.7801 14.6226 9.90113 11.3729C9.29522 11.373 8.6904 11.3729 8.08602 11.3728C7.73634 11.3727 7.3868 11.3726 7.03728 11.3726C7.90926 12.8829 8.78154 14.3924 9.654 15.9022C10.686 17.6881 11.7183 19.4744 12.7507 21.2632ZM13.5615 11.3736C14.4415 12.8958 15.3219 14.4179 16.2022 15.94C17.3554 17.9337 18.5086 19.9275 19.6611 21.9217C19.7014 21.9908 19.7412 22.0604 19.7809 22.1301C19.9434 22.415 20.1062 22.7002 20.3152 22.9543C20.6859 23.4231 21.1749 23.8264 21.7636 23.9791C22.2791 24.1193 22.8445 24.0274 23.3039 23.761C23.8522 23.4511 24.2696 22.9558 24.5873 22.4201C25.3914 21.0274 26.196 19.6351 27.0006 18.2428C27.8056 16.8496 28.6107 15.4564 29.4154 14.0628C29.0213 13.3783 28.6269 12.6942 28.2325 12.0101C27.8381 11.326 27.4436 10.6419 27.0496 9.95737C25.5499 9.95623 24.051 9.95592 22.5517 9.95645C22.0067 9.95665 21.4616 9.95695 20.9164 9.95737C21.1889 10.4295 21.4615 10.9015 21.7342 11.3735C22.1236 12.0475 22.5132 12.7215 22.9028 13.3956C23.7137 14.7986 24.5248 16.2018 25.3348 17.606C25.1651 17.8739 24.905 18.0935 24.5919 18.1682C24.4962 18.1937 24.3979 18.2049 24.3 18.203C24.2056 18.2012 24.1114 18.1873 24.0203 18.1623C23.8014 18.1023 23.5994 17.9788 23.4503 17.8069C23.3607 17.7078 23.2943 17.5909 23.2281 17.4744C23.2069 17.437 23.1857 17.3997 23.1638 17.363C22.9016 16.9099 22.6394 16.4567 22.3773 16.0035C21.2112 13.9877 20.0447 11.9712 18.8761 9.95581C17.8544 9.95659 16.8324 9.95659 15.8101 9.95659C15.333 9.95659 14.8559 9.95659 14.3787 9.95667C13.8335 9.95676 13.2882 9.95695 12.7429 9.95737C13.0157 10.4295 13.2886 10.9015 13.5615 11.3736ZM15.1977 11.3733C15.941 12.6589 16.6846 13.9445 17.4283 15.2302L17.4298 15.2328C18.582 17.2249 19.7344 19.2172 20.886 21.21C20.946 21.3127 20.9976 21.4028 21.0435 21.483C21.1929 21.7437 21.2829 21.9007 21.4092 22.0543L21.4179 22.0649L21.4264 22.0756C21.6827 22.3997 21.9307 22.5589 22.1191 22.6077L22.1353 22.6119C22.2543 22.6443 22.4321 22.6289 22.5935 22.5354L22.6067 22.5277C22.8629 22.3829 23.1215 22.1126 23.3648 21.7041C23.7685 21.005 24.1723 20.306 24.576 19.6071C23.7432 19.6934 22.9207 19.351 22.3897 18.7461C22.2476 18.5869 22.1474 18.4305 22.0826 18.3228C22.05 18.2687 22.0203 18.2164 21.9995 18.1798L21.9982 18.1774C21.9745 18.1357 21.9608 18.1117 21.9479 18.0901L21.9426 18.0813L21.9375 18.0725C21.6755 17.6195 21.4135 17.1666 21.1514 16.7136C20.1215 14.9332 19.0915 13.1527 18.0601 11.3729C17.3103 11.3733 16.5604 11.3733 15.8107 11.3733C15.6068 11.3733 15.4016 11.3733 15.1977 11.3733ZM26.3518 16.5339C26.828 15.7099 27.304 14.8859 27.78 14.0618C27.5219 13.6138 27.2636 13.1659 27.0052 12.7177L27.0019 12.7119C26.7448 12.266 26.4875 11.8198 26.2304 11.3735C25.2768 11.373 24.3234 11.3728 23.37 11.3729C23.6228 11.8103 23.8757 12.2478 24.1286 12.6854C24.87 13.9681 25.6117 15.2514 26.3518 16.5339Z" fill="#4197CB"/>
</g>
</svg>
