<svg width="12" height="8" viewBox="0 0 12 8" fill="none" xmlns="http://www.w3.org/2000/svg">
<path d="M6.71205 6.93953L6.7128 6.93871L11.6185 1.58789C11.8052 1.38435 11.7914 1.06807 11.5879 0.881453C11.3843 0.69484 11.0681 0.708564 10.8815 0.912108L6.00249 6.23371L1.11838 0.911921L0.934187 1.08096L1.11837 0.91192C0.931658 0.708472 0.615367 0.694908 0.411918 0.881624L0.580957 1.06581L0.411917 0.881625C0.208469 1.06834 0.194904 1.38463 0.38162 1.58808L0.563963 1.42074L0.381621 1.58808L5.28835 6.93448L5.2895 6.93576L5.28957 6.93583C5.67135 7.35844 6.33256 7.34978 6.71205 6.93953Z" fill="#00529B" stroke="#00529B" stroke-width="0.5" stroke-miterlimit="1" stroke-linecap="round" stroke-linejoin="round"/>
</svg>
