<svg width="16" height="10" viewBox="0 0 16 10" fill="none" xmlns="http://www.w3.org/2000/svg">
<path d="M7.99289 9.13741C7.82425 9.13741 7.66866 9.10982 7.52614 9.05462C7.38359 8.99939 7.24407 8.90354 7.10758 8.76704L0.23574 1.8952C0.0891991 1.74866 0.0109049 1.56899 0.000857102 1.35618C-0.00919065 1.14338 0.0691036 0.95366 0.23574 0.787023C0.402376 0.620413 0.587072 0.537109 0.789827 0.537109C0.992583 0.537109 1.17728 0.620413 1.34391 0.787023L7.99289 7.436L14.6419 0.787023C14.7884 0.640483 14.9681 0.562189 15.1809 0.552141C15.3937 0.542119 15.5834 0.620413 15.75 0.787023C15.9167 0.95366 16 1.13836 16 1.34111C16 1.54389 15.9167 1.72859 15.75 1.8952L8.8782 8.76704C8.74171 8.90354 8.60219 8.99939 8.45964 9.05462C8.31712 9.10982 8.16154 9.13741 7.99289 9.13741Z" fill="#0D2B88"/>
</svg>
