<svg width="24" height="25" viewBox="0 0 24 25" fill="none" xmlns="http://www.w3.org/2000/svg">
<path d="M5 9.50002V17.5M9.5 9.50002V17.5M14.5 9.50002V17.5M19 9.50002V17.5M3 19.1L3 19.9C3 20.4601 3 20.7401 3.10899 20.954C3.20487 21.1422 3.35785 21.2952 3.54601 21.391C3.75992 21.5 4.03995 21.5 4.6 21.5H19.4C19.9601 21.5 20.2401 21.5 20.454 21.391C20.6422 21.2952 20.7951 21.1422 20.891 20.954C21 20.7401 21 20.4601 21 19.9V19.1C21 18.54 21 18.2599 20.891 18.046C20.7951 17.8579 20.6422 17.7049 20.454 17.609C20.2401 17.5 19.9601 17.5 19.4 17.5H4.6C4.03995 17.5 3.75992 17.5 3.54601 17.609C3.35785 17.7049 3.20487 17.8579 3.10899 18.046C3 18.2599 3 18.54 3 19.1ZM11.6529 3.57715L4.25291 5.2216C3.80585 5.32094 3.58232 5.37062 3.41546 5.49082C3.26829 5.59685 3.15273 5.74092 3.08115 5.90759C3 6.09654 3 6.32553 3 6.78349L3 7.90002C3 8.46007 3 8.7401 3.10899 8.95401C3.20487 9.14217 3.35785 9.29515 3.54601 9.39103C3.75992 9.50002 4.03995 9.50002 4.6 9.50002H19.4C19.9601 9.50002 20.2401 9.50002 20.454 9.39103C20.6422 9.29515 20.7951 9.14217 20.891 8.95401C21 8.7401 21 8.46007 21 7.90002V6.7835C21 6.32553 21 6.09655 20.9188 5.90759C20.8473 5.74092 20.7317 5.59685 20.5845 5.49082C20.4177 5.37062 20.1942 5.32094 19.7471 5.2216L12.3471 3.57715C12.2176 3.54837 12.1528 3.53398 12.0874 3.52824C12.0292 3.52314 11.9708 3.52314 11.9126 3.52824C11.8472 3.53398 11.7824 3.54837 11.6529 3.57715Z" stroke="#00529B" stroke-width="2" stroke-linecap="round" stroke-linejoin="round"/>
</svg>
