<svg width="24" height="24" viewBox="0 0 24 24" fill="none" xmlns="http://www.w3.org/2000/svg">
<mask id="mask0_1249_5065" style="mask-type:alpha" maskUnits="userSpaceOnUse" x="0" y="0" width="24" height="24">
<rect width="24" height="24" fill="#D9D9D9"/>
</mask>
<g mask="url(#mask0_1249_5065)">
<path d="M5.61538 20.9998C5.15513 20.9998 4.77083 20.8457 4.4625 20.5373C4.15417 20.229 4 19.8447 4 19.3844V6.61519C4 6.15494 4.15417 5.77065 4.4625 5.46232C4.77083 5.15399 5.15513 4.99982 5.61538 4.99982H7.3846V3.30752C7.3846 3.15238 7.43557 3.02385 7.5375 2.92192C7.63942 2.82 7.76794 2.76904 7.92308 2.76904C8.07821 2.76904 8.20673 2.82 8.30865 2.92192C8.41057 3.02385 8.46152 3.15238 8.46152 3.30752V4.99982H15.6154V3.26904C15.6154 3.12674 15.6631 3.00784 15.7587 2.91232C15.8542 2.8168 15.9731 2.76904 16.1154 2.76904C16.2577 2.76904 16.3766 2.8168 16.4721 2.91232C16.5676 3.00784 16.6154 3.12674 16.6154 3.26904V4.99982H18.3846C18.8449 4.99982 19.2292 5.15399 19.5375 5.46232C19.8458 5.77065 20 6.15494 20 6.61519V19.3844C20 19.8447 19.8458 20.229 19.5375 20.5373C19.2292 20.8457 18.8449 20.9998 18.3846 20.9998H5.61538ZM5.61538 19.9998H18.3846C18.5385 19.9998 18.6795 19.9357 18.8077 19.8075C18.9359 19.6793 19 19.5383 19 19.3844V10.6152H5V19.3844C5 19.5383 5.0641 19.6793 5.1923 19.8075C5.32052 19.9357 5.46154 19.9998 5.61538 19.9998ZM5 9.61519H19V6.61519C19 6.46136 18.9359 6.32034 18.8077 6.19212C18.6795 6.06392 18.5385 5.99982 18.3846 5.99982H5.61538C5.46154 5.99982 5.32052 6.06392 5.1923 6.19212C5.0641 6.32034 5 6.46136 5 6.61519V9.61519Z" fill="#4197CB"/>
</g>
</svg>
