<svg width="40" height="40" viewBox="0 0 40 40" fill="none" xmlns="http://www.w3.org/2000/svg">
<rect width="40" height="40" rx="20" fill="#F3F3F3"/>
<path d="M30 18H10M10 16.2L10 23.8C10 24.9201 10 25.4802 10.218 25.908C10.4097 26.2843 10.7157 26.5903 11.092 26.782C11.5198 27 12.0799 27 13.2 27L26.8 27C27.9201 27 28.4802 27 28.908 26.782C29.2843 26.5903 29.5903 26.2843 29.782 25.908C30 25.4802 30 24.9201 30 23.8V16.2C30 15.0799 30 14.5198 29.782 14.092C29.5903 13.7157 29.2843 13.4097 28.908 13.218C28.4802 13 27.9201 13 26.8 13L13.2 13C12.0799 13 11.5198 13 11.092 13.218C10.7157 13.4097 10.4097 13.7157 10.218 14.092C10 14.5198 10 15.0799 10 16.2Z" stroke="#00529B" stroke-width="1.5" stroke-linecap="round" stroke-linejoin="round"/>
</svg>
