<svg width="7" height="12" viewBox="0 0 7 12" fill="none" xmlns="http://www.w3.org/2000/svg">
<path d="M5.29249 6.00019L1.04634 1.75404C0.952761 1.66046 0.902761 1.54572 0.896344 1.40982C0.889927 1.27392 0.939927 1.15276 1.04634 1.04634C1.15276 0.939927 1.27071 0.886719 1.40019 0.886719C1.52968 0.886719 1.64763 0.939927 1.75404 1.04634L6.14249 5.43482C6.22968 5.52199 6.2909 5.61109 6.32617 5.70212C6.36142 5.79314 6.37904 5.89249 6.37904 6.00019C6.37904 6.10789 6.36142 6.20725 6.32617 6.29827C6.2909 6.3893 6.22968 6.4784 6.14249 6.56557L1.75404 10.954C1.66046 11.0476 1.54572 11.0976 1.40982 11.104C1.27392 11.1105 1.15276 11.0605 1.04634 10.954C0.939927 10.8476 0.886719 10.7297 0.886719 10.6002C0.886719 10.4707 0.939927 10.3528 1.04634 10.2463L5.29249 6.00019Z" fill="#4197CB"/>
</svg>
