<svg width="6" height="12" viewBox="0 0 6 12" fill="none" xmlns="http://www.w3.org/2000/svg">
<path d="M1.10803 5.99991L5.35418 10.2461C5.44777 10.3396 5.49777 10.4544 5.50418 10.5903C5.5106 10.7262 5.4606 10.8473 5.35418 10.9538C5.24777 11.0602 5.12982 11.1134 5.00033 11.1134C4.87085 11.1134 4.7529 11.0602 4.64648 10.9538L0.258035 6.56528C0.170851 6.47811 0.109626 6.38901 0.0743591 6.29798C0.0391091 6.20696 0.0214844 6.1076 0.0214844 5.99991C0.0214844 5.89221 0.0391091 5.79285 0.0743591 5.70183C0.109626 5.6108 0.170851 5.5217 0.258035 5.43453L4.64648 1.04606C4.74007 0.952472 4.85481 0.902472 4.99071 0.896055C5.12661 0.889639 5.24777 0.939639 5.35418 1.04606C5.4606 1.15247 5.51381 1.27042 5.51381 1.3999C5.51381 1.52939 5.4606 1.64734 5.35418 1.75375L1.10803 5.99991Z" fill="#4197CB"/>
</svg>
