<svg width="16" height="16" viewBox="0 0 16 16" fill="none" xmlns="http://www.w3.org/2000/svg">
<g clip-path="url(#clip0_82_686)">
<path d="M8.95831 5.71088C8.59914 5.96694 8.15961 6.11756 7.6849 6.11756C6.47205 6.11756 5.48883 5.13434 5.48883 3.92149C5.48883 2.70862 6.47205 1.7254 7.6849 1.7254C8.4711 1.7254 9.16079 2.13853 9.54875 2.75953M4.23393 13.0742H5.87175C6.0853 13.0742 6.29754 13.0997 6.50455 13.1505L8.23511 13.571C8.61061 13.6625 9.00179 13.6713 9.3812 13.5976L11.2946 13.2254C11.8 13.127 12.2651 12.8849 12.6294 12.5304L13.9832 11.2135C14.3698 10.8381 14.3698 10.2289 13.9832 9.85279C13.6352 9.51425 13.0839 9.47613 12.6902 9.76328L11.1124 10.9143C10.8864 11.0795 10.6115 11.1685 10.3288 11.1685H8.80522L9.77501 11.1684C10.3216 11.1684 10.7644 10.7377 10.7644 10.206V10.0134C10.7644 9.57204 10.4555 9.18703 10.0153 9.0803L8.51853 8.7163C8.27495 8.65722 8.02549 8.62737 7.77472 8.62737C7.16935 8.62737 6.07354 9.12858 6.07354 9.12858L4.23393 9.89787M13.0182 4.54893C13.0182 5.7618 12.0351 6.74502 10.8222 6.74502C9.60927 6.74502 8.62608 5.7618 8.62608 4.54893C8.62608 3.33608 9.60927 2.35286 10.8222 2.35286C12.0351 2.35286 13.0182 3.33608 13.0182 4.54893ZM1.72412 9.63133V13.2705C1.72412 13.6219 1.72412 13.7976 1.79251 13.9318C1.85267 14.0499 1.94866 14.1459 2.06672 14.206C2.20094 14.2744 2.37664 14.2744 2.72805 14.2744H3.23C3.58141 14.2744 3.75711 14.2744 3.89133 14.206C4.00939 14.1459 4.10538 14.0499 4.16554 13.9318C4.23393 13.7976 4.23393 13.6219 4.23393 13.2705V9.63133C4.23393 9.27988 4.23393 9.10418 4.16554 8.96996C4.10538 8.8519 4.00939 8.75591 3.89133 8.69576C3.75711 8.62737 3.58141 8.62737 3.23 8.62737H2.72805C2.37664 8.62737 2.20094 8.62737 2.06672 8.69576C1.94866 8.75591 1.85267 8.8519 1.79251 8.96996C1.72412 9.10418 1.72412 9.27988 1.72412 9.63133Z" stroke="black" stroke-width="1.5" stroke-linecap="round" stroke-linejoin="round"/>
</g>
<defs>
<clipPath id="clip0_82_686">
<rect width="16" height="16" fill="white"/>
</clipPath>
</defs>
</svg>
