<svg width="16" height="16" viewBox="0 0 16 16" fill="none" xmlns="http://www.w3.org/2000/svg">
<path d="M10.6668 12L12.0002 13.3333L14.6668 10.6667M14.6668 6.66668H1.3335M14.6668 8.00001V5.46668C14.6668 4.71994 14.6668 4.34657 14.5215 4.06136C14.3937 3.81047 14.1897 3.6065 13.9388 3.47867C13.6536 3.33334 13.2802 3.33334 12.5335 3.33334H3.46683C2.72009 3.33334 2.34672 3.33334 2.06151 3.47867C1.81063 3.6065 1.60665 3.81047 1.47882 4.06136C1.3335 4.34657 1.3335 4.71994 1.3335 5.46668V10.5333C1.3335 11.2801 1.3335 11.6534 1.47882 11.9387C1.60665 12.1895 1.81063 12.3935 2.06151 12.5214C2.34672 12.6667 2.72009 12.6667 3.46683 12.6667H8.00016" stroke="black" stroke-width="2" stroke-linecap="round" stroke-linejoin="round"/>
</svg>
