<svg width="24" height="27" viewBox="0 0 24 27" fill="none" xmlns="http://www.w3.org/2000/svg">
<path d="M4.76277 26.39C4.01704 26.39 3.38189 26.1277 2.85731 25.6032C2.33275 25.0786 2.07048 24.4434 2.07048 23.6977V3.05666H0.403809V1.38999H7.07048V0.10791H17.0705V1.38999H23.7371V3.05666H22.0705V23.6977C22.0705 24.4648 21.8135 25.1053 21.2996 25.6192C20.7858 26.1331 20.1453 26.39 19.3782 26.39H4.76277ZM20.4038 3.05666H3.73714V23.6977C3.73714 23.9968 3.83329 24.2426 4.0256 24.4349C4.21791 24.6272 4.46363 24.7233 4.76277 24.7233H19.3782C19.6346 24.7233 19.8696 24.6165 20.0833 24.4028C20.297 24.1891 20.4038 23.9541 20.4038 23.6977V3.05666ZM8.4166 21.39H10.0833V6.38999H8.4166V21.39ZM14.0576 21.39H15.7243V6.38999H14.0576V21.39Z" fill="#0D2B88"/>
</svg>
