<svg width="40" height="40" viewBox="0 0 40 40" fill="none" xmlns="http://www.w3.org/2000/svg">
<rect width="40" height="40" rx="20" fill="#F3F3F3"/>
<path d="M14 29H17M23 29H26M25.5 14.5V22.5M11 14.2L11 22.8C11 23.9201 11 24.4802 11.218 24.908C11.4097 25.2843 11.7157 25.5903 12.092 25.782C12.5198 26 13.0799 26 14.2 26L25.8 26C26.9201 26 27.4802 26 27.908 25.782C28.2843 25.5903 28.5903 25.2843 28.782 24.908C29 24.4802 29 23.9201 29 22.8V14.2C29 13.0799 29 12.5198 28.782 12.092C28.5903 11.7157 28.2843 11.4097 27.908 11.218C27.4802 11 26.9201 11 25.8 11L14.2 11C13.0799 11 12.5198 11 12.092 11.218C11.7157 11.4097 11.4097 11.7157 11.218 12.092C11 12.5198 11 13.0799 11 14.2ZM19.5 18.5C19.5 19.8807 18.3807 21 17 21C15.6193 21 14.5 19.8807 14.5 18.5C14.5 17.1193 15.6193 16 17 16C18.3807 16 19.5 17.1193 19.5 18.5Z" stroke="#00529B" stroke-width="1.5" stroke-linecap="round" stroke-linejoin="round"/>
</svg>
