<svg width="40" height="40" viewBox="0 0 40 40" fill="none" xmlns="http://www.w3.org/2000/svg">
<path d="M0 20C0 8.95431 8.95431 0 20 0C31.0457 0 40 8.95431 40 20C40 31.0457 31.0457 40 20 40C8.95431 40 0 31.0457 0 20Z" fill="#F3F3F3"/>
<path d="M28 18.5V14.8C28 13.1198 28 12.2798 27.673 11.638C27.3854 11.0735 26.9265 10.6146 26.362 10.327C25.7202 10 24.8802 10 23.2 10H16.8C15.1198 10 14.2798 10 13.638 10.327C13.0735 10.6146 12.6146 11.0735 12.327 11.638C12 12.2798 12 13.1198 12 14.8V25.2C12 26.8802 12 27.7202 12.327 28.362C12.6146 28.9265 13.0735 29.3854 13.638 29.673C14.2798 30 15.1198 30 16.8 30H20M22 19H16M18 23H16M24 15H16M26 29V23M23 26H29" stroke="#00529B" stroke-width="1.5" stroke-linecap="round" stroke-linejoin="round"/>
</svg>
