<svg width="12" height="12" viewBox="0 0 12 12" fill="none" xmlns="http://www.w3.org/2000/svg">
<path d="M4.53672 6.00019L0.296344 1.75404C0.20276 1.66046 0.151802 1.54668 0.143469 1.41269C0.135136 1.27871 0.186094 1.15659 0.296344 1.04634C0.40276 0.939927 0.52071 0.886719 0.650194 0.886719C0.779677 0.886719 0.897627 0.939927 1.00404 1.04634L5.39249 5.43482C5.47968 5.52199 5.5409 5.61109 5.57617 5.70212C5.61142 5.79314 5.62904 5.89249 5.62904 6.00019C5.62904 6.10789 5.61142 6.20725 5.57617 6.29827C5.5409 6.3893 5.47968 6.4784 5.39249 6.56557L1.00404 10.954C0.910444 11.0476 0.79666 11.0986 0.662694 11.1069C0.52871 11.1153 0.406594 11.0643 0.296344 10.954C0.189927 10.8476 0.136719 10.7297 0.136719 10.6002C0.136719 10.4707 0.189927 10.3528 0.296344 10.2463L4.53672 6.00019ZM10.6367 6.00019L6.39634 1.75404C6.30276 1.66046 6.2518 1.54668 6.24347 1.41269C6.23514 1.27871 6.28609 1.15659 6.39634 1.04634C6.50276 0.939927 6.62071 0.886719 6.75019 0.886719C6.87968 0.886719 6.99763 0.939927 7.10404 1.04634L11.4925 5.43482C11.5797 5.52199 11.6409 5.61109 11.6762 5.70212C11.7114 5.79314 11.729 5.89249 11.729 6.00019C11.729 6.10789 11.7114 6.20725 11.6762 6.29827C11.6409 6.3893 11.5797 6.4784 11.4925 6.56557L7.10404 10.954C7.01046 11.0476 6.89668 11.0986 6.76269 11.1069C6.62873 11.1153 6.50661 11.0643 6.39634 10.954C6.28993 10.8476 6.23672 10.7297 6.23672 10.6002C6.23672 10.4707 6.28993 10.3528 6.39634 10.2463L10.6367 6.00019Z" fill="#4197CB"/>
</svg>
