<svg width="12" height="12" viewBox="0 0 12 12" fill="none" xmlns="http://www.w3.org/2000/svg">
<path d="M1.36381 6.00018L5.60418 10.2463C5.69777 10.3399 5.74873 10.4537 5.75706 10.5877C5.76539 10.7217 5.71443 10.8438 5.60418 10.954C5.49777 11.0604 5.37982 11.1137 5.25033 11.1137C5.12085 11.1137 5.0029 11.0604 4.89648 10.954L0.50801 6.56556C0.420843 6.47839 0.359626 6.38929 0.32436 6.29826C0.28911 6.20724 0.271484 6.10788 0.271484 6.00018C0.271484 5.89248 0.28911 5.79312 0.32436 5.70211C0.359626 5.61107 0.420843 5.52197 0.50801 5.43481L4.89648 1.04633C4.99007 0.952748 5.10385 0.90179 5.23783 0.893457C5.3718 0.885123 5.49392 0.936081 5.60418 1.04633C5.7106 1.15275 5.76381 1.2707 5.76381 1.40018C5.76381 1.52966 5.7106 1.64761 5.60418 1.75403L1.36381 6.00018ZM7.46381 6.00018L11.7042 10.2463C11.7978 10.3399 11.8487 10.4537 11.8571 10.5877C11.8654 10.7217 11.8144 10.8438 11.7042 10.954C11.5978 11.0604 11.4798 11.1137 11.3503 11.1137C11.2209 11.1137 11.1029 11.0604 10.9965 10.954L6.60804 6.56556C6.52085 6.47839 6.45963 6.38929 6.42436 6.29826C6.38911 6.20724 6.37148 6.10788 6.37148 6.00018C6.37148 5.89248 6.38911 5.79312 6.42436 5.70211C6.45963 5.61107 6.52085 5.52197 6.60804 5.43481L10.9965 1.04633C11.0901 0.952748 11.2039 0.90179 11.3378 0.893457C11.4718 0.885123 11.5939 0.936081 11.7042 1.04633C11.8106 1.15275 11.8638 1.2707 11.8638 1.40018C11.8638 1.52966 11.8106 1.64761 11.7042 1.75403L7.46381 6.00018Z" fill="#4197CB"/>
</svg>
