<svg width="18" height="18" viewBox="0 0 18 18" fill="none" xmlns="http://www.w3.org/2000/svg">
<path fill-rule="evenodd" clip-rule="evenodd" d="M6.44227 8.75455C6.3673 8.66949 6.32871 8.5584 6.33479 8.44518C6.34086 8.33196 6.39113 8.22565 6.47477 8.1491C6.55841 8.07255 6.66875 8.03187 6.78206 8.03582C6.89538 8.03977 7.00262 8.08803 7.08073 8.17022L9.0328 10.3026V2.42455C9.03501 2.3112 9.08159 2.20323 9.16254 2.12385C9.24348 2.04447 9.35233 2 9.46571 2C9.57908 2 9.68793 2.04447 9.76888 2.12385C9.84982 2.20323 9.89641 2.3112 9.89862 2.42455V10.3026L11.8507 8.17022C11.9285 8.08685 12.0361 8.03758 12.1501 8.03311C12.2641 8.02864 12.3752 8.06934 12.4593 8.14636C12.5434 8.22337 12.5938 8.33048 12.5994 8.4444C12.6049 8.55832 12.5653 8.66984 12.4892 8.75472L9.78494 11.7085C9.74444 11.7529 9.69514 11.7883 9.64017 11.8126C9.58521 11.8368 9.52579 11.8494 9.46571 11.8494C9.40563 11.8494 9.34621 11.8368 9.29124 11.8126C9.23628 11.7883 9.18697 11.7529 9.14648 11.7085L6.44227 8.75455ZM15.9585 9.75379C15.8437 9.75387 15.7336 9.79953 15.6525 9.88071C15.5713 9.9619 15.5257 10.072 15.5257 10.1868V14.135H2.86484V10.1868C2.86263 10.0734 2.81605 9.96546 2.7351 9.88608C2.65416 9.80669 2.54531 9.76223 2.43193 9.76223C2.31856 9.76223 2.20971 9.80669 2.12876 9.88608C2.04781 9.96546 2.00123 10.0734 1.99902 10.1868V14.5667C1.99894 14.6236 2.01007 14.6799 2.03178 14.7325C2.0535 14.7851 2.08537 14.8329 2.12557 14.8731C2.16577 14.9134 2.21352 14.9453 2.26607 14.9671C2.31863 14.9888 2.37496 15 2.43185 15H15.9585C16.0153 15.0001 16.0716 14.9889 16.1241 14.9672C16.1767 14.9455 16.2244 14.9137 16.2646 14.8735C16.3048 14.8333 16.3367 14.7856 16.3584 14.7331C16.3802 14.6806 16.3913 14.6243 16.3913 14.5675V10.1868C16.3912 10.072 16.3456 9.96194 16.2645 9.88076C16.1833 9.79958 16.0733 9.75392 15.9585 9.75379Z" fill="#7D7D7D" stroke="#7D7D7D" stroke-width="0.599679"/>
</svg>
