<svg width="100" height="99" viewBox="0 0 100 99" fill="none" xmlns="http://www.w3.org/2000/svg">
<g opacity="0.0180283">
<path d="M49.9985 1.60742C76.2399 1.60742 97.5459 22.9134 97.5459 49.1548C97.5459 75.3962 76.2399 96.7021 49.9985 96.7021C23.7571 96.7021 2.45117 75.3962 2.45117 49.1548C2.45117 22.9134 23.7571 1.60742 49.9985 1.60742Z" stroke="#F3F3F3" stroke-width="4.12614"/>
</g>
<path d="M49.5703 14.9141C68.6496 14.9141 84.1406 30.405 84.1406 49.4844C84.1406 68.5637 68.6496 84.0547 49.5703 84.0547C30.4909 84.0547 15 68.5637 15 49.4844C15 30.405 30.4909 14.9141 49.5703 14.9141Z" fill="#F60909"/>
<path d="M50 56L50 32" stroke="#F3F3F3" stroke-width="5" stroke-linecap="round" stroke-linejoin="round"/>
<path d="M50 69L50 67" stroke="#F3F3F3" stroke-width="5" stroke-linecap="round" stroke-linejoin="round"/>
</svg>
