<svg width="40" height="40" viewBox="0 0 40 40" fill="none" xmlns="http://www.w3.org/2000/svg">
<rect width="40" height="40" rx="20" fill="#F3F3F3"/>
<path d="M14 14L16 12M16 12L14 10M16 12H14C11.7909 12 10 13.7909 10 16M26 26L24 28M24 28L26 30M24 28H26C28.2091 28 30 26.2091 30 24M21.4172 21.4172C22.1994 21.7908 23.0753 22 24 22C27.3137 22 30 19.3137 30 16C30 12.6863 27.3137 10 24 10C20.6863 10 18 12.6863 18 16C18 16.9247 18.2092 17.8006 18.5828 18.5828M22 24C22 27.3137 19.3137 30 16 30C12.6863 30 10 27.3137 10 24C10 20.6863 12.6863 18 16 18C19.3137 18 22 20.6863 22 24Z" stroke="#00529B" stroke-width="1.5" stroke-linecap="round" stroke-linejoin="round"/>
</svg>
