<svg width="16" height="16" viewBox="0 0 16 16" fill="none" xmlns="http://www.w3.org/2000/svg">
<path d="M13.3332 6.99992V4.53325C13.3332 3.41315 13.3332 2.85309 13.1152 2.42527C12.9234 2.04895 12.6175 1.74299 12.2412 1.55124C11.8133 1.33325 11.2533 1.33325 10.1332 1.33325H5.8665C4.7464 1.33325 4.18635 1.33325 3.75852 1.55124C3.3822 1.74299 3.07624 2.04895 2.88449 2.42527C2.6665 2.85309 2.6665 3.41315 2.6665 4.53325V11.4666C2.6665 12.5867 2.6665 13.1467 2.88449 13.5746C3.07624 13.9509 3.3822 14.2569 3.75852 14.4486C4.18635 14.6666 4.7464 14.6666 5.8665 14.6666H7.99984M9.33317 7.33325H5.33317M6.6665 9.99992H5.33317M10.6665 4.66659H5.33317M11.9998 13.9999V9.99992M9.99984 11.9999H13.9998" stroke="#00529B" stroke-width="1.5" stroke-linecap="round" stroke-linejoin="round"/>
</svg>
