<svg width="40" height="40" viewBox="0 0 40 40" fill="none" xmlns="http://www.w3.org/2000/svg">
<path d="M0 20C0 8.95431 8.95431 0 20 0C31.0457 0 40 8.95431 40 20C40 31.0457 31.0457 40 20 40C8.95431 40 0 31.0457 0 20Z" fill="#F3F3F3"/>
<path d="M24 14L27 11M27 11L30 14M27 11V17M24 29V27.8C24 26.1198 24 25.2798 23.673 24.638C23.3854 24.0735 22.9265 23.6146 22.362 23.327C21.7202 23 20.8802 23 19.2 23H14.8C13.1198 23 12.2798 23 11.638 23.327C11.0735 23.6146 10.6146 24.0735 10.327 24.638C10 25.2798 10 26.1198 10 27.8V29M20.5 15.5C20.5 17.433 18.933 19 17 19C15.067 19 13.5 17.433 13.5 15.5C13.5 13.567 15.067 12 17 12C18.933 12 20.5 13.567 20.5 15.5Z" stroke="#00529B" stroke-width="1.5" stroke-linecap="round" stroke-linejoin="round"/>
</svg>
