<svg width="24" height="24" viewBox="0 0 24 24" fill="none" xmlns="http://www.w3.org/2000/svg">
<path fill-rule="evenodd" clip-rule="evenodd" d="M9.8664 5.15978C10.0543 5.36213 10.0426 5.6785 9.84023 5.8664L3.23481 12L9.84023 18.1336C10.0426 18.3215 10.0543 18.6379 9.8664 18.8402C9.6785 19.0426 9.36213 19.0543 9.15977 18.8664L2.15977 12.3664C2.05789 12.2718 2 12.139 2 12C2 11.861 2.05789 11.7282 2.15977 11.6336L9.15977 5.13361C9.36213 4.9457 9.6785 4.95742 9.8664 5.15978Z" fill="#151515"/>
<path fill-rule="evenodd" clip-rule="evenodd" d="M3 12C3 11.7239 3.22386 11.5 3.5 11.5H21.5C21.7761 11.5 22 11.7239 22 12C22 12.2761 21.7761 12.5 21.5 12.5H3.5C3.22386 12.5 3 12.2761 3 12Z" fill="#151515"/>
</svg>
