<svg width="40" height="40" viewBox="0 0 40 40" fill="none" xmlns="http://www.w3.org/2000/svg">
<rect width="40" height="40" rx="20" fill="#00539D" fill-opacity="0.2"/>
<path d="M21.5295 16.3519C20.9571 16.7599 20.2566 17 19.5 17C17.567 17 16 15.433 16 13.5C16 11.567 17.567 10 19.5 10C20.753 10 21.8522 10.6584 22.4705 11.6481M14 28.0872H16.6103C16.9506 28.0872 17.2889 28.1277 17.6188 28.2086L20.3769 28.8789C20.9753 29.0247 21.5988 29.0388 22.2035 28.9214L25.253 28.3281C26.0585 28.1712 26.7996 27.7854 27.3803 27.2205L29.5379 25.1217C30.154 24.5234 30.154 23.5524 29.5379 22.9531C28.9832 22.4134 28.1047 22.3527 27.4771 22.8103L24.9626 24.6449C24.6025 24.9081 24.1643 25.0498 23.7137 25.0498H21.2855L22.8311 25.0498C23.7022 25.0498 24.4079 24.3633 24.4079 23.5159V23.2091C24.4079 22.5055 23.9156 21.892 23.2141 21.7219L20.8286 21.1417C20.4404 21.0476 20.0428 21 19.6431 21C18.6783 21 16.9319 21.7988 16.9319 21.7988L14 23.0249M28 14.5C28 16.433 26.433 18 24.5 18C22.567 18 21 16.433 21 14.5C21 12.567 22.567 11 24.5 11C26.433 11 28 12.567 28 14.5ZM10 22.6L10 28.4C10 28.9601 10 29.2401 10.109 29.454C10.2049 29.6422 10.3578 29.7951 10.546 29.891C10.7599 30 11.0399 30 11.6 30H12.4C12.9601 30 13.2401 30 13.454 29.891C13.6422 29.7951 13.7951 29.6422 13.891 29.454C14 29.2401 14 28.9601 14 28.4V22.6C14 22.0399 14 21.7599 13.891 21.546C13.7951 21.3578 13.6422 21.2049 13.454 21.109C13.2401 21 12.9601 21 12.4 21L11.6 21C11.0399 21 10.7599 21 10.546 21.109C10.3578 21.2049 10.2049 21.3578 10.109 21.546C10 21.7599 10 22.0399 10 22.6Z" stroke="#00529B" stroke-width="2" stroke-linecap="round" stroke-linejoin="round"/>
</svg>
