<svg width="156" height="40" viewBox="0 0 156 40" fill="none" xmlns="http://www.w3.org/2000/svg">
<path d="M0.611328 0C6.53207 1.15527 11.8752 2.74376 16.6407 4.62107H39.1684V39.8567H11.442H6.9653H3.78831V4.62107H11.0087H12.4528C8.98702 2.74376 4.94358 1.15527 0.611328 0Z" fill="black"/>
<path d="M112.384 31.7698C113.25 31.0477 113.972 30.3257 113.972 29.026C113.972 28.1596 113.539 26.7155 110.651 26.7155C110.073 26.7155 109.495 26.7155 108.773 26.7155C108.484 26.7155 107.474 26.7155 106.607 26.7155C106.318 26.7155 106.318 26.7155 106.318 26.8599C106.318 27.0043 106.463 27.0043 106.607 27.0043C106.752 27.0043 107.04 27.0043 107.185 27.0043C107.762 27.1487 107.762 27.4375 107.907 27.8708C107.907 28.304 107.907 28.7372 107.907 31.1921V33.9359C107.907 35.38 107.907 36.6797 107.762 37.2573C107.762 37.6905 107.618 38.1238 107.329 38.1238C107.185 38.1238 107.04 38.1238 106.752 38.1238C106.607 38.1238 106.463 38.1237 106.463 38.2682C106.463 38.4126 106.607 38.4126 106.752 38.4126C107.04 38.4126 107.474 38.4126 107.762 38.4126C108.196 38.4126 108.484 38.4126 108.629 38.4126C108.918 38.4126 109.351 38.4126 109.784 38.4126C110.217 38.4126 110.651 38.4126 110.939 38.4126C113.828 38.4126 115.127 36.6797 115.127 34.9468C115.272 33.2139 113.683 32.203 112.384 31.7698ZM109.784 27.5819C109.784 27.4375 109.784 27.2931 109.929 27.2931C110.073 27.2931 110.217 27.2931 110.506 27.2931C111.806 27.2931 112.528 28.7372 112.528 29.7481C112.528 30.4701 112.239 31.0477 111.95 31.481C111.661 31.7698 111.373 31.7698 110.795 31.7698C110.362 31.7698 110.217 31.7698 110.073 31.7698C110.073 31.7698 109.929 31.7698 109.929 31.6254L109.784 27.5819ZM111.373 37.8349C111.084 37.8349 110.651 37.8349 110.217 37.6905C109.784 37.5461 109.64 37.2573 109.64 36.2464V32.4918C109.64 32.3474 109.64 32.3474 109.784 32.3474C110.073 32.3474 110.217 32.3474 110.506 32.3474C111.084 32.3474 111.517 32.4918 111.806 32.7806C112.961 33.6471 113.394 34.9468 113.394 35.9576C113.394 37.4017 112.095 37.8349 111.373 37.8349Z" fill="#00529B"/>
<path d="M67.472 26.4282C62.7065 26.4282 60.9736 29.894 60.9736 32.6378C60.9736 35.3815 62.8509 38.7029 67.3276 38.7029C71.371 38.7029 73.826 35.8148 73.826 32.349C73.826 28.7388 71.371 26.4282 67.472 26.4282ZM67.9052 37.8365C64.8727 37.8365 63.1398 35.2371 63.1398 32.0602C63.1398 28.1611 65.1615 27.1503 67.0388 27.1503C69.6381 27.1503 71.6599 29.3164 71.6599 32.7822C71.5154 37.4033 69.0605 37.8365 67.9052 37.8365Z" fill="#00529B"/>
<path d="M51.4439 26.5714C50.5775 26.5714 49.5666 26.5714 48.989 26.5714C48.5558 26.5714 47.5449 26.5714 46.6785 26.5714C46.3896 26.5714 46.3896 26.5714 46.3896 26.7158C46.3896 26.8603 46.5341 26.8603 46.6785 26.8603C46.8229 26.8603 47.1117 26.8603 47.2561 26.8603C47.8337 27.0047 47.8337 27.2935 47.9781 27.7267C47.9781 28.1599 47.9781 28.5932 47.9781 31.0481V33.7919C47.9781 35.2359 47.9781 36.5356 47.8337 37.1133C47.8337 37.5465 47.6893 37.9797 47.4005 37.9797C47.2561 37.9797 47.1117 37.9797 46.8229 37.9797C46.6785 37.9797 46.5341 37.9797 46.5341 38.1241C46.5341 38.2685 46.6785 38.2685 46.8229 38.2685C47.1117 38.2685 47.5449 38.2685 47.8337 38.2685C48.267 38.2685 48.5558 38.2685 48.7002 38.2685C49.1334 38.2685 49.711 38.2685 50.2887 38.4129C50.8663 38.4129 51.5883 38.5573 52.0216 38.5573C54.9097 38.5573 56.4982 37.4021 57.2203 36.68C58.0867 35.8136 58.9532 34.2251 58.9532 32.3478C58.9532 30.4705 58.2311 29.1708 57.5091 28.3043C56.065 26.5714 53.4657 26.5714 51.4439 26.5714ZM55.9206 36.68C54.9097 37.5465 53.8989 37.8353 52.3104 37.8353C51.0107 37.8353 50.4331 37.5465 50.2887 37.2577C50.1443 37.1133 50.1443 36.3912 50.1443 36.1024C50.1443 35.8136 50.1443 34.6583 50.1443 32.9254V30.9037C50.1443 29.604 50.1443 28.3043 50.1443 27.7267C50.1443 27.5823 50.1443 27.4379 50.2887 27.4379C50.4331 27.4379 51.0107 27.2935 51.2995 27.2935C52.4548 27.2935 54.3321 27.4379 55.7762 28.882C56.4982 29.4596 57.2203 30.7593 57.2203 32.781C57.2203 34.5139 56.7871 35.8136 55.9206 36.68Z" fill="#00529B"/>
<path d="M101.408 38.1224C101.263 38.1224 100.974 38.1224 100.83 38.1224C100.541 37.978 100.108 37.8336 99.3859 36.3895C98.375 34.079 95.92 27.5806 95.4868 26.7141C95.3424 26.4253 95.198 26.2809 95.0536 26.2809C94.9092 26.2809 94.7648 26.4253 94.6204 26.8586L90.7213 36.6783C90.4325 37.4004 90.1437 37.978 89.4217 38.1224C89.2773 38.1224 89.1329 38.1224 88.9884 38.1224H88.844H88.6996C88.4108 38.1224 88.122 38.1224 87.9776 38.1224C87.5444 38.1224 87.4 37.6892 87.4 37.256C87.2555 36.5339 87.2555 35.3786 87.2555 33.9346V31.1908C87.2555 28.8803 87.2555 28.447 87.2555 27.8694C87.2555 27.2918 87.4 27.003 87.8332 27.003C87.9776 27.003 88.122 27.003 88.2664 27.003C88.4108 27.003 88.5552 27.003 88.5552 26.8586C88.5552 26.7141 88.4108 26.7141 88.2664 26.7141C87.6888 26.7141 86.6779 26.7141 86.2447 26.7141C85.8115 26.7141 84.8006 26.7141 83.9341 26.7141C83.7897 26.7141 83.6453 26.7141 83.6453 26.8586C83.6453 27.003 83.7897 27.003 83.9341 27.003C84.223 27.003 84.3674 27.003 84.5118 27.003C85.0894 27.1474 85.0894 27.4362 85.2338 27.8694C85.2338 28.3026 85.2338 28.7359 85.2338 31.1908V31.4796C85.2338 31.624 85.2338 31.624 85.0894 31.624H79.1687C79.1687 31.624 79.0243 31.624 79.0243 31.4796V31.1908C79.0243 28.8803 79.0243 28.447 79.0243 27.8694C79.0243 27.2918 79.1687 27.003 79.6019 27.003C79.7463 27.003 79.8907 27.003 80.0351 27.003C80.1795 27.003 80.3239 27.003 80.3239 26.8586C80.3239 26.7141 80.1795 26.7141 80.0351 26.7141C79.4575 26.7141 78.4466 26.7141 78.0134 26.7141C77.5802 26.7141 76.5693 26.7141 75.7029 26.7141C75.5585 26.7141 75.4141 26.7141 75.4141 26.8586C75.4141 27.003 75.5585 27.003 75.7029 27.003C75.9917 27.003 76.1361 27.003 76.2805 27.003C76.8581 27.1474 76.8581 27.4362 77.0026 27.8694C77.0026 28.3026 77.0026 28.7359 77.0026 31.1908V33.9346C77.0026 35.3786 77.0026 36.6783 76.8581 37.256C76.8581 37.6892 76.7137 38.1224 76.4249 38.1224C76.2805 38.1224 76.1361 38.1224 75.8473 38.1224C75.7029 38.1224 75.5585 38.1224 75.5585 38.2668C75.5585 38.4112 75.7029 38.4112 75.8473 38.4112C76.4249 38.4112 77.4358 38.4112 77.869 38.4112C78.3022 38.4112 79.3131 38.4112 80.3239 38.4112C80.4683 38.4112 80.6128 38.4112 80.6128 38.2668C80.6128 38.1224 80.4683 38.1224 80.3239 38.1224C80.0351 38.1224 79.7463 38.1224 79.4575 38.1224C79.0243 38.1224 78.8799 37.6892 78.8799 37.256C78.7354 36.5339 78.7354 35.3786 78.7354 33.9346V32.4905C78.7354 32.3461 78.7354 32.3461 78.8799 32.3461H85.0894L85.2338 32.4905V33.9346C85.2338 35.3786 85.2338 36.6783 85.0894 37.256C85.0894 37.6892 84.945 38.1224 84.6562 38.1224C84.5118 38.1224 84.3674 38.1224 84.0786 38.1224C83.9342 38.1224 83.7897 38.1224 83.7897 38.2668C83.7897 38.4112 83.9342 38.4112 84.0786 38.4112C84.6562 38.4112 85.667 38.4112 86.1003 38.4112C86.5335 38.4112 87.5444 38.4112 88.5552 38.4112C88.6996 38.4112 88.6996 38.4112 88.844 38.4112C88.844 38.4112 88.9885 38.4112 89.1329 38.4112C89.9993 38.4112 90.8658 38.4112 91.0102 38.4112C91.4434 38.4112 92.1654 38.4112 92.5987 38.4112C92.7431 38.4112 92.8875 38.4112 92.8875 38.2668C92.8875 38.1224 92.8875 38.1224 92.5987 38.1224H92.3098C91.8766 38.1224 91.7322 37.978 91.7322 37.6892C91.7322 37.5448 91.8766 37.1115 92.021 36.6783L92.8875 34.5122C92.8875 34.3678 92.8875 34.3678 93.0319 34.3678H96.4977C96.6421 34.3678 96.6421 34.3678 96.6421 34.5122L97.9418 37.8336C98.0862 37.978 97.9418 38.1224 97.7974 38.1224C97.653 38.1224 97.5085 38.1224 97.5085 38.2668C97.5085 38.4112 97.653 38.4112 97.9418 38.4112C99.2414 38.4112 100.397 38.4112 100.83 38.4112C101.408 38.4112 101.552 38.4112 101.408 38.1224ZM96.0645 33.6457H93.1763V33.5013L94.6204 29.6023L94.7648 29.4579L94.9092 29.6023L96.0645 33.6457Z" fill="#00529B"/>
<path d="M155.561 38.1241C155.416 38.1241 155.127 38.1241 154.55 37.8353C153.683 37.5465 152.961 36.8244 152.384 36.1024C151.806 35.5248 148.773 32.2034 148.196 31.4813C148.773 30.9037 151.084 28.5932 151.517 28.1599C152.239 27.4379 152.672 27.1491 153.25 27.0047C153.539 26.8603 153.972 26.8603 154.117 26.8603C154.261 26.8603 154.405 26.8603 154.405 26.7158C154.405 26.5714 154.261 26.5714 154.117 26.5714C153.683 26.5714 152.817 26.5714 152.239 26.5714C151.806 26.5714 150.94 26.5714 150.651 26.5714C150.506 26.5714 150.362 26.5714 150.362 26.7158C150.362 26.8603 150.362 26.8603 150.506 26.8603C150.651 26.8603 150.651 27.0047 150.651 27.1491C150.651 27.4379 150.362 27.8711 149.929 28.3043C149.495 28.882 147.185 31.1925 146.607 31.7701H146.463V31.0481C146.463 28.7376 146.463 28.3043 146.463 27.7267C146.463 27.1491 146.607 26.8603 147.041 26.8603C147.185 26.8603 147.329 26.8603 147.474 26.8603C147.618 26.8603 147.618 26.8603 147.618 26.7158C147.618 26.5714 147.474 26.5714 147.329 26.5714C146.752 26.5714 145.741 26.5714 145.452 26.5714C145.019 26.5714 144.152 26.5714 143.286 26.5714C142.997 26.5714 142.997 26.5714 142.997 26.7158C142.997 26.8603 143.141 26.8603 143.286 26.8603C143.575 26.8603 143.719 26.8603 143.864 26.8603C144.441 27.0047 144.441 27.2935 144.586 27.7267C144.586 28.1599 144.586 28.5932 144.586 31.0481V33.7919C144.586 35.2359 144.586 36.5356 144.441 37.1133C144.441 37.5465 144.297 37.9797 144.008 37.9797C143.864 37.9797 143.719 37.9797 143.43 37.9797C143.286 37.9797 143.141 37.9797 143.141 38.1241C143.141 38.2685 143.286 38.2685 143.43 38.2685C144.008 38.2685 145.019 38.2685 145.452 38.2685C145.885 38.2685 146.752 38.2685 147.763 38.2685C147.907 38.2685 148.051 38.2685 148.051 38.1241C148.051 37.9797 147.907 37.9797 147.907 37.9797C147.763 37.9797 147.329 37.9797 147.185 37.9797C146.752 37.9797 146.607 37.5465 146.607 37.1133C146.607 36.3912 146.607 35.2359 146.607 33.7919V32.3478H146.752L146.896 32.6366C147.185 33.0698 150.362 36.68 150.94 37.2577C151.662 37.8353 152.095 38.1241 152.817 38.2685C153.106 38.2685 153.394 38.2685 153.828 38.2685H155.127C155.416 38.2685 155.561 38.2685 155.561 38.1241C155.849 38.2685 155.705 38.1241 155.561 38.1241Z" fill="#00529B"/>
<path d="M140.976 26.5726C140.254 26.5726 139.677 26.5726 139.388 26.5726C139.099 26.5726 138.377 26.5726 137.511 26.5726C137.222 26.5726 137.077 26.5726 137.077 26.717C137.077 26.8614 137.077 26.8615 137.366 26.8615C137.655 26.8615 137.944 26.8615 138.233 27.0059C138.666 27.1503 138.81 27.4391 138.81 28.4499L138.955 35.526H138.81C138.521 35.2371 136.5 33.071 135.344 31.9157C133.034 29.6052 130.723 27.1503 130.434 26.8615C130.146 26.5726 130.001 26.4282 129.857 26.4282C129.712 26.4282 129.712 26.717 129.712 27.0059L129.568 36.248C129.568 37.5477 129.424 38.1253 129.135 38.1253C128.846 38.1253 128.702 38.2697 128.413 38.2697H128.268H128.124C127.98 38.2697 127.691 38.2697 127.402 38.2697C127.113 38.1253 126.68 37.9809 125.958 36.5368C124.947 34.2263 122.492 27.7279 122.059 26.8615C121.914 26.4282 121.77 26.4282 121.626 26.4282C121.481 26.4282 121.337 26.5726 121.192 27.0059L117.293 36.8256C117.005 37.5477 116.716 38.1253 115.994 38.2697C115.849 38.2697 115.705 38.2697 115.56 38.2697C115.416 38.2697 115.416 38.2697 115.416 38.4141C115.416 38.5585 115.56 38.5585 115.705 38.5585C116.571 38.5585 117.438 38.5585 117.582 38.5585C118.015 38.5585 118.737 38.5585 119.171 38.5585C119.315 38.5585 119.459 38.5585 119.459 38.4141C119.459 38.2697 119.459 38.2697 119.171 38.2697H118.882C118.449 38.2697 118.304 38.1253 118.304 37.8365C118.304 37.6921 118.449 37.2589 118.593 36.8256L119.459 34.6595C119.459 34.5151 119.459 34.5151 119.604 34.5151H123.07C123.214 34.5151 123.214 34.5151 123.214 34.6595L124.514 37.9809C124.658 38.1253 124.514 38.2697 124.369 38.2697C124.225 38.2697 124.225 38.2697 124.225 38.4141C124.225 38.5585 124.369 38.5585 124.658 38.5585C125.958 38.5585 127.113 38.5585 127.546 38.5585C127.835 38.5585 127.98 38.5585 128.124 38.5585C128.124 38.5585 128.268 38.5585 128.413 38.5585C129.279 38.5585 130.001 38.5585 130.146 38.5585C130.434 38.5585 131.012 38.5585 132.023 38.5585C132.312 38.5585 132.312 38.5585 132.312 38.4141C132.312 38.2697 132.167 38.2697 132.023 38.2697C131.734 38.2697 131.445 38.2697 131.157 38.1253C130.868 37.9809 130.579 37.5477 130.579 36.3924L130.434 29.7496C130.723 30.0384 132.456 32.0602 134.189 33.6486C135.778 35.2371 137.799 37.2589 138.81 38.2697C138.955 38.4141 139.099 38.5585 139.388 38.5585C139.532 38.5585 139.532 38.4141 139.532 38.1253L139.677 28.3055C139.677 27.4391 139.821 27.1503 140.254 27.0059C140.399 27.0059 140.543 27.0059 140.687 27.0059C140.832 27.0059 140.976 27.0059 140.976 26.8615C141.265 26.5726 141.121 26.5726 140.976 26.5726ZM122.781 33.6486H119.893V33.5042L121.337 29.6052L121.481 29.4608L121.626 29.6052L122.781 33.6486C122.925 33.6486 122.925 33.5042 122.781 33.6486Z" fill="#00529B"/>
<path d="M48.2655 9.96459C48.8431 10.2534 49.7096 10.831 49.854 10.831C49.9984 10.831 50.7204 9.96459 51.0093 9.53137L49.4208 8.52051C49.1319 8.80932 48.5543 9.38696 48.4099 9.38696C48.2655 9.38696 47.399 8.80932 46.9658 8.52051C46.5326 8.95373 46.0994 9.53137 45.8105 9.82018C46.2438 10.109 47.1102 10.6866 47.2546 10.6866C47.399 10.6866 47.9767 10.2534 48.2655 9.96459Z" fill="#00529B"/>
<path d="M62.1302 19.6398H65.596C66.318 19.6398 67.7621 18.1957 69.2062 18.1957L72.5276 18.4845C72.672 18.4845 72.672 18.4845 72.672 18.4845C73.1052 17.9069 73.6828 17.1849 74.1161 16.7516C72.8164 16.4628 71.2279 15.8852 70.3614 15.452C69.3506 14.8743 68.4841 14.4411 67.7621 14.0079C67.1845 13.7191 66.7512 13.5747 66.0292 13.5747C65.1627 13.5747 64.1519 14.5855 63.5742 15.452C63.4298 15.5964 63.2854 15.7408 63.2854 15.8852V16.0296C64.1519 15.8852 64.1519 15.5964 64.8739 15.5964C65.7404 15.5964 67.3289 16.3184 68.0509 16.7516C67.7621 17.0405 66.318 17.4737 65.8848 17.4737H61.1193H60.2529H59.8196H58.6644H58.2311H57.0759H56.6426H55.4874H55.0542H53.8989H53.4657H53.3213C52.888 17.4737 52.5992 17.4737 52.4548 17.1849C51.8772 15.1632 51.7328 12.7082 51.4439 10.8309C51.0107 11.4085 50.2887 12.5638 50.2887 12.7082C50.2887 12.8526 50.4331 13.1414 50.4331 13.2858C49.8554 13.5747 49.2778 14.0079 48.7002 14.2967C48.267 14.5855 47.4005 15.0187 47.2561 15.5964C46.9673 16.4628 46.3896 17.7625 46.3896 17.9069V18.1957L49.711 18.7734C50.5775 18.629 50.5775 17.3293 51.1551 17.0405C51.2995 17.6181 51.2995 18.1957 51.5883 18.629C51.5883 18.7734 51.8772 19.0622 52.0216 19.2066C52.166 19.351 52.166 19.351 52.3104 19.351H53.3213H54.9097H55.343H56.4982H56.9315H58.0867H58.52H59.6752H60.1084L62.1302 19.6398ZM51.1551 16.6072H49.9999C49.8555 16.6072 48.8446 16.3184 48.4114 16.174C48.989 15.8852 50.1443 15.5964 50.4331 14.5855C50.4331 14.4411 50.5775 14.2967 50.8663 14.1523C51.0107 14.7299 51.2995 16.0296 51.2995 16.174V16.6072H51.1551Z" fill="#00529B"/>
<path d="M75.8485 23.106C75.7041 23.106 73.9712 22.6728 73.8268 22.6728C73.6824 22.6728 73.3936 22.6728 73.3936 22.9616C73.8268 23.3948 76.8594 24.2613 78.0146 24.2613C80.7584 24.2613 82.2025 19.7846 82.2025 17.4741C82.2025 17.3297 82.0581 16.6076 82.0581 16.1744C82.0581 15.8856 81.9137 15.7412 81.9137 15.4524C81.7692 15.1635 81.0472 13.575 80.1807 13.575C78.8811 13.575 77.437 16.4632 77.437 17.0408C77.437 17.3297 77.437 17.6185 77.437 17.6185C77.437 18.7737 77.5814 19.6402 79.0255 19.6402C80.0363 19.6402 80.7584 19.3514 81.1916 17.7629C81.336 18.0517 81.336 18.3405 81.336 18.4849C81.336 20.5066 77.1482 23.106 75.8485 23.106ZM79.6031 17.3297C79.4587 17.3297 78.3034 17.1853 78.3034 16.752C78.3034 16.1744 79.3143 15.8856 79.6031 15.8856C80.0363 15.8856 80.614 16.1744 80.614 17.0408C80.0363 17.3297 79.8919 17.3297 79.6031 17.3297Z" fill="#00529B"/>
<path d="M99.5319 9.09643C99.3875 8.80761 99.3875 8.5188 99.3875 8.22998C98.6655 9.24084 98.3766 9.81847 97.9434 10.8293C98.2322 11.1181 98.6655 11.2626 98.6655 11.407C98.9543 12.5622 99.2431 14.1507 99.3875 15.0172C99.5319 15.5948 99.6763 16.7501 99.6763 16.8945C99.6763 17.0389 99.6763 17.1833 99.5319 17.6165H96.3549H94.7664H94.3332H93.3223H92.7447C92.3115 17.6165 91.8782 17.3277 91.8782 17.0389C91.445 15.4504 91.0118 13.5731 90.5786 11.6958L89.4233 13.8619C89.4233 14.0063 90.2898 16.4613 90.2898 17.1833C90.2898 17.3277 90.2898 17.3277 90.1454 17.4721H85.5243C85.3799 17.4721 85.2355 17.3277 85.2355 17.1833C85.0911 16.8945 85.0911 16.1724 85.2355 15.7392L85.0911 15.5948C84.8022 16.028 84.5134 16.6057 84.5134 17.0389C84.369 17.7609 84.2246 19.0606 84.2246 19.205C84.2246 19.205 84.369 19.6382 84.6578 19.6382H89.5677C90.1453 19.205 90.0009 18.3386 90.5786 18.1942C90.8674 18.6274 91.0118 19.205 91.1562 19.6382H92.7447H94.3332H94.7664H96.3549H100.254C100.398 19.6382 100.543 19.4938 100.687 19.4938L101.265 16.7501L100.832 12.9955C100.832 12.851 100.832 12.8511 100.832 12.7066C101.12 12.2734 101.554 11.6958 101.842 11.407C101.987 11.2626 102.276 10.9737 102.276 10.6849C101.698 10.3961 101.265 10.1073 100.832 9.81847C100.254 9.52966 99.8207 9.38525 99.5319 9.09643Z" fill="#00529B"/>
<path d="M106.606 8.66455C106.317 8.95337 105.018 10.9751 105.018 11.2639L106.028 19.6396C107.039 18.1955 107.184 17.0402 107.184 15.5962L106.606 8.66455Z" fill="#00529B"/>
<path d="M119.17 15.8846C120.181 15.3069 120.614 14.2961 120.614 13.7185C120.614 12.852 119.17 13.1408 119.17 12.5632C119.17 12.13 120.47 11.6967 120.47 11.5523C120.758 11.1191 120.903 10.5415 121.047 10.1082H120.758C120.036 10.1082 117.87 12.7076 117.87 13.7185C117.87 14.2961 119.025 14.4405 119.314 14.7293C118.592 15.0181 117.581 15.4514 117.004 15.5958L116.859 15.8846C117.148 15.8846 117.581 15.8846 117.726 15.8846C118.159 16.029 118.881 16.029 119.17 15.8846Z" fill="#00529B"/>
<path d="M136.067 11.841C136.355 11.9854 136.644 12.2742 136.789 12.2742C136.933 12.2742 136.933 12.2742 136.933 12.1298C137.366 11.841 137.8 11.5521 138.088 11.2633C138.233 11.1189 138.233 11.1189 138.233 10.9745C138.233 10.8301 136.789 9.53043 136.644 9.53043C136.5 9.53043 136.355 9.67483 136.355 9.67483C135.922 9.96365 135.489 10.3969 135.345 10.6857C135.2 10.8301 135.2 10.8301 135.2 10.9745C135.2 11.1189 135.778 11.5521 136.067 11.841Z" fill="#00529B"/>
<path d="M144.442 19.638H144.875H146.031H146.464H147.619H148.052H149.641H155.128C155.273 18.6272 155.562 16.6055 155.562 16.4611C155.562 15.3058 154.984 14.2949 154.118 13.1397L152.962 15.017C153.54 15.8834 153.973 16.461 154.262 17.6163H149.641H149.208H148.052H147.619H146.464H146.031H144.875H144.442H143.287H142.854H141.698H141.265H139.966H139.532C139.244 17.6163 138.81 17.4719 138.521 17.1831C138.377 17.0387 138.377 16.8943 138.377 16.7499C138.377 16.6055 138.521 15.739 138.521 15.5946V14.2949C137.944 14.8726 137.366 15.3058 137.077 16.0278C136.789 16.461 137.222 17.1831 136.789 17.7607H132.745H131.59H131.301H130.146H129.713H128.557H128.124H126.969H126.536C126.391 17.7607 126.102 17.7607 126.102 17.4719C125.814 15.8834 125.814 13.8617 125.669 12.7064C125.669 12.1288 125.525 11.4068 125.525 10.9735C125.525 10.3959 125.38 9.52945 125.38 8.95181C124.803 9.67385 124.225 10.5403 123.792 11.2623L124.658 17.7607H114.983C114.838 17.7607 114.694 17.6163 114.694 17.6163C113.539 17.3275 113.106 16.6055 113.106 15.8834C113.106 15.739 113.106 15.4502 113.25 15.3058C113.25 15.1614 113.539 14.7281 113.539 14.5837V14.2949H113.394C112.817 14.2949 112.095 16.3166 112.095 17.3275C112.095 17.4719 112.239 18.0495 112.239 18.3384C112.528 19.2048 113.683 19.9269 114.261 19.9269H123.936L124.658 18.6272C124.658 19.0604 124.658 19.638 124.803 19.9269H126.536H128.124H128.557H129.713H130.146H131.301H131.734H133.323H136.5L137.222 18.6272C137.366 19.0604 137.511 19.638 138.088 19.7824C138.233 19.7824 138.233 19.9269 138.377 19.9269H139.388H140.976H141.41H142.565H142.998H144.442V19.638Z" fill="#00529B"/>
<path d="M151.375 23.2485C151.808 23.5373 152.819 24.2594 152.963 24.2594C152.963 24.2594 154.263 23.6817 154.263 23.2485C154.263 23.1041 152.819 21.9488 152.819 21.9488C152.386 21.8044 151.375 23.1041 151.375 23.2485Z" fill="#00529B"/>
<path d="M39.0244 4.61996H11.4424V39.8556H39.0244V4.61996Z" fill="#00529B"/>
<path d="M0.611328 0C4.94358 1.29968 8.98701 2.88817 12.5972 4.62107H16.6407C11.8752 2.59935 6.53207 1.01086 0.611328 0Z" fill="white"/>
<path d="M28.6258 24.8371C28.6258 16.8947 22.4162 9.81867 12.5964 4.61996H11.1523V39.1336C26.604 35.2345 28.6258 28.4474 28.6258 24.8371Z" fill="#00529B"/>
<path d="M11.0085 38.9892V4.61996H3.78809V39.8556H6.96507C8.40915 39.5668 9.85324 39.278 11.0085 38.9892Z" fill="#F3AB40"/>
<path d="M28.6271 24.8371C28.6271 28.5918 26.6054 35.2345 11.1537 39.1336L6.96582 40H12.5977C26.3165 37.8339 35.2699 33.3572 35.2699 24.5483C35.2699 16.6059 28.0494 9.52985 16.6412 4.61996H12.5977C22.4175 9.67426 28.6271 16.8947 28.6271 24.8371Z" fill="white"/>
</svg>
