<svg width="40" height="40" viewBox="0 0 40 40" fill="none" xmlns="http://www.w3.org/2000/svg">
<path d="M0 20C0 8.95431 8.95431 0 20 0C31.0457 0 40 8.95431 40 20C40 31.0457 31.0457 40 20 40C8.95431 40 0 31.0457 0 20Z" fill="#F3F3F3"/>
<path d="M20 24C21.6569 24 23 22.6568 23 21C23 19.3431 21.6569 18 20 18C18.3431 18 17 19.3431 17 21C17 22.6568 18.3431 24 20 24Z" stroke="#00529B" stroke-width="1.5" stroke-linecap="round" stroke-linejoin="round"/>
<path d="M11 18.5651C11 17.9907 11 17.7035 11.074 17.4391C11.1396 17.2048 11.2474 16.9844 11.392 16.7889C11.5553 16.5681 11.782 16.3917 12.2354 16.0391L19.0177 10.764C19.369 10.4907 19.5447 10.3541 19.7387 10.3016C19.9098 10.2553 20.0902 10.2553 20.2613 10.3016C20.4553 10.3541 20.631 10.4907 20.9823 10.764L27.7646 16.0391C28.218 16.3917 28.4447 16.5681 28.608 16.7889C28.7526 16.9844 28.8604 17.2048 28.926 17.4391C29 17.7035 29 17.9907 29 18.5651V25.8C29 26.9201 29 27.4801 28.782 27.908C28.5903 28.2843 28.2843 28.5903 27.908 28.782C27.4802 29 26.9201 29 25.8 29H14.2C13.0799 29 12.5198 29 12.092 28.782C11.7157 28.5903 11.4097 28.2843 11.218 27.908C11 27.4801 11 26.9201 11 25.8V18.5651Z" stroke="#00529B" stroke-width="1.5" stroke-linecap="round" stroke-linejoin="round"/>
</svg>
