<svg width="16" height="16" viewBox="0 0 16 16" fill="none" xmlns="http://www.w3.org/2000/svg">
<path d="M9.33317 1.513V4.26669C9.33317 4.64006 9.33317 4.82675 9.40583 4.96935C9.46975 5.0948 9.57173 5.19678 9.69718 5.2607C9.83978 5.33336 10.0265 5.33336 10.3998 5.33336H13.1535M6.56649 8.00147C6.68395 7.66755 6.9158 7.38598 7.22098 7.20663C7.52615 7.02728 7.88495 6.96172 8.23383 7.02156C8.58271 7.0814 8.89916 7.26278 9.12712 7.53358C9.35508 7.80438 9.47984 8.14712 9.47931 8.5011C9.47931 9.50035 7.98043 9.99998 7.98043 9.99998M7.99984 12H8.0065M9.33317 1.33331H5.8665C4.7464 1.33331 4.18635 1.33331 3.75852 1.5513C3.3822 1.74305 3.07624 2.04901 2.88449 2.42533C2.6665 2.85316 2.6665 3.41321 2.6665 4.53331V11.4666C2.6665 12.5868 2.6665 13.1468 2.88449 13.5746C3.07624 13.951 3.3822 14.2569 3.75852 14.4487C4.18635 14.6666 4.7464 14.6666 5.8665 14.6666H10.1332C11.2533 14.6666 11.8133 14.6666 12.2412 14.4487C12.6175 14.2569 12.9234 13.951 13.1152 13.5746C13.3332 13.1468 13.3332 12.5868 13.3332 11.4666V5.33331L9.33317 1.33331Z" stroke="#00529B" stroke-width="1.5" stroke-linecap="round" stroke-linejoin="round"/>
</svg>
