<svg width="24" height="25" viewBox="0 0 24 25" fill="none" xmlns="http://www.w3.org/2000/svg">
<path d="M4 16.4806C4 15.9019 4.22987 15.347 4.63904 14.9378C5.04821 14.5286 5.60316 14.2988 6.18182 14.2988H8.36364C8.94229 14.2988 9.49724 14.5286 9.90642 14.9378C10.3156 15.347 10.5455 15.9019 10.5455 16.4806V18.6624C10.5455 19.2411 10.3156 19.796 9.90642 20.2052C9.49724 20.6143 8.94229 20.8442 8.36364 20.8442H6.18182C5.60316 20.8442 5.04821 20.6143 4.63904 20.2052C4.22987 19.796 4 19.2411 4 18.6624V16.4806Z" stroke="#0D2B88" stroke-linecap="round" stroke-linejoin="round"/>
<path d="M14.0935 5.48328C13.6843 5.89245 13.4545 6.4474 13.4545 7.02605V9.20787C13.4545 9.78652 13.6843 10.3415 14.0935 10.7506C14.5027 11.1598 15.0576 11.3897 15.6363 11.3897H17.8181C18.3968 11.3897 18.9517 11.1598 19.3609 10.7506C19.7701 10.3415 19.9999 9.78652 19.9999 9.20787V7.02605C19.9999 6.4474 19.7701 5.89245 19.3609 5.48328C18.9517 5.07411 18.3968 4.84424 17.8181 4.84424H15.6363C15.0576 4.84424 14.5027 5.07411 14.0935 5.48328Z" stroke="#0D2B88" stroke-linecap="round" stroke-linejoin="round"/>
<path d="M4.63904 5.48328C4.22987 5.89245 4 6.4474 4 7.02605V9.20787C4 9.78652 4.22987 10.3415 4.63904 10.7506C5.04821 11.1598 5.60316 11.3897 6.18182 11.3897H8.36364C8.94229 11.3897 9.49724 11.1598 9.90641 10.7506C10.3156 10.3415 10.5455 9.78652 10.5455 9.20787V7.02605C10.5455 6.4474 10.3156 5.89245 9.90641 5.48328C9.49724 5.07411 8.94229 4.84424 8.36364 4.84424H6.18182C5.60316 4.84424 5.04821 5.07411 4.63904 5.48328Z" stroke="#0D2B88" stroke-linecap="round" stroke-linejoin="round"/>
<path d="M14.0936 14.9378C13.6844 15.347 13.4545 15.9019 13.4545 16.4806V18.6624C13.4545 19.2411 13.6844 19.796 14.0936 20.2052C14.5028 20.6144 15.0577 20.8442 15.6364 20.8442H17.8182C18.3968 20.8442 18.9518 20.6144 19.361 20.2052C19.7701 19.796 20 19.2411 20 18.6624V16.4806C20 15.9019 19.7701 15.347 19.361 14.9378C18.9518 14.5286 18.3968 14.2988 17.8182 14.2988H15.6364C15.0577 14.2988 14.5028 14.5286 14.0936 14.9378Z" stroke="#0D2B88" stroke-linecap="round" stroke-linejoin="round"/>
</svg>
