<svg width="8" height="12" viewBox="0 0 8 12" fill="none" xmlns="http://www.w3.org/2000/svg">
<path d="M1.06047 5.28795L1.06129 5.2872L6.41211 0.381453C6.61565 0.19484 6.93193 0.208564 7.11855 0.412108C7.30516 0.615652 7.29144 0.931936 7.08789 1.11855L1.76629 5.99751L7.08808 10.8816L6.91904 11.0658L7.08808 10.8816C7.29153 11.0683 7.30509 11.3846 7.11838 11.5881L6.93419 11.419L7.11837 11.5881C6.93166 11.7915 6.61537 11.8051 6.41192 11.6184L6.57926 11.436L6.41192 11.6184L1.06552 6.71165L1.06424 6.7105L1.06417 6.71043C0.641564 6.32865 0.650222 5.66744 1.06047 5.28795Z" fill="#2F2D2D" stroke="#2F2D2D" stroke-width="0.5" stroke-miterlimit="1" stroke-linecap="round" stroke-linejoin="round"/>
</svg>
