<svg width="24" height="24" viewBox="0 0 24 24" fill="none" xmlns="http://www.w3.org/2000/svg">
<rect width="24" height="24" fill="white" fill-opacity="0.01" style="mix-blend-mode:multiply"/>
<path d="M19.4734 18.7412L15.5626 14.8304C16.5023 13.7022 16.971 12.2552 16.8709 10.7903C16.7709 9.32538 16.11 7.95544 15.0257 6.96543C13.9414 5.97542 12.5171 5.44157 11.0492 5.47492C9.58126 5.50828 8.18271 6.10628 7.14446 7.14453C6.10622 8.18277 5.50822 9.58132 5.47486 11.0492C5.44151 12.5172 5.97536 13.9414 6.96537 15.0258C7.95538 16.1101 9.32532 16.771 10.7902 16.871C12.2551 16.971 13.7021 16.5024 14.8303 15.5627L18.7411 19.4735L19.4734 18.7412ZM6.5274 11.188C6.5274 10.2662 6.80073 9.36517 7.31284 8.59875C7.82495 7.83232 8.55283 7.23497 9.40444 6.88222C10.256 6.52947 11.1931 6.43718 12.0972 6.61701C13.0012 6.79684 13.8317 7.24071 14.4835 7.8925C15.1353 8.54429 15.5791 9.37473 15.759 10.2788C15.9388 11.1828 15.8465 12.1199 15.4937 12.9715C15.141 13.8231 14.5436 14.551 13.7772 15.0631C13.0108 15.5752 12.1097 15.8486 11.188 15.8486C9.95232 15.8472 8.76768 15.3557 7.89396 14.482C7.02023 13.6083 6.52877 12.4237 6.5274 11.188Z" fill="#9E9FA7" stroke="#9E9FA7" stroke-width="0.4"/>
</svg>
