<svg width="25" height="24" viewBox="0 0 25 24" fill="none" xmlns="http://www.w3.org/2000/svg">
<mask id="mask0_14_20930" style="mask-type:alpha" maskUnits="userSpaceOnUse" x="0" y="0" width="25" height="24">
<rect x="0.5" width="24" height="24" fill="#D9D9D9"/>
</mask>
<g mask="url(#mask0_14_20930)">
<path d="M18.0023 21C17.3084 21 16.7179 20.7569 16.2308 20.2708C15.7436 19.7847 15.5 19.1945 15.5 18.5C15.5 18.367 15.5115 18.2293 15.5346 18.0868C15.5577 17.9443 15.5923 17.8103 15.6385 17.6846L9.89615 14.1231C9.65128 14.3987 9.36667 14.6138 9.0423 14.7683C8.71795 14.9228 8.37052 15 8 15C7.30555 15 6.71528 14.7572 6.22918 14.2715C5.74306 13.7858 5.5 13.1961 5.5 12.5022C5.5 11.8084 5.74306 11.2179 6.22918 10.7308C6.71528 10.2436 7.30555 10 8 10C8.37052 10 8.71795 10.0772 9.0423 10.2317C9.36667 10.3862 9.65128 10.6013 9.89615 10.8769L15.6385 7.31537C15.5923 7.18974 15.5577 7.05568 15.5346 6.9132C15.5115 6.77072 15.5 6.63298 15.5 6.5C15.5 5.80555 15.7428 5.21527 16.2285 4.72917C16.7142 4.24306 17.3039 4 17.9977 4C18.6916 4 19.2821 4.24283 19.7692 4.7285C20.2564 5.21418 20.5 5.80393 20.5 6.49773C20.5 7.19156 20.2569 7.78206 19.7708 8.26922C19.2847 8.75641 18.6945 9 18 9C17.6295 9 17.2821 8.92276 16.9577 8.76828C16.6333 8.61379 16.3487 8.39872 16.1039 8.12307L10.3616 11.6846C10.4077 11.8103 10.4423 11.9439 10.4654 12.0855C10.4885 12.227 10.5 12.3639 10.5 12.496C10.5 12.6282 10.4885 12.7663 10.4654 12.9106C10.4423 13.0548 10.4077 13.1897 10.3616 13.3154L16.1039 16.8769C16.3487 16.6013 16.6333 16.3862 16.9577 16.2317C17.2821 16.0772 17.6295 16 18 16C18.6945 16 19.2847 16.2428 19.7708 16.7285C20.2569 17.2142 20.5 17.8039 20.5 18.4978C20.5 19.1916 20.2572 19.7821 19.7715 20.2692C19.2858 20.7564 18.6961 21 18.0023 21ZM18 8C18.4115 8 18.7644 7.85288 19.0587 7.55865C19.3529 7.26442 19.5 6.91153 19.5 6.5C19.5 6.08847 19.3529 5.73558 19.0587 5.44135C18.7644 5.14712 18.4115 5 18 5C17.5885 5 17.2356 5.14712 16.9413 5.44135C16.6471 5.73558 16.5 6.08847 16.5 6.5C16.5 6.91153 16.6471 7.26442 16.9413 7.55865C17.2356 7.85288 17.5885 8 18 8ZM8 14C8.41153 14 8.76442 13.8529 9.05865 13.5587C9.35288 13.2644 9.5 12.9115 9.5 12.5C9.5 12.0885 9.35288 11.7356 9.05865 11.4413C8.76442 11.1471 8.41153 11 8 11C7.58847 11 7.23558 11.1471 6.94135 11.4413C6.64712 11.7356 6.5 12.0885 6.5 12.5C6.5 12.9115 6.64712 13.2644 6.94135 13.5587C7.23558 13.8529 7.58847 14 8 14ZM18 20C18.4115 20 18.7644 19.8529 19.0587 19.5587C19.3529 19.2644 19.5 18.9115 19.5 18.5C19.5 18.0885 19.3529 17.7356 19.0587 17.4413C18.7644 17.1471 18.4115 17 18 17C17.5885 17 17.2356 17.1471 16.9413 17.4413C16.6471 17.7356 16.5 18.0885 16.5 18.5C16.5 18.9115 16.6471 19.2644 16.9413 19.5587C17.2356 19.8529 17.5885 20 18 20Z" fill="#4197CB"/>
</g>
</svg>
