<svg width="40" height="40" viewBox="0 0 40 40" fill="none" xmlns="http://www.w3.org/2000/svg">
<path d="M0 20C0 8.95431 8.95431 0 20 0C31.0457 0 40 8.95431 40 20C40 31.0457 31.0457 40 20 40C8.95431 40 0 31.0457 0 20Z" fill="#F3F3F3"/>
<path d="M22 17H19.5C18.6716 17 18 17.6716 18 18.5C18 19.3284 18.6716 20 19.5 20H20.5C21.3284 20 22 20.6716 22 21.5C22 22.3284 21.3284 23 20.5 23H18M20 16V17M20 23V24M26 20H26.01M14 20H14.01M10 16.2L10 23.8C10 24.9201 10 25.4802 10.218 25.908C10.4097 26.2843 10.7157 26.5903 11.092 26.782C11.5198 27 12.0799 27 13.2 27L26.8 27C27.9201 27 28.4802 27 28.908 26.782C29.2843 26.5903 29.5903 26.2843 29.782 25.908C30 25.4802 30 24.9201 30 23.8V16.2C30 15.0799 30 14.5198 29.782 14.092C29.5903 13.7157 29.2843 13.4097 28.908 13.218C28.4802 13 27.9201 13 26.8 13L13.2 13C12.0799 13 11.5198 13 11.092 13.218C10.7157 13.4097 10.4097 13.7157 10.218 14.092C10 14.5198 10 15.0799 10 16.2ZM26.5 20C26.5 20.2761 26.2761 20.5 26 20.5C25.7239 20.5 25.5 20.2761 25.5 20C25.5 19.7239 25.7239 19.5 26 19.5C26.2761 19.5 26.5 19.7239 26.5 20ZM14.5 20C14.5 20.2761 14.2761 20.5 14 20.5C13.7239 20.5 13.5 20.2761 13.5 20C13.5 19.7239 13.7239 19.5 14 19.5C14.2761 19.5 14.5 19.7239 14.5 20Z" stroke="#00529B" stroke-width="1.5" stroke-linecap="round" stroke-linejoin="round"/>
</svg>
