<svg width="16" height="17" viewBox="0 0 16 17" fill="none" xmlns="http://www.w3.org/2000/svg">
<path d="M7.52193 2.80223C7.67559 2.49094 7.75242 2.33529 7.85672 2.28556C7.94746 2.2423 8.05289 2.2423 8.14363 2.28556C8.24793 2.33529 8.32476 2.49094 8.47842 2.80223L9.9362 5.75554C9.98157 5.84744 10.0042 5.89339 10.0374 5.92907C10.0667 5.96066 10.1019 5.98625 10.141 6.00443C10.1852 6.02497 10.2359 6.03238 10.3373 6.0472L13.5982 6.52382C13.9415 6.57401 14.1132 6.59911 14.1927 6.68298C14.2618 6.75595 14.2943 6.85622 14.2812 6.95587C14.266 7.07041 14.1417 7.19147 13.8931 7.43361L11.5345 9.73097C11.4609 9.80258 11.4242 9.83839 11.4004 9.881C11.3794 9.91872 11.366 9.96016 11.3608 10.003C11.3549 10.0514 11.3636 10.102 11.3809 10.2032L11.9375 13.4481C11.9962 13.7903 12.0255 13.9615 11.9704 14.063C11.9224 14.1514 11.8371 14.2133 11.7382 14.2317C11.6246 14.2527 11.4709 14.1719 11.1636 14.0103L8.24841 12.4772C8.15758 12.4295 8.11217 12.4056 8.06432 12.3962C8.02196 12.3879 7.97839 12.3879 7.93602 12.3962C7.88818 12.4056 7.84276 12.4295 7.75193 12.4772L4.83678 14.0103C4.52944 14.1719 4.37577 14.2527 4.26214 14.2317C4.16328 14.2133 4.07798 14.1514 4.02999 14.063C3.97483 13.9615 4.00418 13.7903 4.06288 13.4481L4.61942 10.2032C4.63677 10.102 4.64545 10.0514 4.63958 10.003C4.63438 9.96016 4.6209 9.91872 4.5999 9.881C4.57618 9.83839 4.53941 9.80258 4.46589 9.73097L2.1072 7.43361C1.8586 7.19147 1.73431 7.07041 1.71918 6.95587C1.70602 6.85622 1.73853 6.75595 1.80766 6.68298C1.88712 6.59911 2.05881 6.57401 2.40219 6.52382L5.66304 6.0472C5.76445 6.03238 5.81515 6.02497 5.85931 6.00443C5.89841 5.98625 5.9336 5.96066 5.96295 5.92907C5.9961 5.89339 6.01878 5.84744 6.06415 5.75554L7.52193 2.80223Z" stroke="#C1C1C1" stroke-width="1.5" stroke-linecap="round" stroke-linejoin="round"/>
</svg>
