<svg width="40" height="40" viewBox="0 0 40 40" fill="none" xmlns="http://www.w3.org/2000/svg">
<rect width="40" height="40" rx="20" fill="#00539D" fill-opacity="0.12"/>
<path d="M16 18H16.01M10 15.2L10 19.6745C10 20.1637 10 20.4083 10.0553 20.6385C10.1043 20.8425 10.1851 21.0376 10.2947 21.2166C10.4184 21.4184 10.5914 21.5914 10.9373 21.9373L18.6059 29.6059C19.7939 30.7939 20.388 31.388 21.0729 31.6105C21.6755 31.8063 22.3245 31.8063 22.927 31.6105C23.612 31.388 24.2061 30.7939 25.3941 29.6059L27.6059 27.3941C28.7939 26.2061 29.388 25.612 29.6105 24.927C29.8063 24.3245 29.8063 23.6755 29.6105 23.0729C29.388 22.388 28.7939 21.7939 27.6059 20.6059L19.9373 12.9373C19.5914 12.5914 19.4184 12.4184 19.2166 12.2947C19.0376 12.1851 18.8425 12.1043 18.6385 12.0553C18.4083 12 18.1637 12 17.6745 12L13.2 12C12.0799 12 11.5198 12 11.092 12.218C10.7157 12.4097 10.4097 12.7157 10.218 13.092C10 13.5198 10 14.0799 10 15.2ZM16.5 18C16.5 18.2761 16.2761 18.5 16 18.5C15.7239 18.5 15.5 18.2761 15.5 18C15.5 17.7239 15.7239 17.5 16 17.5C16.2761 17.5 16.5 17.7239 16.5 18Z" stroke="#00529B" stroke-width="2" stroke-linecap="round" stroke-linejoin="round"/>
</svg>
