<svg width="14" height="12" viewBox="0 0 14 12" fill="none" xmlns="http://www.w3.org/2000/svg">
<path d="M13.9252 6.00046C13.9252 6.15219 13.8644 6.2977 13.7562 6.40499C13.648 6.51227 13.5012 6.57255 13.3481 6.57255H2.04519L6.2543 10.7445C6.30792 10.7976 6.35045 10.8607 6.37947 10.9302C6.40849 10.9996 6.42342 11.0741 6.42342 11.1492C6.42342 11.2244 6.40849 11.2988 6.37947 11.3683C6.35045 11.4377 6.30792 11.5008 6.2543 11.554C6.20069 11.6071 6.13703 11.6493 6.06698 11.6781C5.99692 11.7068 5.92184 11.7216 5.84601 11.7216C5.77019 11.7216 5.6951 11.7068 5.62505 11.6781C5.555 11.6493 5.49134 11.6071 5.43773 11.554L0.243958 6.40521C0.190303 6.35208 0.147738 6.28898 0.118696 6.21953C0.0896551 6.15008 0.074707 6.07564 0.074707 6.00046C0.074707 5.92528 0.0896551 5.85084 0.118696 5.78139C0.147738 5.71194 0.190303 5.64884 0.243958 5.59571L5.43773 0.44695C5.54601 0.339603 5.69288 0.279297 5.84601 0.279297C5.99915 0.279297 6.14602 0.339603 6.2543 0.44695C6.36259 0.554296 6.42342 0.699889 6.42342 0.851699C6.42342 1.00351 6.36259 1.1491 6.2543 1.25645L2.04519 5.42838H13.3481C13.5012 5.42838 13.648 5.48865 13.7562 5.59594C13.8644 5.70322 13.9252 5.84873 13.9252 6.00046Z" fill="#131B20"/>
</svg>
