<svg width="40" height="41" viewBox="0 0 40 41" fill="none" xmlns="http://www.w3.org/2000/svg">
<rect y="0.5" width="40" height="40" rx="20" fill="#00539D" fill-opacity="0.2"/>
<path d="M14 30H17M23 30H26M25.5 15.5V23.5M11 15.2L11 23.8C11 24.9201 11 25.4802 11.218 25.908C11.4097 26.2843 11.7157 26.5903 12.092 26.782C12.5198 27 13.0799 27 14.2 27L25.8 27C26.9201 27 27.4802 27 27.908 26.782C28.2843 26.5903 28.5903 26.2843 28.782 25.908C29 25.4802 29 24.9201 29 23.8V15.2C29 14.0799 29 13.5198 28.782 13.092C28.5903 12.7157 28.2843 12.4097 27.908 12.218C27.4802 12 26.9201 12 25.8 12L14.2 12C13.0799 12 12.5198 12 12.092 12.218C11.7157 12.4097 11.4097 12.7157 11.218 13.092C11 13.5198 11 14.0799 11 15.2ZM19.5 19.5C19.5 20.8807 18.3807 22 17 22C15.6193 22 14.5 20.8807 14.5 19.5C14.5 18.1193 15.6193 17 17 17C18.3807 17 19.5 18.1193 19.5 19.5Z" stroke="#00529B" stroke-width="2" stroke-linecap="round" stroke-linejoin="round"/>
</svg>
