<svg width="64" height="65" viewBox="0 0 64 65" fill="none" xmlns="http://www.w3.org/2000/svg">
<circle cx="32" cy="32.1621" r="32" fill="#F3F3F3"/>
<path d="M26.7998 44.4568C24.9466 41.8121 23.8564 38.5946 23.8564 35.1204C23.8564 30.6212 27.5017 26.9746 31.9981 26.9746C36.4946 26.9746 40.1398 30.6212 40.1398 35.1204" stroke="#00529B" stroke-width="1.5" stroke-linecap="round" stroke-linejoin="round"/>
<path d="M26.8003 44.4568C24.9471 41.8121 23.8569 38.5946 23.8569 35.1204C23.8569 30.6212 27.5022 26.9746 31.9986 26.9746C36.4951 26.9746 40.1403 30.6212 40.1403 35.1204" stroke="#00529B" stroke-width="2" stroke-linecap="round" stroke-linejoin="round"/>
<path d="M40.5812 43.2442C40.4346 43.2523 40.2907 43.2659 40.1427 43.2659C35.6462 43.2659 32.001 39.6193 32.001 35.1201" stroke="#00529B" stroke-width="1.5" stroke-linecap="round" stroke-linejoin="round"/>
<path d="M40.5817 43.2447C40.4351 43.2528 40.2911 43.2664 40.1432 43.2664C35.6467 43.2664 32.0015 39.6198 32.0015 35.1206" stroke="#00529B" stroke-width="2" stroke-linecap="round" stroke-linejoin="round"/>
<path d="M33.6925 45.4955C30.2333 43.3382 27.9294 39.4989 27.9294 35.1205C27.9294 32.8709 29.7527 31.0476 32.0009 31.0476C34.2492 31.0476 36.0725 32.8709 36.0725 35.1205C36.0725 37.3701 37.8958 39.1934 40.144 39.1934C42.3922 39.1934 44.2155 37.3701 44.2155 35.1205C44.2155 28.3717 38.747 22.9019 32.0023 22.9019C25.2576 22.9019 19.7891 28.3717 19.7891 35.1205C19.7891 36.6248 19.9574 38.0897 20.2669 39.5016" stroke="#00529B" stroke-width="1.5" stroke-linecap="round" stroke-linejoin="round"/>
<path d="M33.6925 45.4955C30.2333 43.3382 27.9294 39.4989 27.9294 35.1205C27.9294 32.8709 29.7527 31.0476 32.0009 31.0476C34.2492 31.0476 36.0725 32.8709 36.0725 35.1205C36.0725 37.3701 37.8958 39.1934 40.144 39.1934C42.3922 39.1934 44.2155 37.3701 44.2155 35.1205C44.2155 28.3717 38.747 22.9019 32.0023 22.9019C25.2576 22.9019 19.7891 28.3717 19.7891 35.1205C19.7891 36.6248 19.9574 38.0897 20.2669 39.5016" stroke="#00529B" stroke-width="2" stroke-linecap="round" stroke-linejoin="round"/>
<path d="M43.3677 23.9795C40.5913 20.8257 36.532 18.8286 32.0002 18.8286C27.4685 18.8286 23.4092 20.8257 20.6328 23.9795" stroke="#00529B" stroke-width="1.5" stroke-linecap="round" stroke-linejoin="round"/>
<path d="M43.3677 23.9795C40.5913 20.8257 36.532 18.8286 32.0002 18.8286C27.4685 18.8286 23.4092 20.8257 20.6328 23.9795" stroke="#00529B" stroke-width="2" stroke-linecap="round" stroke-linejoin="round"/>
</svg>
