<svg width="12" height="12" viewBox="0 0 12 12" fill="none" xmlns="http://www.w3.org/2000/svg">
<path d="M2.96482 3.50301C2.64532 3.6914 2.26809 3.75679 1.90383 3.68693C1.53957 3.61707 1.21329 3.41676 0.986153 3.12354C0.759018 2.83032 0.646622 2.46433 0.670032 2.09417C0.693443 1.72401 0.851053 1.3751 1.11332 1.11283C1.37558 0.850565 1.7245 0.692955 2.09466 0.669544C2.46482 0.646134 2.83081 0.75853 3.12403 0.985664C3.41725 1.2128 3.61756 1.53908 3.68742 1.90334C3.75728 2.2676 3.69188 2.64483 3.5035 2.96433L5.22621 4.68628C5.46069 4.54796 5.72809 4.47532 6.00033 4.47599C6.28224 4.47599 6.54739 4.55294 6.77444 4.68704L8.49639 2.96433C8.308 2.64483 8.24261 2.2676 8.31247 1.90334C8.38233 1.53908 8.58264 1.2128 8.87586 0.985664C9.16908 0.75853 9.53507 0.646134 9.90523 0.669544C10.2754 0.692955 10.6243 0.850565 10.8866 1.11283C11.1488 1.3751 11.3064 1.72401 11.3299 2.09417C11.3533 2.46433 11.2409 2.83032 11.0137 3.12354C10.7866 3.41676 10.4603 3.61707 10.0961 3.68693C9.7318 3.75679 9.35457 3.6914 9.03507 3.50301L7.31312 5.22572C7.45198 5.46006 7.52525 5.72744 7.52525 5.99984C7.52525 6.27223 7.45198 6.53961 7.31312 6.77395L9.03583 8.4959C9.35533 8.30752 9.73256 8.24212 10.0968 8.31198C10.4611 8.38184 10.7874 8.58215 11.0145 8.87537C11.2416 9.16859 11.354 9.53458 11.3306 9.90474C11.3072 10.2749 11.1496 10.6238 10.8873 10.8861C10.6251 11.1483 10.2762 11.306 9.90599 11.3294C9.53583 11.3528 9.16984 11.2404 8.87662 11.0132C8.58341 10.7861 8.38309 10.4598 8.31323 10.0956C8.24338 9.73131 8.30877 9.35408 8.49715 9.03458L6.77444 7.31263C6.54004 7.45122 6.27263 7.52412 6.00033 7.52368C5.72802 7.52412 5.46062 7.45122 5.22621 7.31263L3.50426 9.03534C3.69265 9.35484 3.75804 9.73207 3.68818 10.0963C3.61832 10.4606 3.41801 10.7869 3.12479 11.014C2.83157 11.2411 2.46558 11.3535 2.09542 11.3301C1.72526 11.3067 1.37635 11.1491 1.11408 10.8868C0.851815 10.6246 0.694205 10.2757 0.670794 9.9055C0.647384 9.53534 0.75978 9.16935 0.986915 8.87613C1.21405 8.58292 1.54033 8.3826 1.90459 8.31275C2.26885 8.24289 2.64609 8.30828 2.96558 8.49666L4.68753 6.77395C4.54894 6.53955 4.47604 6.27215 4.47648 5.99984C4.47648 5.71793 4.55343 5.45278 4.68753 5.22572L2.96482 3.50301ZM2.95263 2.19022C2.95263 1.98814 2.87236 1.79434 2.72947 1.65146C2.58658 1.50857 2.39278 1.42829 2.19071 1.42829C1.98863 1.42829 1.79483 1.50857 1.65194 1.65146C1.50905 1.79434 1.42878 1.98814 1.42878 2.19022C1.42878 2.39229 1.50905 2.58609 1.65194 2.72898C1.79483 2.87187 1.98863 2.95214 2.19071 2.95214C2.39278 2.95214 2.58658 2.87187 2.72947 2.72898C2.87236 2.58609 2.95263 2.39229 2.95263 2.19022ZM2.95263 9.80946C2.95263 9.60738 2.87236 9.41358 2.72947 9.2707C2.58658 9.12781 2.39278 9.04753 2.19071 9.04753C1.98863 9.04753 1.79483 9.12781 1.65194 9.2707C1.50905 9.41358 1.42878 9.60738 1.42878 9.80946C1.42878 10.0115 1.50905 10.2053 1.65194 10.3482C1.79483 10.4911 1.98863 10.5714 2.19071 10.5714C2.39278 10.5714 2.58658 10.4911 2.72947 10.3482C2.87236 10.2053 2.95263 10.0115 2.95263 9.80946ZM9.80995 2.95214C10.012 2.95214 10.2058 2.87187 10.3487 2.72898C10.4916 2.58609 10.5719 2.39229 10.5719 2.19022C10.5719 1.98814 10.4916 1.79434 10.3487 1.65146C10.2058 1.50857 10.012 1.42829 9.80995 1.42829C9.60787 1.42829 9.41407 1.50857 9.27118 1.65146C9.12829 1.79434 9.04802 1.98814 9.04802 2.19022C9.04802 2.39229 9.12829 2.58609 9.27118 2.72898C9.41407 2.87187 9.60787 2.95214 9.80995 2.95214ZM10.5719 9.80946C10.5719 9.60738 10.4916 9.41358 10.3487 9.2707C10.2058 9.12781 10.012 9.04753 9.80995 9.04753C9.60787 9.04753 9.41407 9.12781 9.27118 9.2707C9.12829 9.41358 9.04802 9.60738 9.04802 9.80946C9.04802 10.0115 9.12829 10.2053 9.27118 10.3482C9.41407 10.4911 9.60787 10.5714 9.80995 10.5714C10.012 10.5714 10.2058 10.4911 10.3487 10.3482C10.4916 10.2053 10.5719 10.0115 10.5719 9.80946ZM6.76225 5.99984C6.76225 5.79776 6.68198 5.60396 6.53909 5.46108C6.3962 5.31819 6.2024 5.23791 6.00033 5.23791C5.79825 5.23791 5.60445 5.31819 5.46156 5.46108C5.31868 5.60396 5.2384 5.79776 5.2384 5.99984C5.2384 6.20191 5.31868 6.39571 5.46156 6.5386C5.60445 6.68149 5.79825 6.76176 6.00033 6.76176C6.2024 6.76176 6.3962 6.68149 6.53909 6.5386C6.68198 6.39571 6.76225 6.20191 6.76225 5.99984Z" fill="#F0F2FC"/>
<circle cx="6.0006" cy="5.85265" r="1.12892" fill="#F0F2FC" stroke="#F0F2FC" stroke-width="0.8"/>
</svg>
