<svg width="10" height="12" viewBox="0 0 10 12" fill="none" xmlns="http://www.w3.org/2000/svg">
<path d="M4.33398 7.99999H5.66732V6.33332H7.33398V4.99999H5.66732V3.33332H4.33398V4.99999H2.66732V6.33332H4.33398V7.99999ZM5.00065 11.9744C3.66133 11.5769 2.54872 10.7656 1.66283 9.54037C0.776934 8.31516 0.333984 6.93503 0.333984 5.39999V1.79485L5.00065 0.0512695L9.66732 1.79485V5.39999C9.66732 6.93503 9.22437 8.31516 8.33847 9.54037C7.45258 10.7656 6.33997 11.5769 5.00065 11.9744ZM5.00065 11.2667C6.15621 10.9 7.11176 10.1667 7.86732 9.06665C8.62287 7.96665 9.00065 6.74443 9.00065 5.39999V2.24999L5.00065 0.762802L1.00065 2.24999V5.39999C1.00065 6.74443 1.37843 7.96665 2.13398 9.06665C2.88954 10.1667 3.8451 10.9 5.00065 11.2667Z" fill="#F8F9FD"/>
</svg>
