<svg width="16" height="16" viewBox="0 0 16 16" fill="none" xmlns="http://www.w3.org/2000/svg">
<mask id="mask0_7598_208573" style="mask-type:alpha" maskUnits="userSpaceOnUse" x="0" y="0" width="16" height="16">
<rect width="16" height="16" fill="#D9D9D9"/>
</mask>
<g mask="url(#mask0_7598_208573)">
<path d="M9.19741 13.8691C9.24014 13.8862 9.2786 13.8947 9.31279 13.8947C9.34698 13.8947 9.38544 13.8862 9.42817 13.8691L13.3051 12.6742C13.2923 12.4717 13.2318 12.3257 13.1236 12.2364C13.0154 12.1471 12.893 12.1024 12.7564 12.1024H9.59327C9.31142 12.1024 9.05596 12.0913 8.82689 12.0691C8.59783 12.0469 8.36322 11.9939 8.12306 11.9101L6.98074 11.5422C6.88957 11.5123 6.82405 11.4524 6.78416 11.3627C6.74427 11.2729 6.73928 11.184 6.76921 11.096C6.79912 11.008 6.85617 10.9437 6.94036 10.9031C7.02455 10.8625 7.1128 10.8571 7.20511 10.887L8.23844 11.2614C8.45296 11.334 8.69035 11.3806 8.95061 11.4011C9.21086 11.4217 9.5328 11.4332 9.91642 11.4358H10.0897C10.0897 11.2281 10.0515 11.0601 9.97497 10.9319C9.89847 10.8037 9.78886 10.7144 9.64612 10.664L5.81022 9.25627C5.78459 9.24772 5.76109 9.24131 5.73972 9.23705C5.71836 9.23277 5.69485 9.23063 5.66921 9.23063H4.26921V12.4358L9.19741 13.8691ZM9.02689 14.5281L4.26921 13.1358C4.20596 13.399 4.07156 13.6088 3.86601 13.7652C3.66045 13.9217 3.43588 13.9999 3.19229 13.9999H2.67946C2.3833 13.9999 2.12977 13.8944 1.91887 13.6835C1.70798 13.4726 1.60254 13.2191 1.60254 12.9229V9.64088C1.60254 9.34473 1.70798 9.0912 1.91887 8.88032C2.12977 8.66942 2.3833 8.56396 2.67946 8.56396H5.65444C5.71642 8.56396 5.78031 8.57101 5.84612 8.58511C5.91193 8.59921 5.97305 8.61566 6.02946 8.63446L9.88202 10.046C10.1205 10.1366 10.3258 10.2994 10.4981 10.5345C10.6703 10.7695 10.7564 11.0699 10.7564 11.4358H12.7564C13.1581 11.4358 13.4658 11.5614 13.6795 11.8127C13.8931 12.064 14 12.3828 14 12.7691C14 12.9024 13.9639 13.015 13.8916 13.1069C13.8194 13.1988 13.7141 13.2678 13.5756 13.314L9.65254 14.5242C9.55596 14.5516 9.45382 14.5674 9.34612 14.5717C9.23843 14.5759 9.13202 14.5614 9.02689 14.5281ZM2.26921 12.9229C2.26921 13.0426 2.30767 13.1409 2.38459 13.2178C2.46151 13.2947 2.5598 13.3332 2.67946 13.3332H3.19229C3.31194 13.3332 3.41023 13.3011 3.48716 13.237C3.56408 13.1729 3.60254 13.0682 3.60254 12.9229V9.23063H2.67946C2.5598 9.23063 2.46151 9.26909 2.38459 9.34602C2.30767 9.42294 2.26921 9.52123 2.26921 9.64088V12.9229Z" fill="#F8F9FD"/>
<path d="M9.90506 6.63141C10.7576 6.63141 11.4488 5.94026 11.4488 5.08768C11.4488 4.2351 10.7576 3.54395 9.90506 3.54395C9.05248 3.54395 8.36133 4.2351 8.36133 5.08768C8.36133 5.94026 9.05248 6.63141 9.90506 6.63141Z" stroke="#F8F9FD" stroke-width="0.8" stroke-linecap="round" stroke-linejoin="round"/>
</g>
</svg>
