<svg width="24" height="24" viewBox="0 0 24 24" fill="none" xmlns="http://www.w3.org/2000/svg">
<path d="M6.48 5.88C6.32087 5.88 6.16826 5.94321 6.05574 6.05574C5.94321 6.16826 5.88 6.32087 5.88 6.48C5.88 6.63913 5.94321 6.79174 6.05574 6.90426C6.16826 7.01679 6.32087 7.08 6.48 7.08H16.8C16.9591 7.08 17.1117 7.01679 17.2243 6.90426C17.3368 6.79174 17.4 6.63913 17.4 6.48C17.4 6.32087 17.3368 6.16826 17.2243 6.05574C17.1117 5.94321 16.9591 5.88 16.8 5.88H6.48ZM11.16 10.56C11.16 10.2288 11.4288 9.96 11.76 9.96H16.8C16.9591 9.96 17.1117 10.0232 17.2243 10.1357C17.3368 10.2483 17.4 10.4009 17.4 10.56C17.4 10.7191 17.3368 10.8717 17.2243 10.9843C17.1117 11.0968 16.9591 11.16 16.8 11.16H11.76C11.4288 11.16 11.16 10.8912 11.16 10.56ZM11.76 15C11.6009 15 11.4483 15.0632 11.3357 15.1757C11.2232 15.2883 11.16 15.4409 11.16 15.6C11.16 15.7591 11.2232 15.9117 11.3357 16.0243C11.4483 16.1368 11.6009 16.2 11.76 16.2H16.8C16.9591 16.2 17.1117 16.1368 17.2243 16.0243C17.3368 15.9117 17.4 15.7591 17.4 15.6C17.4 15.4409 17.3368 15.2883 17.2243 15.1757C17.1117 15.0632 16.9591 15 16.8 15H11.76ZM6 3C5.20435 3 4.44129 3.31607 3.87868 3.87868C3.31607 4.44129 3 5.20435 3 6V17.28C3 18.0757 3.31607 18.8387 3.87868 19.4013C4.44129 19.9639 5.20435 20.28 6 20.28H17.28C18.0757 20.28 18.8387 19.9639 19.4013 19.4013C19.9639 18.8387 20.28 18.0757 20.28 17.28V6C20.28 5.20435 19.9639 4.44129 19.4013 3.87868C18.8387 3.31607 18.0757 3 17.28 3H6ZM4.2 6C4.2 5.52261 4.38964 5.06477 4.72721 4.72721C5.06477 4.38964 5.52261 4.2 6 4.2H17.28C17.7574 4.2 18.2152 4.38964 18.5528 4.72721C18.8904 5.06477 19.08 5.52261 19.08 6V17.28C19.08 17.7574 18.8904 18.2152 18.5528 18.5528C18.2152 18.8904 17.7574 19.08 17.28 19.08H6C5.52261 19.08 5.06477 18.8904 4.72721 18.5528C4.38964 18.2152 4.2 17.7574 4.2 17.28V6Z" fill="#4197CB"/>
<path fill-rule="evenodd" clip-rule="evenodd" d="M10.1999 10.44C10.1999 10.7237 10.144 11.0046 10.0355 11.2666C9.92691 11.5287 9.76781 11.7668 9.56723 11.9674C9.36666 12.168 9.12854 12.3271 8.86648 12.4356C8.60442 12.5442 8.32354 12.6 8.03988 12.6C7.75623 12.6 7.47535 12.5442 7.21329 12.4356C6.95122 12.3271 6.71311 12.168 6.51253 11.9674C6.31196 11.7668 6.15285 11.5287 6.0443 11.2666C5.93575 11.0046 5.87988 10.7237 5.87988 10.44C5.87988 9.86716 6.10745 9.31776 6.51253 8.91268C6.91761 8.5076 7.46702 8.28003 8.03988 8.28003C8.61275 8.28003 9.16215 8.5076 9.56723 8.91268C9.97231 9.31776 10.1999 9.86716 10.1999 10.44ZM8.03988 17.88C8.61275 17.88 9.16215 17.6525 9.56723 17.2474C9.97231 16.8423 10.1999 16.2929 10.1999 15.72C10.1999 15.1472 9.97231 14.5978 9.56723 14.1927C9.16215 13.7876 8.61275 13.56 8.03988 13.56C7.46702 13.56 6.91761 13.7876 6.51253 14.1927C6.10745 14.5978 5.87988 15.1472 5.87988 15.72C5.87988 16.2929 6.10745 16.8423 6.51253 17.2474C6.91761 17.6525 7.46702 17.88 8.03988 17.88ZM8.99988 10.44C8.99988 10.1854 8.89874 9.94124 8.71871 9.76121C8.53867 9.58117 8.29449 9.48003 8.03988 9.48003C7.78527 9.48003 7.5411 9.58117 7.36106 9.76121C7.18103 9.94124 7.07988 10.1854 7.07988 10.44C7.07988 10.6946 7.18103 10.9388 7.36106 11.1189C7.5411 11.2989 7.78527 11.4 8.03988 11.4C8.29449 11.4 8.53867 11.2989 8.71871 11.1189C8.89874 10.9388 8.99988 10.6946 8.99988 10.44ZM8.03988 16.68C7.78527 16.68 7.5411 16.5789 7.36106 16.3989C7.18103 16.2188 7.07988 15.9746 7.07988 15.72C7.07988 15.4654 7.18103 15.2212 7.36106 15.0412C7.5411 14.8612 7.78527 14.76 8.03988 14.76C8.29449 14.76 8.53867 14.8612 8.71871 15.0412C8.89874 15.2212 8.99988 15.4654 8.99988 15.72C8.99988 15.9746 8.89874 16.2188 8.71871 16.3989C8.53867 16.5789 8.29449 16.68 8.03988 16.68Z" fill="#3DAE2B"/>
</svg>
