<svg width="24" height="24" viewBox="0 0 24 24" fill="none" xmlns="http://www.w3.org/2000/svg">
<path d="M5.48438 17.3806C5.31706 17.2247 5.09575 17.1398 4.86708 17.1439C4.63842 17.1479 4.42024 17.2405 4.25852 17.4022C4.09681 17.564 4.00417 17.7821 4.00014 18.0108C3.9961 18.2395 4.08098 18.4608 4.23689 18.6281L6.59064 20.9819C6.75614 21.1471 6.98048 21.24 7.21439 21.24C7.44829 21.24 7.67263 21.1471 7.83813 20.9819L10.1919 18.6281C10.2786 18.5473 10.3482 18.4499 10.3964 18.3416C10.4446 18.2333 10.4706 18.1164 10.4727 17.9979C10.4748 17.8794 10.453 17.7617 10.4086 17.6518C10.3642 17.5419 10.2981 17.442 10.2143 17.3582C10.1305 17.2744 10.0306 17.2083 9.92072 17.1639C9.81082 17.1195 9.6931 17.0977 9.57458 17.0998C9.45607 17.1019 9.33919 17.1279 9.23092 17.1761C9.12264 17.2243 9.0252 17.2939 8.94439 17.3806L8.09704 18.228V6.23562C8.09704 6.00152 8.00405 5.77701 7.83852 5.61148C7.67299 5.44595 7.44848 5.35296 7.21439 5.35296C6.98029 5.35296 6.75579 5.44595 6.59026 5.61148C6.42473 5.77701 6.33173 6.00152 6.33173 6.23562L6.33173 18.228L5.48438 17.3806Z" fill="#4197CB"/>
<path d="M14.2757 7.1175C14.0418 7.1175 13.8174 7.02466 13.6519 6.85937C13.4866 6.69387 13.3938 6.46953 13.3938 6.23562C13.3938 6.00172 13.4866 5.77738 13.6519 5.61188L16.0057 3.25813C16.1712 3.09284 16.3955 3 16.6294 3C16.8633 3 17.0877 3.09284 17.2532 3.25813L19.6069 5.61188C19.6936 5.69269 19.7632 5.79013 19.8114 5.8984C19.8597 6.00667 19.8856 6.12356 19.8877 6.24207C19.8898 6.36058 19.868 6.47831 19.8236 6.58821C19.7792 6.69812 19.7131 6.79796 19.6293 6.88177C19.5455 6.96559 19.4457 7.03166 19.3358 7.07606C19.2259 7.12045 19.1081 7.14225 18.9896 7.14016C18.8711 7.13807 18.7542 7.11213 18.646 7.06389C18.5377 7.01564 18.4402 6.94609 18.3594 6.85937L17.5121 6.01202V18.0044C17.5121 18.2385 17.4191 18.463 17.2536 18.6285C17.088 18.794 16.8635 18.887 16.6294 18.887C16.3953 18.887 16.1708 18.794 16.0053 18.6285C15.8398 18.463 15.7468 18.2385 15.7468 18.0044V6.01202L14.8994 6.85937C14.7339 7.02466 14.5096 7.1175 14.2757 7.1175Z" fill="#3DAE2B"/>
</svg>
