<svg width="24" height="24" viewBox="0 0 24 24" fill="none" xmlns="http://www.w3.org/2000/svg">
<path d="M4 15.6363C4 15.0577 4.22987 14.5027 4.63904 14.0936C5.04821 13.6844 5.60316 13.4545 6.18182 13.4545H8.36364C8.94229 13.4545 9.49724 13.6844 9.90642 14.0936C10.3156 14.5027 10.5455 15.0577 10.5455 15.6363V17.8182C10.5455 18.3968 10.3156 18.9518 9.90642 19.3609C9.49724 19.7701 8.94229 20 8.36364 20H6.18182C5.60316 20 5.04821 19.7701 4.63904 19.3609C4.22987 18.9518 4 18.3968 4 17.8182V15.6363Z" stroke="#3DAE2B" stroke-width="1.5" stroke-linecap="round" stroke-linejoin="round"/>
<path d="M14.0936 4.63904C13.6845 5.04821 13.4546 5.60316 13.4546 6.18182V8.36363C13.4546 8.94229 13.6845 9.49724 14.0936 9.90641C14.5028 10.3156 15.0578 10.5454 15.6364 10.5454H17.8182C18.3969 10.5454 18.9518 10.3156 19.361 9.90641C19.7702 9.49724 20 8.94229 20 8.36363V6.18182C20 5.60316 19.7702 5.04821 19.361 4.63904C18.9518 4.22987 18.3969 4 17.8182 4H15.6364C15.0578 4 14.5028 4.22987 14.0936 4.63904Z" stroke="#3DAE2B" stroke-width="1.5" stroke-linecap="round" stroke-linejoin="round"/>
<path d="M4.63904 4.63904C4.22987 5.04821 4 5.60316 4 6.18182V8.36363C4 8.94229 4.22987 9.49724 4.63904 9.90641C5.04821 10.3156 5.60316 10.5454 6.18182 10.5454H8.36364C8.94229 10.5454 9.49724 10.3156 9.90641 9.90641C10.3156 9.49724 10.5455 8.94229 10.5455 8.36363V6.18182C10.5455 5.60316 10.3156 5.04821 9.90641 4.63904C9.49724 4.22987 8.94229 4 8.36364 4H6.18182C5.60316 4 5.04821 4.22987 4.63904 4.63904Z" stroke="#4197CB" stroke-width="1.5" stroke-linecap="round" stroke-linejoin="round"/>
<path d="M14.0936 14.0936C13.6844 14.5027 13.4545 15.0577 13.4545 15.6364V17.8182C13.4545 18.3968 13.6844 18.9518 14.0936 19.3609C14.5028 19.7701 15.0577 20 15.6364 20H17.8182C18.3968 20 18.9518 19.7701 19.361 19.3609C19.7701 18.9518 20 18.3968 20 17.8182V15.6364C20 15.0577 19.7701 14.5027 19.361 14.0936C18.9518 13.6844 18.3968 13.4545 17.8182 13.4545H15.6364C15.0577 13.4545 14.5028 13.6844 14.0936 14.0936Z" stroke="#4197CB" stroke-width="1.5" stroke-linecap="round" stroke-linejoin="round"/>
</svg>
