<svg width="14" height="16" viewBox="0 0 14 16" fill="none" xmlns="http://www.w3.org/2000/svg">
<path d="M2.61537 15.9997C2.16794 15.9997 1.78685 15.8424 1.4721 15.5276C1.15737 15.2129 1 14.8318 1 14.3843V1.99972H0V0.999719H4V0.230469H10V0.999719H14V1.99972H13V14.3843C13 14.8446 12.8458 15.2289 12.5375 15.5372C12.2292 15.8456 11.8449 15.9997 11.3846 15.9997H2.61537ZM12 1.99972H2V14.3843C2 14.5638 2.05769 14.7113 2.17308 14.8266C2.28846 14.942 2.43589 14.9997 2.61537 14.9997H11.3846C11.5385 14.9997 11.6795 14.9356 11.8077 14.8074C11.9359 14.6792 12 14.5382 12 14.3843V1.99972ZM4.80768 12.9997H5.8077V3.99972H4.80768V12.9997ZM8.1923 12.9997H9.19232V3.99972H8.1923V12.9997Z" fill="#0D2B88"/>
</svg>
