<svg width="10" height="12" viewBox="0 0 10 12" fill="none" xmlns="http://www.w3.org/2000/svg">
<path d="M3.00016 9.66667H7.00016C7.09504 9.66667 7.17431 9.63483 7.23798 9.57115C7.30166 9.50748 7.3335 9.42821 7.3335 9.33333C7.3335 9.23846 7.30166 9.15918 7.23798 9.09552C7.17431 9.03184 7.09504 9 7.00016 9H3.00016C2.90529 9 2.82601 9.03184 2.76235 9.09552C2.69867 9.15918 2.66683 9.23846 2.66683 9.33333C2.66683 9.42821 2.69867 9.50748 2.76235 9.57115C2.82601 9.63483 2.90529 9.66667 3.00016 9.66667ZM3.00016 7H7.00016C7.09504 7 7.17431 6.96816 7.23798 6.90448C7.30166 6.84082 7.3335 6.76154 7.3335 6.66667C7.3335 6.57179 7.30166 6.49252 7.23798 6.42885C7.17431 6.36517 7.09504 6.33333 7.00016 6.33333H3.00016C2.90529 6.33333 2.82601 6.36517 2.76235 6.42885C2.69867 6.49252 2.66683 6.57179 2.66683 6.66667C2.66683 6.76154 2.69867 6.84082 2.76235 6.90448C2.82601 6.96816 2.90529 7 3.00016 7ZM1.41041 12C1.10358 12 0.847385 11.8972 0.641829 11.6917C0.436274 11.4861 0.333496 11.2299 0.333496 10.9231V1.07692C0.333496 0.770083 0.436274 0.513889 0.641829 0.308333C0.847385 0.102778 1.10358 0 1.41041 0H6.2194C6.36299 0 6.50251 0.0290614 6.63798 0.0871836C6.77345 0.145295 6.88947 0.222644 6.98606 0.319233L9.3476 2.68077C9.44419 2.77736 9.52153 2.89338 9.57965 3.02885C9.63777 3.16432 9.66683 3.30384 9.66683 3.44743V10.9231C9.66683 11.2299 9.56405 11.4861 9.3585 11.6917C9.15294 11.8972 8.89675 12 8.58991 12H1.41041ZM6.3335 2.79488V0.666667H1.41041C1.30786 0.666667 1.21384 0.7094 1.12836 0.794867C1.0429 0.880345 1.00016 0.974361 1.00016 1.07692V10.9231C1.00016 11.0256 1.0429 11.1197 1.12836 11.2051C1.21384 11.2906 1.30786 11.3333 1.41041 11.3333H8.58991C8.69247 11.3333 8.78649 11.2906 8.87196 11.2051C8.95743 11.1197 9.00016 11.0256 9.00016 10.9231V3.33333H6.87195C6.71725 3.33333 6.58883 3.28227 6.4867 3.18013C6.38456 3.078 6.3335 2.94958 6.3335 2.79488Z" fill="#565454"/>
</svg>
