<svg width="43" height="27" viewBox="0 0 43 27" fill="none" xmlns="http://www.w3.org/2000/svg">
<rect y="1.98022" width="43" height="25" rx="8" fill="#E8EFFD"/>
<path d="M9.61843 18.9802C9.5251 18.9802 9.44576 18.9476 9.38043 18.8822C9.3151 18.8169 9.28243 18.7376 9.28243 18.6442V9.53022C9.28243 9.42756 9.3151 9.34356 9.38043 9.27822C9.44576 9.21289 9.5251 9.18022 9.61843 9.18022H13.0344C13.9771 9.18022 14.7518 9.32489 15.3584 9.61422C15.9744 9.90356 16.4364 10.3329 16.7444 10.9022C17.0618 11.4716 17.2251 12.1669 17.2344 12.9882C17.2531 13.3989 17.2624 13.7629 17.2624 14.0802C17.2624 14.3976 17.2531 14.7569 17.2344 15.1582C17.2158 16.0262 17.0571 16.7449 16.7584 17.3142C16.4598 17.8742 16.0071 18.2942 15.4004 18.5742C14.8031 18.8449 14.0378 18.9802 13.1044 18.9802H9.61843ZM11.2284 17.3702H13.0344C13.5571 17.3702 13.9818 17.2956 14.3084 17.1462C14.6351 16.9969 14.8731 16.7589 15.0224 16.4322C15.1811 16.0962 15.2651 15.6576 15.2744 15.1162C15.2838 14.8362 15.2884 14.5936 15.2884 14.3882C15.2978 14.1736 15.2978 13.9636 15.2884 13.7582C15.2884 13.5436 15.2838 13.3009 15.2744 13.0302C15.2558 12.2649 15.0644 11.7002 14.7004 11.3362C14.3364 10.9722 13.7578 10.7902 12.9644 10.7902H11.2284V17.3702ZM21.6602 19.1202C21.0908 19.1202 20.5962 18.9942 20.1762 18.7422C19.7655 18.4809 19.4482 18.1169 19.2242 17.6502C19.0002 17.1742 18.8882 16.6142 18.8882 15.9702V12.0362C18.8882 11.9429 18.9208 11.8636 18.9862 11.7982C19.0515 11.7329 19.1308 11.7002 19.2242 11.7002H20.4562C20.5588 11.7002 20.6382 11.7329 20.6942 11.7982C20.7595 11.8636 20.7922 11.9429 20.7922 12.0362V15.8862C20.7922 17.0436 21.3008 17.6222 22.3182 17.6222C22.8035 17.6222 23.1862 17.4682 23.4662 17.1602C23.7555 16.8522 23.9002 16.4276 23.9002 15.8862V12.0362C23.9002 11.9429 23.9328 11.8636 23.9982 11.7982C24.0635 11.7329 24.1428 11.7002 24.2362 11.7002H25.4682C25.5615 11.7002 25.6408 11.7329 25.7062 11.7982C25.7715 11.8636 25.8042 11.9429 25.8042 12.0362V18.6442C25.8042 18.7376 25.7715 18.8169 25.7062 18.8822C25.6408 18.9476 25.5615 18.9802 25.4682 18.9802H24.3342C24.2315 18.9802 24.1475 18.9476 24.0822 18.8822C24.0262 18.8169 23.9982 18.7376 23.9982 18.6442V18.0702C23.7462 18.3969 23.4335 18.6536 23.0602 18.8402C22.6868 19.0269 22.2202 19.1202 21.6602 19.1202ZM30.7895 19.1202C29.7535 19.1202 28.9322 18.8216 28.3255 18.2242C27.7188 17.6269 27.3922 16.7776 27.3455 15.6762C27.3362 15.5829 27.3315 15.4662 27.3315 15.3262C27.3315 15.1769 27.3362 15.0602 27.3455 14.9762C27.3828 14.2762 27.5415 13.6696 27.8215 13.1562C28.1108 12.6429 28.5075 12.2509 29.0115 11.9802C29.5155 11.7002 30.1082 11.5602 30.7895 11.5602C31.5455 11.5602 32.1802 11.7189 32.6935 12.0362C33.2068 12.3442 33.5942 12.7782 33.8555 13.3382C34.1168 13.8889 34.2475 14.5282 34.2475 15.2562V15.5502C34.2475 15.6436 34.2148 15.7229 34.1495 15.7882C34.0842 15.8536 34.0002 15.8862 33.8975 15.8862H29.2495C29.2495 15.8862 29.2495 15.9002 29.2495 15.9282C29.2495 15.9562 29.2495 15.9796 29.2495 15.9982C29.2588 16.3249 29.3195 16.6282 29.4315 16.9082C29.5528 17.1789 29.7255 17.3982 29.9495 17.5662C30.1828 17.7342 30.4582 17.8182 30.7755 17.8182C31.0368 17.8182 31.2562 17.7809 31.4335 17.7062C31.6108 17.6222 31.7555 17.5289 31.8675 17.4262C31.9795 17.3236 32.0588 17.2396 32.1055 17.1742C32.1895 17.0622 32.2548 16.9969 32.3015 16.9782C32.3575 16.9502 32.4368 16.9362 32.5395 16.9362H33.7435C33.8368 16.9362 33.9115 16.9642 33.9675 17.0202C34.0328 17.0762 34.0608 17.1462 34.0515 17.2302C34.0422 17.3796 33.9628 17.5616 33.8135 17.7762C33.6735 17.9909 33.4682 18.2009 33.1975 18.4062C32.9268 18.6116 32.5862 18.7842 32.1755 18.9242C31.7742 19.0549 31.3122 19.1202 30.7895 19.1202ZM29.2495 14.7102H32.3435V14.6682C32.3435 14.3042 32.2828 13.9869 32.1615 13.7162C32.0402 13.4456 31.8628 13.2309 31.6295 13.0722C31.3962 12.9136 31.1162 12.8342 30.7895 12.8342C30.4628 12.8342 30.1828 12.9136 29.9495 13.0722C29.7162 13.2309 29.5388 13.4456 29.4175 13.7162C29.3055 13.9869 29.2495 14.3042 29.2495 14.6682V14.7102Z" fill="#0D2B88"/>
<circle cx="40" cy="3.48022" r="3" fill="#CE4141"/>
</svg>
