<svg width="100" height="100" viewBox="0 0 100 100" fill="none" xmlns="http://www.w3.org/2000/svg">
<g clip-path="url(#clip0_37315_156448)">
<mask id="mask0_37315_156448" style="mask-type:luminance" maskUnits="userSpaceOnUse" x="0" y="0" width="100" height="100">
<path d="M100 0H0V100H100V0Z" fill="white"/>
</mask>
<g mask="url(#mask0_37315_156448)">
<g opacity="0.0180283">
<path d="M49.9985 1.60938C76.2399 1.60938 97.5459 22.9153 97.5459 49.1567C97.5459 75.3981 76.2399 96.7041 49.9985 96.7041C23.7571 96.7041 2.45117 75.3981 2.45117 49.1567C2.45117 22.9153 23.7571 1.60938 49.9985 1.60938Z" stroke="#F3F3F3" stroke-width="4.12614"/>
</g>
<path d="M49.5703 14.9141C68.6496 14.9141 84.1406 30.405 84.1406 49.4844C84.1406 68.5637 68.6496 84.0546 49.5703 84.0546C30.4909 84.0546 15 68.5637 15 49.4844C15 30.405 30.4909 14.9141 49.5703 14.9141Z" fill="#FFA814"/>
<path d="M50 56L50 32" stroke="#F3F3F3" stroke-width="5" stroke-linecap="round" stroke-linejoin="round"/>
<path d="M50 69L50 67" stroke="#F3F3F3" stroke-width="5" stroke-linecap="round" stroke-linejoin="round"/>
</g>
</g>
<defs>
<clipPath id="clip0_37315_156448">
<rect width="100" height="100" fill="white"/>
</clipPath>
</defs>
</svg>
