<svg width="32" height="32" viewBox="0 0 32 32" fill="none" xmlns="http://www.w3.org/2000/svg">
<mask id="mask0_37315_158590" style="mask-type:alpha" maskUnits="userSpaceOnUse" x="0" y="0" width="32" height="32">
<rect width="32" height="32" fill="#D9D9D9"/>
</mask>
<g mask="url(#mask0_37315_158590)">
<path d="M6.97418 26.6676C6.38187 26.6676 5.87481 26.4567 5.45301 26.0349C5.03121 25.6131 4.82031 25.106 4.82031 24.5137V7.48806C4.82031 6.89575 5.03121 6.3887 5.45301 5.96693C5.87481 5.54513 6.38187 5.33423 6.97418 5.33423H18.1536V6.66756H6.97418C6.73487 6.66756 6.53829 6.74448 6.38445 6.89833C6.23058 7.05217 6.15365 7.24875 6.15365 7.48806V24.5137C6.15365 24.753 6.23058 24.9496 6.38445 25.1035C6.53829 25.2573 6.73487 25.3342 6.97418 25.3342H23.9998C24.2391 25.3342 24.4357 25.2573 24.5895 25.1035C24.7434 24.9496 24.8203 24.753 24.8203 24.5137V13.3342H26.1537V24.5137C26.1537 25.106 25.9428 25.6131 25.521 26.0349C25.0992 26.4567 24.5921 26.6676 23.9998 26.6676H6.97418ZM23.1793 10.9753V8.30859H20.5126V6.97526H23.1793V4.30859H24.5126V6.97526H27.1793V8.30859H24.5126V10.9753H23.1793ZM9.48698 22.0009H21.6921L17.9229 16.9753L14.4357 21.3855L12.1024 18.565L9.48698 22.0009Z" fill="white"/>
</g>
</svg>
