<svg width="25" height="25" viewBox="0 0 25 25" fill="none" xmlns="http://www.w3.org/2000/svg">
<path d="M12.2965 6.11209C12.8616 6.11209 13.414 6.27966 13.8839 6.59361C14.3537 6.90756 14.7199 7.35378 14.9362 7.87586C15.1524 8.39793 15.209 8.97241 15.0988 9.52664C14.9885 10.0809 14.7164 10.59 14.3168 10.9895C13.9173 11.3891 13.4082 11.6612 12.8539 11.7715C12.2997 11.8817 11.7252 11.8251 11.2031 11.6089C10.6811 11.3926 10.2348 11.0264 9.9209 10.5566C9.60695 10.0867 9.43938 9.53433 9.43938 8.96924C9.43938 8.21148 9.7404 7.48475 10.2762 6.94893C10.812 6.41311 11.5388 6.11209 12.2965 6.11209ZM12.2965 4.96924C11.5054 4.96924 10.732 5.20383 10.0742 5.64336C9.41645 6.08289 8.90376 6.7076 8.60101 7.4385C8.29826 8.16941 8.21904 8.97367 8.37338 9.7496C8.52773 10.5255 8.90869 11.2383 9.4681 11.7977C10.0275 12.3571 10.7402 12.738 11.5162 12.8924C12.2921 13.0467 13.0964 12.9675 13.8273 12.6648C14.5582 12.362 15.1829 11.8493 15.6224 11.1915C16.0619 10.5337 16.2965 9.76036 16.2965 8.96924C16.2965 7.90837 15.8751 6.89096 15.125 6.14081C14.3748 5.39067 13.3574 4.96924 12.2965 4.96924Z" fill="#FFA814"/>
<path d="M18.011 20.9692H16.8681V18.1121C16.8681 17.7369 16.7942 17.3653 16.6506 17.0187C16.5071 16.672 16.2966 16.3571 16.0313 16.0918C15.766 15.8264 15.451 15.616 15.1044 15.4724C14.7577 15.3288 14.3862 15.2549 14.011 15.2549H10.5824C9.82465 15.2549 9.09792 15.5559 8.56211 16.0918C8.02629 16.6276 7.72527 17.3543 7.72527 18.1121V20.9692H6.58241V18.1121C6.58241 17.0512 7.00384 16.0338 7.75399 15.2836C8.50413 14.5335 9.52155 14.1121 10.5824 14.1121H14.011C15.0718 14.1121 16.0893 14.5335 16.8394 15.2836C17.5896 16.0338 18.011 17.0512 18.011 18.1121V20.9692Z" fill="#0D2B88" stroke="#0D2B88" stroke-width="0.2"/>
</svg>
