<svg width="39" height="39" viewBox="0 0 39 39" fill="none" xmlns="http://www.w3.org/2000/svg">
<g clip-path="url(#clip0_33219_93568)">
<rect x="0.265625" y="0.714111" width="38" height="38" rx="4" fill="#00539D"/>
<path d="M-158.564 -159.229H1024.36V433.347C1024.36 760.003 759.554 1024.81 432.898 1024.81H-158.564V-159.229Z" fill="#D9E5F0"/>
<path d="M12.4181 9.35596V35.6396V36.3305H10.7771H9.46729V8.07489C10.4749 8.47793 11.4681 8.90975 12.4181 9.35596Z" fill="#00539D"/>
<path d="M18.3355 7.51415C14.4922 5.90201 10.0876 4.60655 5.26562 3.71411C8.84976 4.73609 12.1172 6.01717 14.996 7.51415C23.0999 11.7028 28.1235 17.5468 28.1235 24.0242C28.1235 27.0469 26.5113 32.5599 13.8301 35.6402L10.3611 36.3311H14.9816C26.1947 34.5895 33.5356 30.9478 33.5356 23.7219C33.5356 17.2446 27.6341 11.4437 18.3355 7.51415Z" fill="#00539D"/>
</g>
<defs>
<clipPath id="clip0_33219_93568">
<rect x="0.265625" y="0.714111" width="38" height="38" rx="4" fill="white"/>
</clipPath>
</defs>
</svg>
