<svg width="24" height="25" viewBox="0 0 24 25" fill="none" xmlns="http://www.w3.org/2000/svg">
<mask id="mask0_1872_148" style="mask-type:alpha" maskUnits="userSpaceOnUse" x="0" y="0" width="24" height="25">
<rect y="0.844238" width="24" height="24" fill="#D9D9D9"/>
</mask>
<g mask="url(#mask0_1872_148)">
<path d="M5.61538 20.8442C5.15513 20.8442 4.77083 20.6901 4.4625 20.3817C4.15417 20.0734 4 19.6891 4 19.2289V6.45961C4 5.99936 4.15417 5.61507 4.4625 5.30674C4.77083 4.9984 5.15513 4.84424 5.61538 4.84424H11.5192C11.6615 4.84424 11.7804 4.892 11.8759 4.98751C11.9715 5.08301 12.0192 5.20192 12.0192 5.34424C12.0192 5.48654 11.9715 5.60545 11.8759 5.70096C11.7804 5.79648 11.6615 5.84424 11.5192 5.84424H5.61538C5.46154 5.84424 5.32052 5.90834 5.1923 6.03654C5.0641 6.16476 5 6.30578 5 6.45961V19.2289C5 19.3827 5.0641 19.5237 5.1923 19.6519C5.32052 19.7801 5.46154 19.8442 5.61538 19.8442H11.5192C11.6615 19.8442 11.7804 19.892 11.8759 19.9875C11.9715 20.083 12.0192 20.2019 12.0192 20.3442C12.0192 20.4866 11.9715 20.6055 11.8759 20.701C11.7804 20.7965 11.6615 20.8442 11.5192 20.8442H5.61538ZM18.0596 13.3442H9.6923C9.55 13.3442 9.43109 13.2965 9.33558 13.201C9.24006 13.1055 9.1923 12.9866 9.1923 12.8442C9.1923 12.7019 9.24006 12.583 9.33558 12.4875C9.43109 12.392 9.55 12.3442 9.6923 12.3442H18.0596L16.0885 10.3731C15.9949 10.2795 15.9449 10.1667 15.9385 10.0346C15.9321 9.90256 15.9821 9.78141 16.0885 9.67116C16.1949 9.5609 16.3128 9.50481 16.4423 9.50289C16.5718 9.50096 16.6917 9.55512 16.8019 9.66539L19.4154 12.2789C19.5769 12.4404 19.6577 12.6289 19.6577 12.8442C19.6577 13.0596 19.5769 13.2481 19.4154 13.4096L16.8019 16.0231C16.7045 16.1205 16.5888 16.1715 16.4548 16.176C16.3208 16.1805 16.1987 16.1276 16.0885 16.0173C15.9821 15.9071 15.9298 15.7882 15.9317 15.6606C15.9336 15.533 15.9878 15.416 16.0942 15.3096L18.0596 13.3442Z" fill="#0D2B88"/>
</g>
</svg>
