<svg width="24" height="25" viewBox="0 0 24 25" fill="none" xmlns="http://www.w3.org/2000/svg">
<mask id="mask0_1872_149" style="mask-type:alpha" maskUnits="userSpaceOnUse" x="0" y="0" width="24" height="25">
<rect y="0.844238" width="24" height="24" fill="#D9D9D9"/>
</mask>
<g mask="url(#mask0_1872_149)">
<path d="M5.5 19.6135C5.35833 19.6135 5.23958 19.5655 5.14375 19.4695C5.04792 19.3736 5 19.2547 5 19.1128C5 18.9709 5.04792 18.8523 5.14375 18.7567C5.23958 18.6612 5.35833 18.6135 5.5 18.6135H6.61537V10.6904C6.61537 9.38399 7.02884 8.23495 7.85577 7.24329C8.68269 6.2516 9.73077 5.63397 11 5.39039V4.84424C11 4.56646 11.097 4.33034 11.291 4.13589C11.485 3.94146 11.7206 3.84424 11.9978 3.84424C12.2749 3.84424 12.5112 3.94146 12.7067 4.13589C12.9022 4.33034 13 4.56646 13 4.84424V5.39039C14.2692 5.63397 15.3173 6.2516 16.1442 7.24329C16.9712 8.23495 17.3846 9.38399 17.3846 10.6904V18.6135H18.5C18.6417 18.6135 18.7604 18.6614 18.8562 18.7574C18.9521 18.8534 19 18.9723 19 19.1141C19 19.256 18.9521 19.3747 18.8562 19.4702C18.7604 19.5657 18.6417 19.6135 18.5 19.6135H5.5ZM11.9966 22.2289C11.5514 22.2289 11.1715 22.0707 10.8567 21.7543C10.542 21.438 10.3846 21.0577 10.3846 20.6135H13.6154C13.6154 21.0609 13.4569 21.442 13.1399 21.7567C12.8229 22.0715 12.4418 22.2289 11.9966 22.2289ZM7.61537 18.6135H16.3846V10.6904C16.3846 9.47501 15.9577 8.44039 15.1039 7.58654C14.25 6.73271 13.2154 6.30579 12 6.30579C10.7846 6.30579 9.75 6.73271 8.89615 7.58654C8.0423 8.44039 7.61537 9.47501 7.61537 10.6904V18.6135Z" fill="#0D2B88"/>
</g>
</svg>
