<svg width="76" height="76" viewBox="0 0 76 76" fill="none" xmlns="http://www.w3.org/2000/svg">
<rect width="76" height="76" rx="38" fill="#D8DDEC"/>
<mask id="mask0_37315_156424" style="mask-type:alpha" maskUnits="userSpaceOnUse" x="13" y="13" width="50" height="50">
<rect x="63" y="63" width="50" height="50" transform="rotate(-180 63 63)" fill="#D9D9D9"/>
</mask>
<g mask="url(#mask0_37315_156424)">
<path d="M47.1344 17.1673C48.0934 17.1673 48.8941 17.4885 49.5365 18.1309C50.1788 18.7732 50.5 19.5739 50.5 20.5329L50.5 55.4684C50.5 56.4274 50.1788 57.2281 49.5365 57.8704C48.8941 58.5128 48.0934 58.834 47.1344 58.834L28.8656 58.834C27.9066 58.834 27.1059 58.5128 26.4635 57.8704C25.8212 57.2281 25.5 56.4274 25.5 55.4684L25.5 20.5329C25.5 19.5739 25.8212 18.7732 26.4635 18.1309C27.1059 17.4885 27.9066 17.1673 28.8656 17.1673L47.1344 17.1673ZM48.4167 26.4621L48.4167 20.5329C48.4167 20.2121 48.2832 19.9182 48.0161 19.6512C47.7491 19.3842 47.4552 19.2507 47.1344 19.2507L28.8656 19.2507C28.5448 19.2507 28.2509 19.3842 27.9839 19.6512C27.7168 19.9182 27.5833 20.2121 27.5833 20.5329L27.5833 26.4621L48.4167 26.4621ZM38 21.2538C37.5701 21.2538 37.1955 21.4133 36.876 21.7324C36.5569 22.0519 36.3974 22.4265 36.3974 22.8564C36.3974 23.2866 36.5569 23.6612 36.876 23.9803C37.1955 24.2994 37.5701 24.459 38 24.459C38.4299 24.459 38.8045 24.2994 39.124 23.9803C39.4431 23.6612 39.6026 23.2866 39.6026 22.8564C39.6026 22.4265 39.4431 22.0519 39.124 21.7324C38.8045 21.4133 38.4299 21.2538 38 21.2538ZM48.4167 28.5454L27.5833 28.5454L27.5833 49.459L48.4167 49.459L48.4167 28.5454ZM48.4167 51.5423L27.5833 51.5423L27.5833 55.4684C27.5833 55.7892 27.7168 56.0831 27.9839 56.3501C28.2509 56.6171 28.5448 56.7506 28.8656 56.7506L47.1344 56.7507C47.4552 56.7507 47.7491 56.6171 48.0161 56.3501C48.2832 56.0831 48.4167 55.7892 48.4167 55.4684L48.4167 51.5423Z" fill="#0D2B88"/>
</g>
</svg>
