<svg width="76" height="76" viewBox="0 0 76 76" fill="none" xmlns="http://www.w3.org/2000/svg">
<rect width="76" height="76" rx="38" fill="#D8DDEC"/>
<mask id="mask0_37315_156418" style="mask-type:alpha" maskUnits="userSpaceOnUse" x="13" y="13" width="50" height="50">
<rect x="13" y="13" width="50" height="50" fill="#D9D9D9"/>
</mask>
<g mask="url(#mask0_37315_156418)">
<path d="M37.9986 50.4999C36.0434 50.4999 34.1056 50.4197 32.1851 50.2592C30.265 50.0992 28.3446 49.8723 26.4242 49.5785C25.5773 49.4396 24.8641 49.0596 24.2846 48.4384C23.7051 47.8176 23.4153 47.0797 23.4153 46.2249V45.0311C21.7806 44.6252 20.4571 43.7691 19.445 42.4629C18.4328 41.157 17.9268 39.6693 17.9268 37.9999C17.9268 36.3651 18.4328 34.8948 19.445 33.5889C20.4571 32.2827 21.7806 31.4132 23.4153 30.9806V29.0655C23.4153 28.1148 23.7726 27.3028 24.4872 26.6295C25.2014 25.9566 26.038 25.6469 26.9971 25.7004C27.7637 25.7535 28.5302 25.8422 29.2966 25.9665C30.0632 26.0908 30.8339 26.1743 31.6085 26.217C32.6582 26.3025 33.7144 26.3606 34.7773 26.3915C35.8405 26.4221 36.9143 26.4374 37.9986 26.4374C38.9146 26.4374 39.8308 26.4266 40.7471 26.4051C41.663 26.3839 42.5832 26.3346 43.5075 26.2571C44.4342 26.1877 45.3389 26.0976 46.2216 25.9868C47.1045 25.8757 48.0094 25.7802 48.9361 25.7004C49.8952 25.6202 50.7426 25.9146 51.4783 26.5837C52.2141 27.2528 52.582 28.0801 52.582 29.0655V30.9806C54.2087 31.4132 55.5302 32.2827 56.5466 33.5889C57.5625 34.8948 58.0705 36.3651 58.0705 37.9999C58.0705 39.6693 57.5625 41.1551 56.5466 42.4572C55.5302 43.7592 54.2087 44.6132 52.582 45.0191V46.2129C52.582 47.0677 52.2835 47.8056 51.6867 48.4264C51.0898 49.0476 50.3679 49.4316 49.521 49.5785C47.6005 49.8802 45.6868 50.1092 43.7799 50.2655C41.8729 50.4217 39.9459 50.4999 37.9986 50.4999ZM37.9986 48.4165C39.8952 48.4165 41.7782 48.3363 43.6476 48.1759C45.5174 48.0158 47.4004 47.7889 49.2966 47.4952C49.6438 47.4417 49.929 47.2967 50.1523 47.0603C50.3752 46.8238 50.4907 46.5414 50.4986 46.2129V28.9853C50.4986 28.6113 50.3584 28.2908 50.0778 28.0238C49.7976 27.7568 49.4705 27.65 49.0966 27.7035C47.2535 27.9893 45.4038 28.1969 43.5476 28.3264C41.6913 28.4559 39.8417 28.5207 37.9986 28.5207C36.1209 28.5207 34.2538 28.4559 32.3976 28.3264C30.5413 28.1969 28.6957 27.9893 26.8606 27.7035C26.4787 27.65 26.1563 27.7589 25.8934 28.0301C25.6302 28.3009 25.4986 28.6193 25.4986 28.9853V46.2129C25.4986 46.5334 25.6054 46.8139 25.8189 47.0545C26.0328 47.2948 26.3134 47.4417 26.6606 47.4952C28.5568 47.7889 30.4377 48.0158 32.3033 48.1759C34.1689 48.3363 36.0674 48.4165 37.9986 48.4165ZM37.9986 44.2499C39.465 44.2499 40.9092 44.1697 42.3314 44.0092C43.7537 43.8492 45.1806 43.5648 46.6122 43.1561C46.882 43.0627 47.0891 42.8999 47.2335 42.6676C47.3776 42.4349 47.403 42.1745 47.3096 41.8863C47.2162 41.6245 47.0466 41.4195 46.8007 41.2712C46.5549 41.1229 46.3011 41.0955 46.0393 41.1889C44.7281 41.5629 43.3967 41.8193 42.045 41.9582C40.6936 42.0971 39.3448 42.1665 37.9986 42.1665C36.6257 42.1665 35.2683 42.0924 33.9262 41.9441C32.5839 41.7959 31.257 41.5308 29.9455 41.1488C29.6573 41.0554 29.3969 41.0875 29.1643 41.2452C28.932 41.4028 28.7691 41.6124 28.6757 41.8738C28.5823 42.1624 28.6097 42.4228 28.758 42.6551C28.9063 42.8877 29.1245 43.0507 29.4127 43.1441C30.7912 43.5688 32.1981 43.8592 33.6335 44.0155C35.0693 44.1717 36.5243 44.2499 37.9986 44.2499ZM23.4153 42.8358V33.1759C22.3816 33.5578 21.5556 34.1882 20.9372 35.067C20.3191 35.9459 20.0101 36.9235 20.0101 37.9999C20.0101 39.111 20.3191 40.0992 20.9372 40.9644C21.5556 41.8301 22.3816 42.4539 23.4153 42.8358ZM52.582 42.8358C53.5809 42.4539 54.3983 41.8301 55.0341 40.9644C55.6695 40.0992 55.9872 39.111 55.9872 37.9999C55.9872 36.9235 55.6695 35.9459 55.0341 35.067C54.3983 34.1882 53.5809 33.5578 52.582 33.1759V42.8358ZM37.9986 35.9165C39.465 35.9165 40.9092 35.8363 42.3314 35.6759C43.7537 35.5158 45.1806 35.2315 46.6122 34.8228C46.882 34.7294 47.0891 34.5665 47.2335 34.3342C47.3776 34.1016 47.403 33.8412 47.3096 33.553C47.2162 33.2912 47.0466 33.0861 46.8007 32.9379C46.5549 32.7896 46.3011 32.7622 46.0393 32.8556C44.7281 33.2295 43.3967 33.486 42.045 33.6249C40.6936 33.7637 39.3448 33.8332 37.9986 33.8332C36.6257 33.8332 35.2683 33.7571 33.9262 33.6051C32.5839 33.4526 31.257 33.1894 29.9455 32.8155C29.6573 32.7488 29.3969 32.7875 29.1643 32.9316C28.932 33.0761 28.7691 33.2832 28.6757 33.553C28.5823 33.8412 28.6011 34.1016 28.732 34.3342C28.8629 34.5665 29.0764 34.7294 29.3726 34.8228C30.7778 35.2315 32.1981 35.5158 33.6335 35.6759C35.0693 35.8363 36.5243 35.9165 37.9986 35.9165Z" fill="#0D2B88"/>
</g>
</svg>
