<svg width="11" height="21" viewBox="0 0 11 21" fill="none" xmlns="http://www.w3.org/2000/svg">
<path d="M5.46143 20.9609C4.07974 20.9609 2.90099 20.4645 1.92516 19.4716C0.949338 18.4787 0.461426 17.2794 0.461426 15.8735V4.65024C0.461426 3.63568 0.816469 2.76715 1.52655 2.04466C2.23664 1.32218 3.09025 0.960938 4.08737 0.960938C5.08452 0.960938 5.93813 1.32218 6.64822 2.04466C7.35829 2.76715 7.71332 3.63568 7.71332 4.65024V14.7473C7.71332 15.3889 7.49559 15.9311 7.06012 16.3741C6.62466 16.8171 6.09158 17.0386 5.46088 17.0386C4.8302 17.0386 4.2973 16.8171 3.86218 16.3741C3.42708 15.9311 3.20953 15.3889 3.20953 14.7473V5.09685C3.20953 4.96783 3.25089 4.86114 3.33362 4.77678C3.41637 4.69242 3.52102 4.65024 3.64756 4.65024C3.77412 4.65024 3.87906 4.69242 3.96239 4.77678C4.04571 4.86114 4.08737 4.96783 4.08737 5.09685V14.7473C4.08737 15.1434 4.21906 15.4755 4.48243 15.7434C4.74579 16.0114 5.07212 16.1454 5.46143 16.1454C5.85073 16.1454 6.17706 16.0114 6.44042 15.7434C6.70379 15.4755 6.83548 15.1434 6.83548 14.7473V4.65024C6.83548 3.86732 6.56967 3.20558 6.03806 2.665C5.50645 2.12442 4.85569 1.85413 4.08576 1.85413C3.31585 1.85413 2.66563 2.12442 2.1351 2.665C1.60456 3.20558 1.3393 3.86732 1.3393 4.65024V15.8735C1.3393 17.036 1.7407 18.0256 2.5435 18.8425C3.34629 19.6593 4.31893 20.0677 5.46143 20.0677C6.60392 20.0677 7.57656 19.6593 8.37935 18.8425C9.18215 18.0256 9.58356 17.036 9.58356 15.8735V5.09685C9.58356 4.96783 9.62492 4.86114 9.70765 4.77678C9.7904 4.69242 9.89504 4.65024 10.0216 4.65024C10.1481 4.65024 10.2531 4.69242 10.3364 4.77678C10.4198 4.86114 10.4614 4.96783 10.4614 5.09685V15.8735C10.4614 17.2794 9.97351 18.4787 8.99769 19.4716C8.02187 20.4645 6.84311 20.9609 5.46143 20.9609Z" fill="#0D2B88"/>
</svg>
