<svg width="76" height="76" viewBox="0 0 76 76" fill="none" xmlns="http://www.w3.org/2000/svg">
<rect width="76" height="76" rx="38" fill="#D8DDEC"/>
<mask id="mask0_37315_156412" style="mask-type:alpha" maskUnits="userSpaceOnUse" x="13" y="13" width="50" height="50">
<rect x="13" y="13" width="50" height="50" fill="#D9D9D9"/>
</mask>
<g mask="url(#mask0_37315_156412)">
<path d="M36.9583 20.051V17.1667C36.9583 16.8715 37.0583 16.6241 37.2583 16.4245C37.4583 16.2248 37.7061 16.125 38.0016 16.125C38.297 16.125 38.5443 16.2248 38.7432 16.4245C38.9422 16.6241 39.0417 16.8715 39.0417 17.1667V20.051C39.0417 20.3462 38.9417 20.5936 38.7417 20.7932C38.5417 20.9929 38.2939 21.0927 37.9984 21.0927C37.703 21.0927 37.4557 20.9929 37.2568 20.7932C37.0578 20.5936 36.9583 20.3462 36.9583 20.051ZM36.9583 58.8333V55.949C36.9583 55.6538 37.0583 55.4064 37.2583 55.2068C37.4583 55.0071 37.7061 54.9073 38.0016 54.9073C38.297 54.9073 38.5443 55.0071 38.7432 55.2068C38.9422 55.4064 39.0417 55.6538 39.0417 55.949V58.8333C39.0417 59.1285 38.9417 59.3759 38.7417 59.5755C38.5417 59.7752 38.2939 59.875 37.9984 59.875C37.703 59.875 37.4557 59.7752 37.2568 59.5755C37.0578 59.3759 36.9583 59.1285 36.9583 58.8333ZM58.8333 39.0417H55.949C55.6538 39.0417 55.4064 38.9417 55.2068 38.7417C55.0071 38.5417 54.9073 38.2939 54.9073 37.9984C54.9073 37.703 55.0071 37.4557 55.2068 37.2568C55.4064 37.0578 55.6538 36.9583 55.949 36.9583H58.8333C59.1285 36.9583 59.3759 37.0583 59.5755 37.2583C59.7752 37.4583 59.875 37.7061 59.875 38.0016C59.875 38.297 59.7752 38.5443 59.5755 38.7432C59.3759 38.9422 59.1285 39.0417 58.8333 39.0417ZM20.051 39.0417H17.1667C16.8715 39.0417 16.6241 38.9417 16.4245 38.7417C16.2248 38.5417 16.125 38.2939 16.125 37.9984C16.125 37.703 16.2248 37.4557 16.4245 37.2568C16.6241 37.0578 16.8715 36.9583 17.1667 36.9583H20.051C20.3462 36.9583 20.5936 37.0583 20.7932 37.2583C20.9929 37.4583 21.0927 37.7061 21.0927 38.0016C21.0927 38.297 20.9929 38.5443 20.7932 38.7432C20.5936 38.9422 20.3462 39.0417 20.051 39.0417ZM53.4245 24.0615L51.8943 25.5922C51.6991 25.787 51.4622 25.8911 51.1833 25.9047C50.9042 25.9179 50.6467 25.8068 50.4109 25.5714C50.1953 25.3554 50.0854 25.1146 50.0813 24.849C50.0774 24.5833 50.1863 24.3356 50.4078 24.1057L51.9505 22.5635C52.1453 22.3604 52.3844 22.2521 52.6677 22.2385C52.9507 22.2253 53.2069 22.3337 53.4365 22.5635C53.6663 22.7931 53.7792 23.0427 53.775 23.3125C53.7712 23.5823 53.6543 23.8319 53.4245 24.0615ZM25.5922 51.8943L24.0495 53.4365C23.8547 53.6396 23.6156 53.7479 23.3323 53.7615C23.0493 53.7747 22.7931 53.6663 22.5635 53.4365C22.3337 53.2069 22.2208 52.9573 22.225 52.6875C22.2288 52.4177 22.3457 52.1681 22.5755 51.9385L24.1057 50.4078C24.3009 50.213 24.5378 50.1089 24.8167 50.0953C25.0958 50.0821 25.3533 50.1932 25.5891 50.4286C25.8047 50.6446 25.9146 50.8854 25.9187 51.151C25.9226 51.4167 25.8137 51.6644 25.5922 51.8943ZM51.9385 53.4245L50.4078 51.8943C50.213 51.6991 50.1089 51.4622 50.0953 51.1833C50.0821 50.9042 50.1932 50.6467 50.4286 50.4109C50.6446 50.1953 50.8854 50.0854 51.151 50.0813C51.4167 50.0774 51.6644 50.1863 51.8943 50.4078L53.4365 51.9505C53.6396 52.1453 53.7479 52.3844 53.7615 52.6677C53.7747 52.9507 53.6663 53.2069 53.4365 53.4365C53.2069 53.6663 52.9573 53.7792 52.6875 53.775C52.4177 53.7712 52.1681 53.6543 51.9385 53.4245ZM24.1057 25.5922L22.5635 24.0495C22.3604 23.8547 22.2521 23.6156 22.2385 23.3323C22.2253 23.0493 22.3337 22.7931 22.5635 22.5635C22.7931 22.3337 23.0427 22.2208 23.3125 22.225C23.5823 22.2288 23.8319 22.3457 24.0615 22.5755L25.5922 24.1057C25.787 24.3009 25.8911 24.5378 25.9047 24.8167C25.9179 25.0958 25.8068 25.3533 25.5714 25.5891C25.3554 25.8047 25.1146 25.9146 24.849 25.9187C24.5833 25.9226 24.3356 25.8137 24.1057 25.5922ZM38.0094 48.4167C35.1184 48.4167 32.658 47.4049 30.6281 45.3812C28.5983 43.3576 27.5833 40.9003 27.5833 38.0094C27.5833 35.1184 28.5951 32.658 30.6187 30.6281C32.6424 28.5983 35.0997 27.5833 37.9906 27.5833C40.8816 27.5833 43.342 28.5951 45.3719 30.6188C47.4017 32.6424 48.4167 35.0997 48.4167 37.9906C48.4167 40.8816 47.4049 43.342 45.3812 45.3719C43.3576 47.4017 40.9003 48.4167 38.0094 48.4167ZM38 46.3333C40.3264 46.3333 42.2969 45.526 43.9115 43.9115C45.526 42.2969 46.3333 40.3264 46.3333 38C46.3333 35.6736 45.526 33.7031 43.9115 32.0885C42.2969 30.474 40.3264 29.6667 38 29.6667C35.6736 29.6667 33.7031 30.474 32.0885 32.0885C30.474 33.7031 29.6667 35.6736 29.6667 38C29.6667 40.3264 30.474 42.2969 32.0885 43.9115C33.7031 45.526 35.6736 46.3333 38 46.3333Z" fill="#0D2B88"/>
</g>
</svg>
