<svg width="176" height="111" viewBox="0 0 176 111" fill="none" xmlns="http://www.w3.org/2000/svg">
<rect x="13" width="151" height="111" rx="14" fill="#D9D9D9"/>
<path d="M13 14C13 6.26801 19.268 0 27 0H150C157.732 0 164 6.26801 164 14V20H13V14Z" fill="url(#paint0_linear_37315_156253)"/>
<rect x="33" y="36" width="67" height="6" rx="3" fill="#ABB1B2"/>
<rect x="33" y="56" width="111" height="6" rx="3" fill="#ABB1B2"/>
<rect x="33" y="69" width="83" height="6" rx="3" fill="#ABB1B2"/>
<rect x="33" y="82" width="98" height="6" rx="3" fill="#ABB1B2"/>
<path opacity="0.4" d="M0 46H176V80H0V46Z" fill="url(#paint1_linear_37315_156253)"/>
<path d="M176 46L0 46" stroke="#CE4141"/>
<defs>
<linearGradient id="paint0_linear_37315_156253" x1="13" y1="10" x2="164" y2="10" gradientUnits="userSpaceOnUse">
<stop stop-color="#6AC1FB"/>
<stop offset="1" stop-color="#59B0F8"/>
</linearGradient>
<linearGradient id="paint1_linear_37315_156253" x1="88" y1="46" x2="88" y2="75.5" gradientUnits="userSpaceOnUse">
<stop stop-color="#CE4141"/>
<stop offset="1" stop-color="#CE4141" stop-opacity="0"/>
</linearGradient>
</defs>
</svg>
