<svg width="98" height="98" viewBox="0 0 98 98" fill="none" xmlns="http://www.w3.org/2000/svg">
<path d="M48.9998 97.0661C75.5291 97.0661 97.0352 75.5466 97.0352 49.0008C97.0352 22.4551 75.5291 0.935547 48.9998 0.935547C22.4706 0.935547 0.964355 22.4551 0.964355 49.0008C0.964355 75.5466 22.4706 97.0661 48.9998 97.0661Z" fill="#D8DDEC"/>
<mask id="mask0_37315_155618" style="mask-type:alpha" maskUnits="userSpaceOnUse" x="26" y="25" width="47" height="47">
<rect x="26.0024" y="25.2031" width="46" height="46" fill="#D9D9D9"/>
</mask>
<g mask="url(#mask0_37315_155618)">
<path d="M38.6821 65.4531C37.8245 65.4531 37.0941 65.1515 36.4908 64.5483C35.8876 63.945 35.5859 63.2146 35.5859 62.357V45.5493C35.5859 44.6917 35.8876 43.9613 36.4908 43.358C37.0941 42.7547 37.8245 42.4531 38.6821 42.4531H41.3359V38.6198C41.3359 36.4844 42.0799 34.6728 43.5678 33.1849C45.0556 31.6971 46.8672 30.9531 49.0026 30.9531C51.138 30.9531 52.9496 31.6971 54.4375 33.1849C55.9253 34.6728 56.6693 36.4844 56.6693 38.6198V42.4531H59.3231C60.1807 42.4531 60.9111 42.7547 61.5144 43.358C62.1177 43.9613 62.4193 44.6917 62.4193 45.5493V62.357C62.4193 63.2146 62.1177 63.945 61.5144 64.5483C60.9111 65.1515 60.1807 65.4531 59.3231 65.4531H38.6821ZM38.6821 63.5365H59.3231C59.6671 63.5365 59.9497 63.4259 60.1709 63.2047C60.392 62.9836 60.5026 62.701 60.5026 62.357V45.5493C60.5026 45.2053 60.392 44.9227 60.1709 44.7015C59.9497 44.4804 59.6671 44.3698 59.3231 44.3698H38.6821C38.3381 44.3698 38.0555 44.4804 37.8343 44.7015C37.6132 44.9227 37.5026 45.2053 37.5026 45.5493V62.357C37.5026 62.701 37.6132 62.9836 37.8343 63.2047C38.0555 63.4259 38.3381 63.5365 38.6821 63.5365ZM49.0026 56.8281C49.8111 56.8281 50.4923 56.5511 51.0464 55.997C51.6006 55.4429 51.8776 54.7616 51.8776 53.9531C51.8776 53.1447 51.6006 52.4634 51.0464 51.9093C50.4923 51.3552 49.8111 51.0781 49.0026 51.0781C48.1942 51.0781 47.5129 51.3552 46.9588 51.9093C46.4047 52.4634 46.1276 53.1447 46.1276 53.9531C46.1276 54.7616 46.4047 55.4429 46.9588 55.997C47.5129 56.5511 48.1942 56.8281 49.0026 56.8281ZM43.2526 42.4531H54.7526V38.6198C54.7526 37.0226 54.1936 35.6649 53.0755 34.5469C51.9575 33.4288 50.5998 32.8698 49.0026 32.8698C47.4054 32.8698 46.0477 33.4288 44.9297 34.5469C43.8116 35.6649 43.2526 37.0226 43.2526 38.6198V42.4531Z" fill="#0D2B88"/>
</g>
</svg>
