<svg width="20" height="14" viewBox="0 0 20 14" fill="none" xmlns="http://www.w3.org/2000/svg">
<path d="M10.0046 10.9981C11.0208 10.9981 11.8831 10.6424 12.5914 9.93106C13.2998 9.21971 13.6539 8.35593 13.6539 7.33971C13.6539 6.3235 13.2983 5.46122 12.5869 4.75289C11.8756 4.04456 11.0118 3.69039 9.99556 3.69039C8.97935 3.69039 8.11707 4.04606 7.40874 4.75741C6.70041 5.46876 6.34624 6.33255 6.34624 7.34876C6.34624 8.36498 6.70191 9.22725 7.41326 9.93559C8.12461 10.6439 8.9884 10.9981 10.0046 10.9981ZM10.0001 10.0442C9.25009 10.0442 8.61259 9.78174 8.08759 9.25674C7.56259 8.73174 7.30009 8.09424 7.30009 7.34424C7.30009 6.59424 7.56259 5.95674 8.08759 5.43174C8.61259 4.90674 9.25009 4.64424 10.0001 4.64424C10.7501 4.64424 11.3876 4.90674 11.9126 5.43174C12.4376 5.95674 12.7001 6.59424 12.7001 7.34424C12.7001 8.09424 12.4376 8.73174 11.9126 9.25674C11.3876 9.78174 10.7501 10.0442 10.0001 10.0442ZM10.0001 13.8442C8.02317 13.8442 6.21003 13.3212 4.56066 12.275C2.9113 11.2289 1.57892 9.85706 0.563539 8.15961C0.480205 8.02245 0.420914 7.88719 0.385664 7.75384C0.350397 7.62049 0.332764 7.48363 0.332764 7.34326C0.332764 7.20288 0.350397 7.06635 0.385664 6.93366C0.420914 6.80096 0.480205 6.66603 0.563539 6.52886C1.57892 4.83141 2.9113 3.45961 4.56066 2.41346C6.21003 1.36731 8.02317 0.844238 10.0001 0.844238C11.977 0.844238 13.7901 1.36731 15.4395 2.41346C17.0889 3.45961 18.4213 4.83141 19.4366 6.52886C19.52 6.66603 19.5793 6.80129 19.6145 6.93464C19.6498 7.06799 19.6674 7.20485 19.6674 7.34521C19.6674 7.4856 19.6498 7.62213 19.6145 7.75481C19.5793 7.88751 19.52 8.02245 19.4366 8.15961C18.4213 9.85706 17.0889 11.2289 15.4395 12.275C13.7901 13.3212 11.977 13.8442 10.0001 13.8442ZM10.0001 12.8442C11.8834 12.8442 13.6126 12.3484 15.1876 11.3567C16.7626 10.3651 17.9668 9.02757 18.8001 7.34424C17.9668 5.6609 16.7626 4.32341 15.1876 3.33174C13.6126 2.34007 11.8834 1.84424 10.0001 1.84424C8.11676 1.84424 6.38759 2.34007 4.81259 3.33174C3.23759 4.32341 2.03342 5.6609 1.20009 7.34424C2.03342 9.02757 3.23759 10.3651 4.81259 11.3567C6.38759 12.3484 8.11676 12.8442 10.0001 12.8442Z" fill="#0D2B88"/>
</svg>
