<svg width="20" height="18" viewBox="0 0 20 18" fill="none" xmlns="http://www.w3.org/2000/svg">
<path d="M13.4461 9.49037L12.65 8.69422C12.8077 7.79807 12.5689 7.03428 11.9336 6.40287C11.2984 5.77147 10.5372 5.53525 9.64998 5.69422L8.85383 4.89807C9.0346 4.81602 9.22049 4.76088 9.4115 4.73267C9.60254 4.70447 9.7987 4.69037 9.99998 4.69037C11.0192 4.69037 11.883 5.04453 12.5913 5.75287C13.2997 6.4612 13.6538 7.32498 13.6538 8.34422C13.6538 8.5455 13.6429 8.74166 13.6211 8.93269C13.5993 9.12371 13.541 9.3096 13.4461 9.49037ZM16.6077 12.5634L15.85 11.8942C16.4833 11.4109 17.05 10.8734 17.55 10.2817C18.05 9.69005 18.4666 9.04422 18.8 8.34422C17.9666 6.66088 16.7625 5.32338 15.1875 4.33172C13.6125 3.34005 11.8833 2.84422 9.99998 2.84422C9.51665 2.84422 9.04581 2.87755 8.58748 2.94422C8.12915 3.01088 7.66665 3.11088 7.19998 3.24422L6.4192 2.46344C6.991 2.24421 7.5753 2.08619 8.1721 1.98939C8.76889 1.89261 9.37818 1.84422 9.99998 1.84422C12.0141 1.84422 13.874 2.36088 15.5798 3.39422C17.2856 4.42755 18.6064 5.83267 19.5423 7.60959C19.609 7.73011 19.6558 7.84838 19.6827 7.96442C19.7096 8.08043 19.7231 8.20703 19.7231 8.34422C19.7231 8.4814 19.7106 8.608 19.6856 8.72402C19.6606 8.84005 19.6147 8.95832 19.5481 9.07884C19.207 9.76729 18.7852 10.4029 18.2827 10.9856C17.7801 11.5683 17.2218 12.0942 16.6077 12.5634ZM9.99998 14.8442C8.02306 14.8442 6.20575 14.3234 4.54805 13.2817C2.89035 12.24 1.56022 10.8641 0.557654 9.15384C0.474321 9.03332 0.415029 8.90352 0.379779 8.76442C0.344529 8.62532 0.326904 8.48525 0.326904 8.34422C0.326904 8.20318 0.343571 8.06408 0.376904 7.92692C0.410238 7.78973 0.468571 7.65896 0.551904 7.53459C0.962154 6.84229 1.41696 6.18556 1.91633 5.56441C2.41568 4.94325 2.99356 4.39549 3.64998 3.92114L1.20958 1.47499C1.116 1.37756 1.06696 1.26185 1.06248 1.12787C1.05798 0.993899 1.10894 0.873706 1.21535 0.76729C1.32177 0.660873 1.43972 0.607666 1.5692 0.607666C1.69869 0.607666 1.81664 0.660873 1.92305 0.76729L18.0769 16.9211C18.1705 17.0147 18.2214 17.1285 18.2298 17.2625C18.2381 17.3965 18.1872 17.5186 18.0769 17.6288C17.9705 17.7353 17.8525 17.7885 17.7231 17.7885C17.5936 17.7885 17.4756 17.7353 17.3692 17.6288L13.8308 14.1019C13.2346 14.375 12.6141 14.567 11.9692 14.6779C11.3243 14.7888 10.6679 14.8442 9.99998 14.8442ZM4.35765 4.62884C3.6692 5.10062 3.05767 5.64934 2.52305 6.27499C1.98844 6.90062 1.54741 7.59037 1.19998 8.34422C2.03331 10.0275 3.23748 11.365 4.81248 12.3567C6.38748 13.3484 8.11665 13.8442 9.99998 13.8442C10.5256 13.8442 11.0461 13.8074 11.5615 13.7336C12.0769 13.6599 12.5782 13.5275 13.0654 13.3365L11.4346 11.6942C11.2128 11.8211 10.9833 11.9035 10.7461 11.9413C10.5089 11.9792 10.2602 11.9981 9.99998 11.9981C8.98075 11.9981 8.11696 11.6439 7.40863 10.9356C6.7003 10.2272 6.34613 9.36345 6.34613 8.34422C6.34613 8.08397 6.36825 7.83525 6.41248 7.59807C6.45671 7.36088 6.53588 7.13139 6.64998 6.90959L4.35765 4.62884Z" fill="#0D2B88"/>
</svg>
