<svg width="21" height="21" viewBox="0 0 21 21" fill="none" xmlns="http://www.w3.org/2000/svg">
<path d="M9.74875 1.80789C9.74875 1.80789 9.74875 0.696777 10.8599 0.696777C11.971 0.696777 11.971 1.80789 11.971 1.80789V2.919C11.971 2.919 11.971 4.03011 10.8599 4.03011C9.74875 4.03011 9.74875 2.919 9.74875 2.919V1.80789ZM19.7488 9.58567C19.7488 9.58567 20.8599 9.58567 20.8599 10.6968C20.8599 11.8079 19.7488 11.8079 19.7488 11.8079H18.6376C18.6376 11.8079 17.5265 11.8079 17.5265 10.6968C17.5265 9.58567 18.6376 9.58567 18.6376 9.58567H19.7488ZM3.08209 9.58567C3.08209 9.58567 4.1932 9.58567 4.1932 10.6968C4.1932 11.8079 3.08209 11.8079 3.08209 11.8079H1.97097C1.97097 11.8079 0.859863 11.8079 0.859863 10.6968C0.859863 9.58567 1.97097 9.58567 1.97097 9.58567H3.08209ZM5.92709 4.74844C5.92709 4.74844 6.71264 5.534 5.92709 6.31956C5.14153 7.10511 4.35597 6.31956 4.35597 6.31956L3.56986 5.53456C3.56986 5.53456 2.78431 4.749 3.56986 3.96289C4.35597 3.17733 5.14153 3.96289 5.14153 3.96289L5.92709 4.74844ZM17.5938 16.4151C17.5938 16.4151 18.3793 17.2007 17.5938 17.9862C16.8082 18.7718 16.0226 17.9862 16.0226 17.9862L15.2371 17.2007C15.2371 17.2007 14.4515 16.4151 15.2371 15.6296C16.0226 14.844 16.8082 15.6296 16.8082 15.6296L17.5938 16.4151ZM17.3643 6.31956C17.3643 6.31956 16.5788 7.10511 15.7932 6.31956C15.0076 5.534 15.7932 4.74844 15.7932 4.74844L16.5788 3.96289C16.5788 3.96289 17.3643 3.17733 18.1499 3.96289C18.9354 4.74844 18.1499 5.534 18.1499 5.534L17.3643 6.31956ZM5.69764 17.9862C5.69764 17.9862 4.91209 18.7718 4.12653 17.9862C3.34097 17.2007 4.12653 16.4151 4.12653 16.4151L4.91209 15.6296C4.91209 15.6296 5.69764 14.844 6.4832 15.6296C7.26875 16.4151 6.4832 17.2007 6.4832 17.2007L5.69764 17.9862ZM9.74875 18.4746C9.74875 18.4746 9.74875 17.3634 10.8599 17.3634C11.971 17.3634 11.971 18.4746 11.971 18.4746V19.5857C11.971 19.5857 11.971 20.6968 10.8599 20.6968C9.74875 20.6968 9.74875 19.5857 9.74875 19.5857V18.4746Z" fill="#FFA814"/>
<path d="M10.8599 16.2523C13.9281 16.2523 16.4154 13.765 16.4154 10.6968C16.4154 7.62853 13.9281 5.14122 10.8599 5.14122C7.79163 5.14122 5.30432 7.62853 5.30432 10.6968C5.30432 13.765 7.79163 16.2523 10.8599 16.2523Z" fill="#FFA814"/>
</svg>
