<svg width="23" height="27" viewBox="0 0 23 27" fill="none" xmlns="http://www.w3.org/2000/svg">
<path d="M23.0001 10.1537C22.9779 7.44363 21.6743 4.85186 19.3757 2.94795C17.0771 1.04404 13.9717 -0.0162164 10.7419 0.000187551H2.14112C1.58058 -0.00102225 1.04206 0.183175 0.642272 0.512855C0.242487 0.842534 0.0136531 1.29113 0.00537109 1.76142L0.00537109 8.46729C0.0122921 7.99588 0.241417 7.54594 0.642635 7.21589C1.04385 6.88584 1.58451 6.70254 2.14637 6.70606H10.7419C13.2716 6.69848 15.7422 7.34779 17.8147 8.56494C19.8873 9.7821 21.4603 11.5075 22.3179 13.5044C22.7705 12.4281 23.0012 11.295 23.0001 10.1537Z" fill="#4197CB"/>
<path d="M10.7417 20.3115H2.141C1.57914 20.3151 1.03848 20.1318 0.637264 19.8017C0.236046 19.4717 0.00692097 19.0217 0 18.5503V25.2386C0.00692097 25.71 0.236046 26.1599 0.637264 26.49C1.03848 26.82 1.57914 27.0033 2.141 26.9998H10.7417C13.9697 27.0162 17.0736 25.9572 19.3719 24.0552C21.6702 22.1532 22.975 19.5636 23 16.8551C23.0011 15.7138 22.7704 14.5807 22.3178 13.5044C21.4619 15.503 19.8896 17.2302 17.8169 18.4491C15.7442 19.6679 13.2727 20.3185 10.7417 20.3115Z" fill="#3DAE2B"/>
<path d="M10.7417 6.69726H2.141C1.57914 6.69373 1.03848 6.87704 0.637264 7.20709C0.236046 7.53714 0.00692097 7.98707 0 8.45849V18.5415C0.00692097 19.0129 0.236046 19.4629 0.637264 19.7929C1.03848 20.123 1.57914 20.3063 2.141 20.3027H10.7417C13.2715 20.3103 15.7421 19.661 17.8146 18.4439C19.8871 17.2267 21.4601 15.5013 22.3178 13.5044C21.4619 11.5058 19.8896 9.77855 17.8169 8.55974C15.7442 7.34092 13.2727 6.69032 10.7417 6.69726Z" fill="#002D74"/>
</svg>
