<svg width="42" height="42" viewBox="0 0 42 42" fill="none" xmlns="http://www.w3.org/2000/svg">
<circle cx="21" cy="21.4172" r="20.5" fill="#3DAE2B" fill-opacity="0.14"/>
<path d="M21.2964 14.6321C21.8615 14.6321 22.4139 14.7997 22.8837 15.1136C23.3536 15.4276 23.7198 15.8738 23.936 16.3959C24.1523 16.9179 24.2089 17.4924 24.0986 18.0467C23.9884 18.6009 23.7163 19.11 23.3167 19.5096C22.9171 19.9091 22.408 20.1813 21.8538 20.2915C21.2996 20.4017 20.7251 20.3452 20.203 20.1289C19.6809 19.9127 19.2347 19.5465 18.9208 19.0766C18.6068 18.6067 18.4392 18.0543 18.4392 17.4893C18.4392 16.7315 18.7403 16.0048 19.2761 15.469C19.8119 14.9331 20.5386 14.6321 21.2964 14.6321ZM21.2964 13.4893C20.5053 13.4893 19.7319 13.7239 19.0741 14.1634C18.4163 14.6029 17.9036 15.2276 17.6009 15.9585C17.2981 16.6894 17.2189 17.4937 17.3732 18.2696C17.5276 19.0455 17.9086 19.7583 18.468 20.3177C19.0274 20.8771 19.7401 21.2581 20.516 21.4124C21.292 21.5667 22.0962 21.4875 22.8271 21.1848C23.558 20.882 24.1827 20.3693 24.6223 19.7115C25.0618 19.0537 25.2964 18.2804 25.2964 17.4893C25.2964 16.4284 24.875 15.411 24.1248 14.6608C23.3747 13.9107 22.3573 13.4893 21.2964 13.4893Z" fill="#4197CB"/>
<path d="M27.0108 29.4892H25.868V26.6321C25.868 26.2569 25.7941 25.8853 25.6505 25.5387C25.5069 25.1921 25.2965 24.8771 25.0311 24.6118C24.7658 24.3465 24.4509 24.136 24.1042 23.9924C23.7576 23.8488 23.386 23.7749 23.0108 23.7749H19.5823C18.8245 23.7749 18.0978 24.076 17.562 24.6118C17.0262 25.1476 16.7251 25.8743 16.7251 26.6321V29.4892H15.5823V26.6321C15.5823 25.5712 16.0037 24.5538 16.7538 23.8037C17.504 23.0535 18.5214 22.6321 19.5823 22.6321H23.0108C24.0717 22.6321 25.0891 23.0535 25.8393 23.8037C26.5894 24.5538 27.0108 25.5712 27.0108 26.6321V29.4892Z" fill="#4197CB" stroke="#4197CB" stroke-width="0.2"/>
</svg>
