<svg width="24" height="25" viewBox="0 0 24 25" fill="none" xmlns="http://www.w3.org/2000/svg">
<path d="M20.3105 12.5002C20.3105 12.6822 20.2376 12.8568 20.1077 12.9856C19.9778 13.1143 19.8017 13.1867 19.618 13.1867H6.05452L11.1055 18.193C11.1698 18.2568 11.2208 18.3325 11.2557 18.4158C11.2905 18.4992 11.3084 18.5885 11.3084 18.6787C11.3084 18.7689 11.2905 18.8582 11.2557 18.9415C11.2208 19.0249 11.1698 19.1006 11.1055 19.1644C11.0411 19.2282 10.9647 19.2788 10.8807 19.3133C10.7966 19.3478 10.7065 19.3656 10.6155 19.3656C10.5245 19.3656 10.4344 19.3478 10.3504 19.3133C10.2663 19.2788 10.1899 19.2282 10.1256 19.1644L3.89304 12.9859C3.82866 12.9221 3.77758 12.8464 3.74273 12.7631C3.70788 12.6797 3.68994 12.5904 3.68994 12.5002C3.68994 12.4099 3.70788 12.3206 3.74273 12.2373C3.77758 12.1539 3.82866 12.0782 3.89304 12.0145L10.1256 5.83595C10.2555 5.70713 10.4317 5.63477 10.6155 5.63477C10.7993 5.63477 10.9755 5.70713 11.1055 5.83595C11.2354 5.96476 11.3084 6.13948 11.3084 6.32165C11.3084 6.50382 11.2354 6.67853 11.1055 6.80735L6.05452 11.8137H19.618C19.8017 11.8137 19.9778 11.886 20.1077 12.0147C20.2376 12.1435 20.3105 12.3181 20.3105 12.5002Z" fill="#131B20"/>
</svg>
