<svg width="14" height="16" viewBox="0 0 14 16" fill="none" xmlns="http://www.w3.org/2000/svg">
<path d="M12.3327 6.99992V4.53325C12.3327 3.41315 12.3327 2.85309 12.1147 2.42527C11.9229 2.04895 11.617 1.74299 11.2407 1.55124C10.8128 1.33325 10.2528 1.33325 9.13268 1.33325H4.86602C3.74591 1.33325 3.18586 1.33325 2.75803 1.55124C2.38171 1.74299 2.07575 2.04895 1.884 2.42527C1.66602 2.85309 1.66602 3.41315 1.66602 4.53325V11.4666C1.66602 12.5867 1.66602 13.1467 1.884 13.5746C2.07575 13.9509 2.38171 14.2569 2.75803 14.4486C3.18586 14.6666 3.74591 14.6666 4.86602 14.6666H6.99935M8.33268 7.33325H4.33268M5.66602 9.99992H4.33268M9.66602 4.66659H4.33268M10.9993 13.9999V9.99992M8.99935 11.9999H12.9993" stroke="#00529B" stroke-width="1.5" stroke-linecap="round" stroke-linejoin="round"/>
</svg>
