<svg width="64" height="65" viewBox="0 0 64 65" fill="none" xmlns="http://www.w3.org/2000/svg">
<path d="M0 32.5C0 14.8269 14.3269 0.5 32 0.5C49.6731 0.5 64 14.8269 64 32.5C64 50.1731 49.6731 64.5 32 64.5C14.3269 64.5 0 50.1731 0 32.5Z" fill="#E6F2E9"/>
<path d="M34.1654 36.4997L35.4987 37.833L38.1654 35.1663M38.1654 31.1663H24.832M38.1654 32.4997V29.9663C38.1654 29.2196 38.1654 28.8462 38.02 28.561C37.8922 28.3101 37.6882 28.1062 37.4374 27.9783C37.1521 27.833 36.7788 27.833 36.032 27.833H26.9654C26.2186 27.833 25.8453 27.833 25.56 27.9783C25.3092 28.1062 25.1052 28.3101 24.9774 28.561C24.832 28.8462 24.832 29.2196 24.832 29.9663V35.033C24.832 35.7797 24.832 36.1531 24.9774 36.4383C25.1052 36.6892 25.3092 36.8932 25.56 37.021C25.8453 37.1663 26.2186 37.1663 26.9654 37.1663H31.4987" stroke="#1DB954" stroke-width="1.5" stroke-linecap="round" stroke-linejoin="round"/>
</svg>
