<svg width="64" height="65" viewBox="0 0 64 65" fill="none" xmlns="http://www.w3.org/2000/svg">
<rect y="0.5" width="64" height="64" rx="32" fill="#E6F2E9"/>
<path d="M32.5184 30.0676C32.1367 30.3396 31.6697 30.4997 31.1654 30.4997C29.8767 30.4997 28.832 29.455 28.832 28.1663C28.832 26.8777 29.8767 25.833 31.1654 25.833C32.0007 25.833 32.7335 26.272 33.1457 26.9318M27.4987 37.8911H29.2389C29.4658 37.8911 29.6913 37.9181 29.9112 37.9721L31.75 38.4189C32.1489 38.5161 32.5645 38.5256 32.9677 38.4473L35.0007 38.0518C35.5377 37.9471 36.0318 37.69 36.4189 37.3133L37.8573 35.9141C38.2681 35.5152 38.2681 34.868 37.8573 34.4684C37.4875 34.1086 36.9018 34.0681 36.4835 34.3732L34.8071 35.5962C34.567 35.7717 34.2749 35.8662 33.9745 35.8662H32.3557L33.3861 35.8662C33.9668 35.8662 34.4373 35.4086 34.4373 34.8436V34.6391C34.4373 34.17 34.1091 33.761 33.6414 33.6476L32.0511 33.2608C31.7923 33.1981 31.5272 33.1663 31.2608 33.1663C30.6176 33.1663 29.4533 33.6989 29.4533 33.6989L27.4987 34.5163M36.832 28.833C36.832 30.1217 35.7874 31.1663 34.4987 31.1663C33.21 31.1663 32.1654 30.1217 32.1654 28.833C32.1654 27.5443 33.21 26.4997 34.4987 26.4997C35.7874 26.4997 36.832 27.5443 36.832 28.833ZM24.832 34.233L24.832 38.0997C24.832 38.473 24.832 38.6597 24.9047 38.8023C24.9686 38.9278 25.0706 39.0298 25.196 39.0937C25.3386 39.1663 25.5253 39.1663 25.8987 39.1663H26.432C26.8054 39.1663 26.9921 39.1663 27.1347 39.0937C27.2601 39.0298 27.3621 38.9278 27.426 38.8023C27.4987 38.6597 27.4987 38.473 27.4987 38.0997V34.233C27.4987 33.8596 27.4987 33.673 27.426 33.5303C27.3621 33.4049 27.2601 33.3029 27.1347 33.239C26.9921 33.1663 26.8054 33.1663 26.432 33.1663L25.8987 33.1663C25.5253 33.1663 25.3386 33.1663 25.196 33.239C25.0706 33.3029 24.9686 33.4049 24.9047 33.5303C24.832 33.673 24.832 33.8596 24.832 34.233Z" stroke="#349349" stroke-width="1.5" stroke-linecap="round" stroke-linejoin="round"/>
</svg>
