<svg width="64" height="65" viewBox="0 0 64 65" fill="none" xmlns="http://www.w3.org/2000/svg">
<path d="M0 32.5C0 14.8269 14.3269 0.5 32 0.5C49.6731 0.5 64 14.8269 64 32.5C64 50.1731 49.6731 64.5 32 64.5C14.3269 64.5 0 50.1731 0 32.5Z" fill="#E6F2E9"/>
<path d="M29.5013 31.5L30.8346 32.8333L33.8346 29.8333M36.8346 38.5V29.7C36.8346 28.5799 36.8346 28.0198 36.6166 27.592C36.4249 27.2157 36.1189 26.9097 35.7426 26.718C35.3148 26.5 34.7547 26.5 33.6346 26.5H29.368C28.2479 26.5 27.6878 26.5 27.26 26.718C26.8837 26.9097 26.5777 27.2157 26.386 27.592C26.168 28.0198 26.168 28.5799 26.168 29.7V38.5L28.0013 37.1667L29.668 38.5L31.5013 37.1667L33.3346 38.5L35.0013 37.1667L36.8346 38.5Z" stroke="#1DB954" stroke-width="1.5" stroke-linecap="round" stroke-linejoin="round"/>
</svg>
