<svg width="25" height="24" viewBox="0 0 25 24" fill="none" xmlns="http://www.w3.org/2000/svg">
<path d="M12.875 2.97192C11.0894 2.97192 9.34391 3.50141 7.85926 4.49342C6.37461 5.48544 5.21746 6.89543 4.53415 8.54509C3.85084 10.1947 3.67205 12.01 4.0204 13.7613C4.36875 15.5125 5.22859 17.1212 6.49118 18.3838C7.75378 19.6464 9.36242 20.5062 11.1137 20.8545C12.865 21.2029 14.6802 21.0241 16.3299 20.3408C17.9795 19.6575 19.3895 18.5003 20.3815 17.0157C21.3735 15.531 21.903 13.7855 21.903 12C21.9005 9.60636 20.9485 7.31151 19.256 5.61897C17.5634 3.92643 15.2686 2.97445 12.875 2.97192ZM12.875 19.6391C11.3641 19.6391 9.88715 19.1911 8.63091 18.3517C7.37466 17.5123 6.39554 16.3192 5.81735 14.9233C5.23916 13.5275 5.08788 11.9915 5.38264 10.5097C5.6774 9.02781 6.40495 7.66665 7.4733 6.5983C8.54165 5.52995 9.90281 4.80239 11.3847 4.50764C12.8665 4.21288 14.4025 4.36416 15.7983 4.94235C17.1942 5.52053 18.3873 6.49966 19.2267 7.7559C20.0661 9.01215 20.5141 10.4891 20.5141 12C20.5118 14.0253 19.7062 15.967 18.2741 17.3991C16.842 18.8312 14.9003 19.6368 12.875 19.6391ZM13.9167 12C13.9167 12.206 13.8556 12.4074 13.7411 12.5787C13.6267 12.75 13.464 12.8835 13.2736 12.9624C13.0833 13.0412 12.8738 13.0618 12.6717 13.0217C12.4697 12.9815 12.2841 12.8822 12.1384 12.7366C11.9927 12.5909 11.8935 12.4053 11.8533 12.2032C11.8131 12.0011 11.8337 11.7917 11.9126 11.6013C11.9914 11.411 12.1249 11.2483 12.2962 11.1338C12.4675 11.0194 12.6689 10.9583 12.875 10.9583C13.1512 10.9583 13.4162 11.068 13.6116 11.2634C13.8069 11.4587 13.9167 11.7237 13.9167 12ZM17.7362 12C17.7362 12.206 17.6751 12.4074 17.5607 12.5787C17.4462 12.75 17.2835 12.8835 17.0932 12.9624C16.9028 13.0412 16.6934 13.0618 16.4913 13.0217C16.2892 12.9815 16.1036 12.8822 15.9579 12.7366C15.8123 12.5909 15.713 12.4053 15.6729 12.2032C15.6327 12.0011 15.6533 11.7917 15.7321 11.6013C15.811 11.411 15.9445 11.2483 16.1158 11.1338C16.2871 11.0194 16.4885 10.9583 16.6945 10.9583C16.9708 10.9583 17.2358 11.068 17.4311 11.2634C17.6265 11.4587 17.7362 11.7237 17.7362 12ZM10.0971 12C10.0971 12.206 10.036 12.4074 9.92156 12.5787C9.80709 12.75 9.6444 12.8835 9.45406 12.9624C9.26371 13.0412 9.05426 13.0618 8.85219 13.0217C8.65012 12.9815 8.46451 12.8822 8.31882 12.7366C8.17314 12.5909 8.07393 12.4053 8.03373 12.2032C7.99354 12.0011 8.01417 11.7917 8.09301 11.6013C8.17186 11.411 8.30537 11.2483 8.47668 11.1338C8.64799 11.0194 8.84939 10.9583 9.05542 10.9583C9.33169 10.9583 9.59665 11.068 9.79201 11.2634C9.98736 11.4587 10.0971 11.7237 10.0971 12Z" fill="#F5FBFF"/>
</svg>
