<svg width="25" height="24" viewBox="0 0 25 24" fill="none" xmlns="http://www.w3.org/2000/svg">
<path d="M18.1937 12.4278L13.8152 10.8099L12.2023 6.42795C12.1068 6.16848 11.934 5.94454 11.7072 5.78636C11.4804 5.62818 11.2106 5.54337 10.9341 5.54337C10.6576 5.54337 10.3877 5.62818 10.161 5.78636C9.93418 5.94454 9.76137 6.16848 9.66586 6.42795L8.0428 10.8099L3.66089 12.4227C3.40142 12.5182 3.17748 12.6911 3.0193 12.9178C2.86112 13.1446 2.77631 13.4145 2.77631 13.691C2.77631 13.9675 2.86112 14.2373 3.0193 14.4641C3.17748 14.6909 3.40142 14.8637 3.66089 14.9592L8.0428 16.5822L9.65567 20.9641C9.75118 21.2236 9.92399 21.4476 10.1508 21.6057C10.3776 21.7639 10.6474 21.8487 10.9239 21.8487C11.2004 21.8487 11.4702 21.7639 11.697 21.6057C11.9238 21.4476 12.0966 21.2236 12.1921 20.9641L13.8152 16.5822L18.1971 14.9694C18.4566 14.8739 18.6805 14.701 18.8387 14.4743C18.9969 14.2475 19.0817 13.9776 19.0817 13.7011C19.0817 13.4246 18.9969 13.1548 18.8387 12.928C18.6805 12.7012 18.4566 12.5284 18.1971 12.4329L18.1937 12.4278ZM13.0512 15.4125C12.959 15.4465 12.8753 15.5 12.8058 15.5695C12.7364 15.639 12.6828 15.7227 12.6488 15.8149L10.929 20.4743L9.21256 15.8182C9.17864 15.7251 9.12474 15.6405 9.05464 15.5704C8.98454 15.5003 8.89994 15.4464 8.80679 15.4125L4.1507 13.6961L8.80679 11.9796C8.89994 11.9457 8.98454 11.8918 9.05464 11.8217C9.12474 11.7516 9.17864 11.667 9.21256 11.5739L10.929 6.91776L12.6454 11.5739C12.6794 11.666 12.733 11.7497 12.8024 11.8192C12.8719 11.8887 12.9556 11.9423 13.0478 11.9762L17.7073 13.6961L13.0512 15.4125ZM13.6454 4.86772C13.6454 4.68761 13.7169 4.51488 13.8443 4.38752C13.9717 4.26016 14.1444 4.18861 14.3245 4.18861H15.6827V2.83041C15.6827 2.6503 15.7543 2.47757 15.8816 2.35021C16.009 2.22285 16.1817 2.15131 16.3618 2.15131C16.5419 2.15131 16.7147 2.22285 16.842 2.35021C16.9694 2.47757 17.0409 2.6503 17.0409 2.83041V4.18861H18.3991C18.5792 4.18861 18.752 4.26016 18.8793 4.38752C19.0067 4.51488 19.0782 4.68761 19.0782 4.86772C19.0782 5.04783 19.0067 5.22056 18.8793 5.34791C18.752 5.47527 18.5792 5.54682 18.3991 5.54682H17.0409V6.90502C17.0409 7.08513 16.9694 7.25787 16.842 7.38522C16.7147 7.51258 16.5419 7.58413 16.3618 7.58413C16.1817 7.58413 16.009 7.51258 15.8816 7.38522C15.7543 7.25787 15.6827 7.08513 15.6827 6.90502V5.54682H14.3245C14.1444 5.54682 13.9717 5.47527 13.8443 5.34791C13.7169 5.22056 13.6454 5.04783 13.6454 4.86772ZM22.4737 8.94233C22.4737 9.12244 22.4022 9.29517 22.2748 9.42253C22.1475 9.54989 21.9747 9.62143 21.7946 9.62143H21.1155V10.3005C21.1155 10.4806 21.044 10.6534 20.9166 10.7807C20.7893 10.9081 20.6165 10.9796 20.4364 10.9796C20.2563 10.9796 20.0836 10.9081 19.9562 10.7807C19.8289 10.6534 19.7573 10.4806 19.7573 10.3005V9.62143H19.0782C18.8981 9.62143 18.7254 9.54989 18.598 9.42253C18.4707 9.29517 18.3991 9.12244 18.3991 8.94233C18.3991 8.76222 18.4707 8.58949 18.598 8.46213C18.7254 8.33478 18.8981 8.26323 19.0782 8.26323H19.7573V7.58413C19.7573 7.40402 19.8289 7.23129 19.9562 7.10393C20.0836 6.97657 20.2563 6.90502 20.4364 6.90502C20.6165 6.90502 20.7893 6.97657 20.9166 7.10393C21.044 7.23129 21.1155 7.40402 21.1155 7.58413V8.26323H21.7946C21.9747 8.26323 22.1475 8.33478 22.2748 8.46213C22.4022 8.58949 22.4737 8.76222 22.4737 8.94233Z" fill="#F5FBFF"/>
</svg>
