<svg width="25" height="24" viewBox="0 0 25 24" fill="none" xmlns="http://www.w3.org/2000/svg">
<path d="M9.6283 8.16802H8.49573C8.2232 8.16802 8.00144 7.94602 8.00144 7.67317C8.00144 7.39938 8.22285 7.17831 8.49566 7.17831C8.49821 7.17831 8.50072 7.17835 8.50326 7.17835H9.5878C9.78255 7.1803 9.97514 7.26778 10.1164 7.41861C10.3138 7.62933 10.6446 7.64006 10.8553 7.44273C11.066 7.24533 11.0768 6.91453 10.8794 6.70381C10.5428 6.3445 10.0743 6.1364 9.5939 6.13281C9.59257 6.13281 9.59128 6.13281 9.58999 6.13281H9.5848V5.66828C9.5848 5.37957 9.35074 5.14551 9.06203 5.14551C8.77332 5.14551 8.53926 5.37957 8.53926 5.66828V6.13278C7.59044 6.13278 6.95593 6.86071 6.95593 7.67313C6.95593 8.52249 7.64669 9.21353 8.49577 9.21353H9.62833C9.90087 9.21353 10.1226 9.43549 10.1226 9.70834C10.1226 9.98217 9.90122 10.2032 9.62844 10.2032C9.62589 10.2032 9.62335 10.2032 9.62084 10.2032H8.43753C8.29997 10.2018 8.15391 10.1521 8.02604 10.0634C7.78884 9.89863 7.46312 9.95746 7.29849 10.1947C7.13385 10.4319 7.19261 10.7576 7.42981 10.9222C7.80634 11.1836 8.14548 11.2487 8.5393 11.2487V11.7132C8.5393 12.0019 8.77336 12.236 9.06207 12.236C9.35078 12.236 9.58484 12.0019 9.58484 11.7132V11.2487C10.5405 11.2487 11.1682 10.5145 11.1682 9.70834C11.1681 8.85902 10.4774 8.16802 9.6283 8.16802Z" fill="#F5FBFF"/>
<path d="M14.5166 9.85525C15.257 6.36876 12.5862 3.11292 9.06315 3.11292C5.98895 3.11292 3.48792 5.6152 3.48792 8.6909C3.48792 12.2159 6.74484 14.8923 10.2341 14.1455C9.49419 17.6196 12.1536 20.8871 15.6869 20.8871C18.761 20.8871 21.2621 18.3848 21.2621 15.3091C21.2621 11.7851 18.0055 9.10664 14.5166 9.85525ZM4.53345 8.6909C4.53345 6.19171 6.56546 4.15845 9.06315 4.15845C12.2077 4.15845 14.4066 7.3087 13.313 10.2629C12.1411 10.817 11.192 11.7677 10.6399 12.9411C7.68833 14.0397 4.53345 11.8422 4.53345 8.6909ZM15.6869 19.8415C13.1892 19.8415 11.1572 17.8083 11.1572 15.3091C11.1572 12.81 13.1892 10.7768 15.6869 10.7768C18.1845 10.7768 20.2165 12.81 20.2165 15.3091C20.2165 17.8083 18.1845 19.8415 15.6869 19.8415Z" fill="#F5FBFF"/>
<path d="M17.4703 17.1422C16.7405 16.9105 15.9778 16.8369 15.2262 16.9222C15.3321 16.5972 15.4068 16.2637 15.4497 15.9252H16.0762C16.3649 15.9252 16.599 15.6911 16.599 15.4024C16.599 15.1137 16.3649 14.8796 16.0762 14.8796H15.481C15.4702 14.7143 15.4636 14.6672 15.4193 14.2634C15.346 13.5941 16.1767 13.2362 16.6165 13.7322C16.808 13.9482 17.1384 13.9682 17.3545 13.7765C17.5705 13.585 17.5904 13.2546 17.3988 13.0385C16.2893 11.7871 14.1954 12.6945 14.38 14.3773C14.4272 14.8076 14.4237 14.769 14.4326 14.8796H14.0607C13.772 14.8796 13.538 15.1137 13.538 15.4024C13.538 15.6911 13.772 15.9251 14.0607 15.9251H14.3934C14.313 16.434 14.1434 16.927 13.8876 17.3859C13.6618 17.7912 14.0392 18.2696 14.486 18.1436C15.3712 17.8944 16.1966 17.8347 17.154 18.1386C17.4287 18.2259 17.723 18.0741 17.8105 17.7986C17.8977 17.5234 17.7455 17.2296 17.4703 17.1422Z" fill="#F5FBFF"/>
<path d="M16.47 4.75727C17.4944 4.75727 18.5831 5.53079 18.5831 6.96433V7.45657L18.1123 6.98552C17.9083 6.78129 17.5772 6.78129 17.373 6.98531C17.1688 7.1894 17.1687 7.52042 17.3728 7.72462L18.7361 9.0887C18.9384 9.29118 19.2704 9.29414 19.4756 9.0887L20.839 7.72462C21.0431 7.52042 21.043 7.18944 20.8388 6.98531C20.6346 6.78119 20.3035 6.78129 20.0995 6.98552L19.6286 7.45661V6.96433C19.6286 5.06246 18.1838 3.71173 16.47 3.71173C16.1813 3.71173 15.9472 3.94579 15.9472 4.2345C15.9472 4.52321 16.1813 4.75727 16.47 4.75727Z" fill="#F5FBFF"/>
<path d="M8.28068 19.2433C7.25629 19.2433 6.16757 18.4698 6.16757 17.0362V16.544L6.63841 17.0151C6.84247 17.2192 7.17342 17.2194 7.37771 17.0153C7.58194 16.8112 7.58201 16.4802 7.37792 16.276L6.01457 14.9118C5.81233 14.7092 5.47964 14.7068 5.2751 14.9118L3.91168 16.276C3.70759 16.4802 3.70766 16.8112 3.91189 17.0153C4.11605 17.2194 4.44707 17.2193 4.65119 17.0151L5.12203 16.544V17.0362C5.12203 18.9381 6.56686 20.2888 8.28068 20.2888C8.56938 20.2888 8.80345 20.0548 8.80345 19.7661C8.80345 19.4774 8.56938 19.2433 8.28068 19.2433Z" fill="#F5FBFF"/>
</svg>
